<?xml version="1.0" standalone="no"?>
 <!DOCTYPE svg PUBLIC "-//W3C//DTD SVG 1.1//EN" 
 "http://www.w3.org/Graphics/SVG/1.1/DTD/svg11.dtd"> 
<svg
  xmlns:svg="http://www.w3.org/2000/svg"
  xmlns="http://www.w3.org/2000/svg"
  xmlns:xlink="http://www.w3.org/1999/xlink"
  version="1.1"
  width="297.0022mm" height="210.0072mm" viewBox="0.0000 0.0000 297.0022 210.0072">
<title>SVG Image created as QRE113-F_Cu.svg date 2023/08/25 09:10:06 </title>
  <desc>Image generated by PCBNEW </desc>
<g style="fill:#000000; fill-opacity:1.0000;stroke:#000000; stroke-opacity:1.0000;
stroke-linecap:round; stroke-linejoin:round;"
 transform="translate(0 0) scale(1 1)">
</g>
<g style="fill:#000000; fill-opacity:0.0; 
stroke:#000000; stroke-width:0.0000; stroke-opacity:1; 
stroke-linecap:round; stroke-linejoin:round;">
<g >
</g>
<g style="fill:#000000; fill-opacity:0.0; 
stroke:#000000; stroke-width:0.0000; stroke-opacity:1; 
stroke-linecap:round; stroke-linejoin:round;">
</g>
<g style="fill:#000000; fill-opacity:1.0000; 
stroke:#000000; stroke-width:0.0000; stroke-opacity:1; 
stroke-linecap:round; stroke-linejoin:round;">
<path style="fill:#000000; fill-opacity:1.0000; 
stroke:#000000; stroke-width:0.0000; stroke-opacity:1; 
stroke-linecap:round; stroke-linejoin:round;fill-rule:evenodd;"
d="M 227.4600,65.5384
227.4600,64.5384
228.8600,64.5384
228.8600,65.5384
Z" /> 
<path style="fill:#000000; fill-opacity:1.0000; 
stroke:#000000; stroke-width:0.0000; stroke-opacity:1; 
stroke-linecap:round; stroke-linejoin:round;fill-rule:evenodd;"
d="M 223.2600,65.5384
223.2600,64.5384
224.6600,64.5384
224.6600,65.5384
Z" /> 
<path style="fill:#000000; fill-opacity:1.0000; 
stroke:#000000; stroke-width:0.0000; stroke-opacity:1; 
stroke-linecap:round; stroke-linejoin:round;fill-rule:evenodd;"
d="M 223.2600,67.3384
223.2600,66.3384
224.6600,66.3384
224.6600,67.3384
Z" /> 
<path style="fill:#000000; fill-opacity:1.0000; 
stroke:#000000; stroke-width:0.0000; stroke-opacity:1; 
stroke-linecap:round; stroke-linejoin:round;fill-rule:evenodd;"
d="M 227.4600,67.3384
227.4600,66.3384
228.8600,66.3384
228.8600,67.3384
Z" /> 
</g>
<g >
</g>
<g style="fill:#000000; fill-opacity:1.0000; 
stroke:#000000; stroke-width:0.0000; stroke-opacity:1; 
stroke-linecap:round; stroke-linejoin:round;">
<path style="fill:#000000; fill-opacity:1.0000; 
stroke:#000000; stroke-width:0.0000; stroke-opacity:1; 
stroke-linecap:round; stroke-linejoin:round;fill-rule:evenodd;"
d="M 237.8837,65.3161
236.0803,65.3161
236.0803,63.7159
237.8837,63.7159
Z" /> 
<path style="fill:#000000; fill-opacity:1.0000; 
stroke:#000000; stroke-width:0.0000; stroke-opacity:1; 
stroke-linecap:round; stroke-linejoin:round;fill-rule:evenodd;"
d="M 237.8837,68.1101
236.0803,68.1101
236.0803,66.5099
237.8837,66.5099
Z" /> 
</g>
<g >
</g>
<g style="fill:#000000; fill-opacity:1.0000; 
stroke:#000000; stroke-width:0.0000; stroke-opacity:1; 
stroke-linecap:round; stroke-linejoin:round;">
<path style="fill:#000000; fill-opacity:1.0000; 
stroke:#000000; stroke-width:0.0000; stroke-opacity:1; 
stroke-linecap:round; stroke-linejoin:round;fill-rule:evenodd;"
d="M 249.9487,65.0621
248.1453,65.0621
248.1453,63.4619
249.9487,63.4619
Z" /> 
<path style="fill:#000000; fill-opacity:1.0000; 
stroke:#000000; stroke-width:0.0000; stroke-opacity:1; 
stroke-linecap:round; stroke-linejoin:round;fill-rule:evenodd;"
d="M 249.9487,67.8561
248.1453,67.8561
248.1453,66.2559
249.9487,66.2559
Z" /> 
</g>
<g >
</g>
<g style="fill:#000000; fill-opacity:1.0000; 
stroke:#000000; stroke-width:0.0000; stroke-opacity:1; 
stroke-linecap:round; stroke-linejoin:round;">
<circle cx="157.7848" cy="76.3524" r="1.5000" /> 
</g>
<g style="fill:#000000; fill-opacity:1.0000; 
stroke:#000000; stroke-width:0.0212; stroke-opacity:1; 
stroke-linecap:round; stroke-linejoin:round;">
</g>
<g >
</g>
<g style="fill:#000000; fill-opacity:1.0000; 
stroke:#000000; stroke-width:0.0212; stroke-opacity:1; 
stroke-linecap:round; stroke-linejoin:round;">
</g>
<g style="fill:#000000; fill-opacity:1.0000; 
stroke:#000000; stroke-width:0.0000; stroke-opacity:1; 
stroke-linecap:round; stroke-linejoin:round;">
<path style="fill:#000000; fill-opacity:1.0000; 
stroke:#000000; stroke-width:0.0000; stroke-opacity:1; 
stroke-linecap:round; stroke-linejoin:round;fill-rule:evenodd;"
d="M 171.9707,65.4431
170.1673,65.4431
170.1673,63.8429
171.9707,63.8429
Z" /> 
<path style="fill:#000000; fill-opacity:1.0000; 
stroke:#000000; stroke-width:0.0000; stroke-opacity:1; 
stroke-linecap:round; stroke-linejoin:round;fill-rule:evenodd;"
d="M 171.9707,68.2371
170.1673,68.2371
170.1673,66.6369
171.9707,66.6369
Z" /> 
</g>
<g >
</g>
<g style="fill:#000000; fill-opacity:1.0000; 
stroke:#000000; stroke-width:0.0000; stroke-opacity:1; 
stroke-linecap:round; stroke-linejoin:round;">
<path style="fill:#000000; fill-opacity:1.0000; 
stroke:#000000; stroke-width:0.0000; stroke-opacity:1; 
stroke-linecap:round; stroke-linejoin:round;fill-rule:evenodd;"
d="M 195.0466,79.8830
193.3194,79.8830
193.3194,77.8510
195.0466,77.8510
Z" /> 
</g>
<g style="fill:#000000; fill-opacity:1.0000; 
stroke:#000000; stroke-width:1.7272; stroke-opacity:1; 
stroke-linecap:round; stroke-linejoin:round;">
</g>
<g style="fill:#000000; fill-opacity:0.0; 
stroke:#000000; stroke-width:1.7272; stroke-opacity:1; 
stroke-linecap:round; stroke-linejoin:round;">
<path d="M196.7230 79.0194
L196.7230 78.7146
" />
<path d="M199.2630 79.0194
L199.2630 78.7146
" />
<path d="M201.8030 79.0194
L201.8030 78.7146
" />
<path d="M204.3430 79.0194
L204.3430 78.7146
" />
<path d="M206.8830 79.0194
L206.8830 78.7146
" />
<path d="M209.4230 79.0194
L209.4230 78.7146
" />
<path d="M211.9630 79.0194
L211.9630 78.7146
" />
</g>
<g >
</g>
<g style="fill:#000000; fill-opacity:0.0; 
stroke:#000000; stroke-width:1.7272; stroke-opacity:1; 
stroke-linecap:round; stroke-linejoin:round;">
</g>
<g style="fill:#000000; fill-opacity:0.0; 
stroke:#000000; stroke-width:0.0000; stroke-opacity:1; 
stroke-linecap:round; stroke-linejoin:round;">
</g>
<g style="fill:#000000; fill-opacity:1.0000; 
stroke:#000000; stroke-width:0.0000; stroke-opacity:1; 
stroke-linecap:round; stroke-linejoin:round;">
<path style="fill:#000000; fill-opacity:1.0000; 
stroke:#000000; stroke-width:0.0000; stroke-opacity:1; 
stroke-linecap:round; stroke-linejoin:round;fill-rule:evenodd;"
d="M 182.7657,65.3161
180.9623,65.3161
180.9623,63.7159
182.7657,63.7159
Z" /> 
<path style="fill:#000000; fill-opacity:1.0000; 
stroke:#000000; stroke-width:0.0000; stroke-opacity:1; 
stroke-linecap:round; stroke-linejoin:round;fill-rule:evenodd;"
d="M 182.7657,68.1101
180.9623,68.1101
180.9623,66.5099
182.7657,66.5099
Z" /> 
</g>
<g >
</g>
<g style="fill:#000000; fill-opacity:1.0000; 
stroke:#000000; stroke-width:0.0000; stroke-opacity:1; 
stroke-linecap:round; stroke-linejoin:round;">
<path style="fill:#000000; fill-opacity:1.0000; 
stroke:#000000; stroke-width:0.0000; stroke-opacity:1; 
stroke-linecap:round; stroke-linejoin:round;fill-rule:evenodd;"
d="M 232.5497,65.3161
230.7463,65.3161
230.7463,63.7159
232.5497,63.7159
Z" /> 
<path style="fill:#000000; fill-opacity:1.0000; 
stroke:#000000; stroke-width:0.0000; stroke-opacity:1; 
stroke-linecap:round; stroke-linejoin:round;fill-rule:evenodd;"
d="M 232.5497,68.1101
230.7463,68.1101
230.7463,66.5099
232.5497,66.5099
Z" /> 
</g>
<g >
</g>
<g style="fill:#000000; fill-opacity:1.0000; 
stroke:#000000; stroke-width:0.0000; stroke-opacity:1; 
stroke-linecap:round; stroke-linejoin:round;">
<path style="fill:#000000; fill-opacity:1.0000; 
stroke:#000000; stroke-width:0.0000; stroke-opacity:1; 
stroke-linecap:round; stroke-linejoin:round;fill-rule:evenodd;"
d="M 157.2895,65.5701
155.4861,65.5701
155.4861,63.9699
157.2895,63.9699
Z" /> 
<path style="fill:#000000; fill-opacity:1.0000; 
stroke:#000000; stroke-width:0.0000; stroke-opacity:1; 
stroke-linecap:round; stroke-linejoin:round;fill-rule:evenodd;"
d="M 157.2895,68.3641
155.4861,68.3641
155.4861,66.7639
157.2895,66.7639
Z" /> 
</g>
<g >
</g>
<g style="fill:#000000; fill-opacity:1.0000; 
stroke:#000000; stroke-width:0.0000; stroke-opacity:1; 
stroke-linecap:round; stroke-linejoin:round;">
<path style="fill:#000000; fill-opacity:1.0000; 
stroke:#000000; stroke-width:0.0000; stroke-opacity:1; 
stroke-linecap:round; stroke-linejoin:round;fill-rule:evenodd;"
d="M 203.9747,65.3161
202.1713,65.3161
202.1713,63.7159
203.9747,63.7159
Z" /> 
<path style="fill:#000000; fill-opacity:1.0000; 
stroke:#000000; stroke-width:0.0000; stroke-opacity:1; 
stroke-linecap:round; stroke-linejoin:round;fill-rule:evenodd;"
d="M 203.9747,68.1101
202.1713,68.1101
202.1713,66.5099
203.9747,66.5099
Z" /> 
</g>
<g >
</g>
<g style="fill:#000000; fill-opacity:1.0000; 
stroke:#000000; stroke-width:0.0000; stroke-opacity:1; 
stroke-linecap:round; stroke-linejoin:round;">
<path style="fill:#000000; fill-opacity:1.0000; 
stroke:#000000; stroke-width:0.0000; stroke-opacity:1; 
stroke-linecap:round; stroke-linejoin:round;fill-rule:evenodd;"
d="M 162.7408,65.8686
162.7408,64.8686
164.1408,64.8686
164.1408,65.8686
Z" /> 
<path style="fill:#000000; fill-opacity:1.0000; 
stroke:#000000; stroke-width:0.0000; stroke-opacity:1; 
stroke-linecap:round; stroke-linejoin:round;fill-rule:evenodd;"
d="M 158.5408,65.8686
158.5408,64.8686
159.9408,64.8686
159.9408,65.8686
Z" /> 
<path style="fill:#000000; fill-opacity:1.0000; 
stroke:#000000; stroke-width:0.0000; stroke-opacity:1; 
stroke-linecap:round; stroke-linejoin:round;fill-rule:evenodd;"
d="M 158.5408,67.6686
158.5408,66.6686
159.9408,66.6686
159.9408,67.6686
Z" /> 
<path style="fill:#000000; fill-opacity:1.0000; 
stroke:#000000; stroke-width:0.0000; stroke-opacity:1; 
stroke-linecap:round; stroke-linejoin:round;fill-rule:evenodd;"
d="M 162.7408,67.6686
162.7408,66.6686
164.1408,66.6686
164.1408,67.6686
Z" /> 
</g>
<g >
</g>
<g style="fill:#000000; fill-opacity:1.0000; 
stroke:#000000; stroke-width:0.0000; stroke-opacity:1; 
stroke-linecap:round; stroke-linejoin:round;">
<path style="fill:#000000; fill-opacity:1.0000; 
stroke:#000000; stroke-width:0.0000; stroke-opacity:1; 
stroke-linecap:round; stroke-linejoin:round;fill-rule:evenodd;"
d="M 244.4780,65.5130
244.4780,64.5130
245.8780,64.5130
245.8780,65.5130
Z" /> 
<path style="fill:#000000; fill-opacity:1.0000; 
stroke:#000000; stroke-width:0.0000; stroke-opacity:1; 
stroke-linecap:round; stroke-linejoin:round;fill-rule:evenodd;"
d="M 240.2780,65.5130
240.2780,64.5130
241.6780,64.5130
241.6780,65.5130
Z" /> 
<path style="fill:#000000; fill-opacity:1.0000; 
stroke:#000000; stroke-width:0.0000; stroke-opacity:1; 
stroke-linecap:round; stroke-linejoin:round;fill-rule:evenodd;"
d="M 240.2780,67.3130
240.2780,66.3130
241.6780,66.3130
241.6780,67.3130
Z" /> 
<path style="fill:#000000; fill-opacity:1.0000; 
stroke:#000000; stroke-width:0.0000; stroke-opacity:1; 
stroke-linecap:round; stroke-linejoin:round;fill-rule:evenodd;"
d="M 244.4780,67.3130
244.4780,66.3130
245.8780,66.3130
245.8780,67.3130
Z" /> 
</g>
<g >
</g>
<g style="fill:#000000; fill-opacity:1.0000; 
stroke:#000000; stroke-width:0.0000; stroke-opacity:1; 
stroke-linecap:round; stroke-linejoin:round;">
<path style="fill:#000000; fill-opacity:1.0000; 
stroke:#000000; stroke-width:0.0000; stroke-opacity:1; 
stroke-linecap:round; stroke-linejoin:round;fill-rule:evenodd;"
d="M 177.6252,65.6146
177.6252,64.6146
179.0252,64.6146
179.0252,65.6146
Z" /> 
<path style="fill:#000000; fill-opacity:1.0000; 
stroke:#000000; stroke-width:0.0000; stroke-opacity:1; 
stroke-linecap:round; stroke-linejoin:round;fill-rule:evenodd;"
d="M 173.4252,65.6146
173.4252,64.6146
174.8252,64.6146
174.8252,65.6146
Z" /> 
<path style="fill:#000000; fill-opacity:1.0000; 
stroke:#000000; stroke-width:0.0000; stroke-opacity:1; 
stroke-linecap:round; stroke-linejoin:round;fill-rule:evenodd;"
d="M 173.4252,67.4146
173.4252,66.4146
174.8252,66.4146
174.8252,67.4146
Z" /> 
<path style="fill:#000000; fill-opacity:1.0000; 
stroke:#000000; stroke-width:0.0000; stroke-opacity:1; 
stroke-linecap:round; stroke-linejoin:round;fill-rule:evenodd;"
d="M 177.6252,67.4146
177.6252,66.4146
179.0252,66.4146
179.0252,67.4146
Z" /> 
</g>
<g >
</g>
<g style="fill:#000000; fill-opacity:1.0000; 
stroke:#000000; stroke-width:0.0000; stroke-opacity:1; 
stroke-linecap:round; stroke-linejoin:round;">
<path style="fill:#000000; fill-opacity:1.0000; 
stroke:#000000; stroke-width:0.0000; stroke-opacity:1; 
stroke-linecap:round; stroke-linejoin:round;fill-rule:evenodd;"
d="M 221.1197,65.3161
219.3163,65.3161
219.3163,63.7159
221.1197,63.7159
Z" /> 
<path style="fill:#000000; fill-opacity:1.0000; 
stroke:#000000; stroke-width:0.0000; stroke-opacity:1; 
stroke-linecap:round; stroke-linejoin:round;fill-rule:evenodd;"
d="M 221.1197,68.1101
219.3163,68.1101
219.3163,66.5099
221.1197,66.5099
Z" /> 
</g>
<g >
</g>
<g style="fill:#000000; fill-opacity:1.0000; 
stroke:#000000; stroke-width:0.0000; stroke-opacity:1; 
stroke-linecap:round; stroke-linejoin:round;">
<path style="fill:#000000; fill-opacity:1.0000; 
stroke:#000000; stroke-width:0.0000; stroke-opacity:1; 
stroke-linecap:round; stroke-linejoin:round;fill-rule:evenodd;"
d="M 193.8304,65.5130
193.8304,64.5130
195.2304,64.5130
195.2304,65.5130
Z" /> 
<path style="fill:#000000; fill-opacity:1.0000; 
stroke:#000000; stroke-width:0.0000; stroke-opacity:1; 
stroke-linecap:round; stroke-linejoin:round;fill-rule:evenodd;"
d="M 189.6304,65.5130
189.6304,64.5130
191.0304,64.5130
191.0304,65.5130
Z" /> 
<path style="fill:#000000; fill-opacity:1.0000; 
stroke:#000000; stroke-width:0.0000; stroke-opacity:1; 
stroke-linecap:round; stroke-linejoin:round;fill-rule:evenodd;"
d="M 189.6304,67.3130
189.6304,66.3130
191.0304,66.3130
191.0304,67.3130
Z" /> 
<path style="fill:#000000; fill-opacity:1.0000; 
stroke:#000000; stroke-width:0.0000; stroke-opacity:1; 
stroke-linecap:round; stroke-linejoin:round;fill-rule:evenodd;"
d="M 193.8304,67.3130
193.8304,66.3130
195.2304,66.3130
195.2304,67.3130
Z" /> 
</g>
<g >
</g>
<g style="fill:#000000; fill-opacity:1.0000; 
stroke:#000000; stroke-width:0.0000; stroke-opacity:1; 
stroke-linecap:round; stroke-linejoin:round;">
<path style="fill:#000000; fill-opacity:1.0000; 
stroke:#000000; stroke-width:0.0000; stroke-opacity:1; 
stroke-linecap:round; stroke-linejoin:round;fill-rule:evenodd;"
d="M 167.3225,65.4431
165.5191,65.4431
165.5191,63.8429
167.3225,63.8429
Z" /> 
<path style="fill:#000000; fill-opacity:1.0000; 
stroke:#000000; stroke-width:0.0000; stroke-opacity:1; 
stroke-linecap:round; stroke-linejoin:round;fill-rule:evenodd;"
d="M 167.3225,68.2371
165.5191,68.2371
165.5191,66.6369
167.3225,66.6369
Z" /> 
</g>
<g >
</g>
<g style="fill:#000000; fill-opacity:1.0000; 
stroke:#000000; stroke-width:0.0000; stroke-opacity:1; 
stroke-linecap:round; stroke-linejoin:round;">
<path style="fill:#000000; fill-opacity:1.0000; 
stroke:#000000; stroke-width:0.0000; stroke-opacity:1; 
stroke-linecap:round; stroke-linejoin:round;fill-rule:evenodd;"
d="M 210.6452,65.5638
210.6452,64.5638
212.0452,64.5638
212.0452,65.5638
Z" /> 
<path style="fill:#000000; fill-opacity:1.0000; 
stroke:#000000; stroke-width:0.0000; stroke-opacity:1; 
stroke-linecap:round; stroke-linejoin:round;fill-rule:evenodd;"
d="M 206.4452,65.5638
206.4452,64.5638
207.8452,64.5638
207.8452,65.5638
Z" /> 
<path style="fill:#000000; fill-opacity:1.0000; 
stroke:#000000; stroke-width:0.0000; stroke-opacity:1; 
stroke-linecap:round; stroke-linejoin:round;fill-rule:evenodd;"
d="M 206.4452,67.3638
206.4452,66.3638
207.8452,66.3638
207.8452,67.3638
Z" /> 
<path style="fill:#000000; fill-opacity:1.0000; 
stroke:#000000; stroke-width:0.0000; stroke-opacity:1; 
stroke-linecap:round; stroke-linejoin:round;fill-rule:evenodd;"
d="M 210.6452,67.3638
210.6452,66.3638
212.0452,66.3638
212.0452,67.3638
Z" /> 
</g>
<g >
</g>
<g style="fill:#000000; fill-opacity:1.0000; 
stroke:#000000; stroke-width:0.0000; stroke-opacity:1; 
stroke-linecap:round; stroke-linejoin:round;">
<path style="fill:#000000; fill-opacity:1.0000; 
stroke:#000000; stroke-width:0.0000; stroke-opacity:1; 
stroke-linecap:round; stroke-linejoin:round;fill-rule:evenodd;"
d="M 215.5317,65.3161
213.7283,65.3161
213.7283,63.7159
215.5317,63.7159
Z" /> 
<path style="fill:#000000; fill-opacity:1.0000; 
stroke:#000000; stroke-width:0.0000; stroke-opacity:1; 
stroke-linecap:round; stroke-linejoin:round;fill-rule:evenodd;"
d="M 215.5317,68.1101
213.7283,68.1101
213.7283,66.5099
215.5317,66.5099
Z" /> 
</g>
<g >
</g>
<g style="fill:#000000; fill-opacity:1.0000; 
stroke:#000000; stroke-width:0.0000; stroke-opacity:1; 
stroke-linecap:round; stroke-linejoin:round;">
<path style="fill:#000000; fill-opacity:1.0000; 
stroke:#000000; stroke-width:0.0000; stroke-opacity:1; 
stroke-linecap:round; stroke-linejoin:round;fill-rule:evenodd;"
d="M 199.0217,65.3161
197.2183,65.3161
197.2183,63.7159
199.0217,63.7159
Z" /> 
<path style="fill:#000000; fill-opacity:1.0000; 
stroke:#000000; stroke-width:0.0000; stroke-opacity:1; 
stroke-linecap:round; stroke-linejoin:round;fill-rule:evenodd;"
d="M 199.0217,68.1101
197.2183,68.1101
197.2183,66.5099
199.0217,66.5099
Z" /> 
</g>
<g >
</g>
<g style="fill:#000000; fill-opacity:1.0000; 
stroke:#000000; stroke-width:0.0000; stroke-opacity:1; 
stroke-linecap:round; stroke-linejoin:round;">
<circle cx="247.5992" cy="76.4032" r="1.5000" /> 
</g>
<g style="fill:#000000; fill-opacity:1.0000; 
stroke:#000000; stroke-width:0.0212; stroke-opacity:1; 
stroke-linecap:round; stroke-linejoin:round;">
</g>
<g >
</g>
<g style="fill:#000000; fill-opacity:1.0000; 
stroke:#000000; stroke-width:0.0212; stroke-opacity:1; 
stroke-linecap:round; stroke-linejoin:round;">
</g>
<g style="fill:#000000; fill-opacity:1.0000; 
stroke:#000000; stroke-width:0.0000; stroke-opacity:1; 
stroke-linecap:round; stroke-linejoin:round;">
<path style="fill:#000000; fill-opacity:1.0000; 
stroke:#000000; stroke-width:0.0000; stroke-opacity:1; 
stroke-linecap:round; stroke-linejoin:round;fill-rule:evenodd;"
d="M 187.5917,65.3161
185.7883,65.3161
185.7883,63.7159
187.5917,63.7159
Z" /> 
<path style="fill:#000000; fill-opacity:1.0000; 
stroke:#000000; stroke-width:0.0000; stroke-opacity:1; 
stroke-linecap:round; stroke-linejoin:round;fill-rule:evenodd;"
d="M 187.5917,68.1101
185.7883,68.1101
185.7883,66.5099
187.5917,66.5099
Z" /> 
</g>
<g >
</g>
<g >
</g>
<g style="fill:#000000; fill-opacity:1.0000; 
stroke:#000000; stroke-width:0.0000; stroke-opacity:1; 
stroke-linecap:round; stroke-linejoin:round;">
</g>
<g style="fill:#000000; fill-opacity:1.0000; 
stroke:#000000; stroke-width:0.7500; stroke-opacity:1; 
stroke-linecap:round; stroke-linejoin:round;">
</g>
<g style="fill:#000000; fill-opacity:0.0; 
stroke:#000000; stroke-width:0.7500; stroke-opacity:1; 
stroke-linecap:round; stroke-linejoin:round;">
<path d="M181.8640 64.5160
L181.8640 60.8330
" />
<path d="M198.1200 64.5160
L198.1200 60.9600
" />
<path d="M153.9748 64.7700
L153.9240 64.8208
" />
<path d="M220.2180 64.5160
L220.2180 60.8330
" />
<path d="M166.4208 64.6430
L166.4208 60.8838
" />
<path d="M236.9820 60.8330
L248.1326 60.8330
" />
<path d="M153.9240 61.8236
L153.9240 64.8208
" />
<path d="M170.9420 60.8330
L181.8640 60.8330
" />
<path d="M236.9820 64.5160
L236.9820 60.8330
" />
<path d="M171.0690 60.9600
L170.9420 60.8330
" />
<path d="M181.8640 60.8330
L186.6900 60.8330
" />
<path d="M153.9240 64.8208
L153.9240 71.2216
" />
<path d="M214.6300 64.5160
L214.6300 60.8330
" />
<path d="M166.4716 60.8330
L154.9146 60.8330
" />
<path d="M198.1200 60.9600
L198.2470 60.8330
" />
<path d="M214.6300 60.8330
L220.2180 60.8330
" />
<path d="M153.9240 71.2216
L155.1432 72.4408
" />
<path d="M203.0730 60.8330
L214.6300 60.8330
" />
<path d="M186.6900 60.8330
L198.2470 60.8330
" />
<path d="M166.4716 60.8330
L170.9420 60.8330
" />
<path d="M164.8460 72.4408
L171.2722 78.8670
" />
<path d="M231.6480 60.8330
L236.9820 60.8330
" />
<path d="M171.2722 78.8670
L194.1830 78.8670
" />
<path d="M198.2470 60.8330
L203.0730 60.8330
" />
<path d="M220.2180 60.8330
L231.6480 60.8330
" />
<path d="M155.1432 72.4408
L164.8460 72.4408
" />
<path d="M166.4208 60.8838
L166.4716 60.8330
" />
<path d="M249.0470 61.7474
L249.0470 64.2620
" />
<path d="M154.9146 60.8330
L153.9240 61.8236
" />
<path d="M231.6480 64.5160
L231.6480 60.8330
" />
<path d="M156.3878 64.7700
L153.9748 64.7700
" />
<path d="M248.1326 60.8330
L249.0470 61.7474
" />
<path d="M203.0730 64.5160
L203.0730 60.8330
" />
<path d="M171.0690 64.6430
L171.0690 60.9600
" />
<path d="M186.6900 64.5160
L186.6900 60.8330
" />
<path d="M167.2336 70.3580
L172.5676 75.6920
" />
<path d="M157.2768 70.3580
L167.2336 70.3580
" />
<path d="M156.8450 67.5640
L157.2404 67.1686
" />
<path d="M156.3878 67.5640
L156.3878 69.4690
" />
<path d="M198.1200 75.6920
L199.2630 76.8350
" />
<path d="M199.2630 76.8350
L199.2630 78.8670
" />
<path d="M158.0532 67.1686
L159.2408 67.1686
" />
<path d="M156.3878 67.5640
L157.6578 67.5640
" />
<path d="M156.3878 69.4690
L157.2768 70.3580
" />
<path d="M172.5676 75.6920
L198.1200 75.6920
" />
<path d="M173.9900 73.4060
L199.5170 73.4060
" />
<path d="M171.0690 67.4370
L171.0690 70.4850
" />
<path d="M171.0690 70.4850
L173.9900 73.4060
" />
<path d="M201.8030 75.6920
L201.8030 78.8670
" />
<path d="M171.0690 67.4370
L172.2120 67.4370
" />
<path d="M199.5170 73.4060
L201.8030 75.6920
" />
<path d="M172.2120 67.4370
L172.7344 66.9146
" />
<path d="M172.7344 66.9146
L174.1252 66.9146
" />
<path d="M187.5790 70.6120
L200.2790 70.6120
" />
<path d="M186.6900 69.7230
L187.5790 70.6120
" />
<path d="M200.2790 70.6120
L204.3430 74.6760
" />
<path d="M188.5840 66.8130
L190.3304 66.8130
" />
<path d="M186.6900 67.3100
L188.0870 67.3100
" />
<path d="M204.3430 74.6760
L204.3430 78.8670
" />
<path d="M188.0870 67.3100
L188.5840 66.8130
" />
<path d="M186.6900 67.3100
L186.6900 69.7230
" />
<path d="M203.0730 67.3100
L204.9780 67.3100
" />
<path d="M203.0730 67.3100
L203.0730 69.7230
" />
<path d="M206.8830 73.5330
L206.8830 78.8670
" />
<path d="M205.4242 66.8638
L207.1452 66.8638
" />
<path d="M203.0730 69.7230
L206.8830 73.5330
" />
<path d="M204.9780 67.3100
L205.4242 66.8638
" />
<path d="M211.0740 72.1360
L209.4230 73.7870
" />
<path d="M220.2180 67.3100
L220.2180 70.3580
" />
<path d="M209.4230 73.7870
L209.4230 78.8670
" />
<path d="M222.0866 66.8384
L223.9600 66.8384
" />
<path d="M220.2180 67.3100
L221.6150 67.3100
" />
<path d="M221.6150 67.3100
L222.0866 66.8384
" />
<path d="M218.4400 72.1360
L211.0740 72.1360
" />
<path d="M220.2180 70.3580
L218.4400 72.1360
" />
<path d="M236.9820 67.3100
L238.5060 67.3100
" />
<path d="M239.0030 66.8130
L240.9780 66.8130
" />
<path d="M236.9820 72.2376
L234.1626 75.0570
" />
<path d="M213.2330 75.0570
L211.9630 76.3270
" />
<path d="M211.9630 76.3270
L211.9630 78.8670
" />
<path d="M238.5060 67.3100
L239.0030 66.8130
" />
<path d="M236.9820 67.3100
L236.9820 72.2376
" />
<path d="M234.1626 75.0570
L213.2330 75.0570
" />
<path d="M179.6686 65.1146
L181.8640 67.3100
" />
<path d="M178.3252 65.1146
L179.6686 65.1146
" />
<path d="M163.4408 65.3686
L164.2254 65.3686
" />
<path d="M164.2254 65.3686
L166.2938 67.4370
" />
<path d="M165.4810 67.4370
L165.6080 67.4370
" />
<path d="M195.8230 65.0130
L198.1200 67.3100
" />
<path d="M194.5304 65.0130
L195.8230 65.0130
" />
<path d="M211.3452 65.0638
L212.3838 65.0638
" />
<path d="M212.3838 65.0638
L214.6300 67.3100
" />
<path d="M229.3764 65.0384
L231.6480 67.3100
" />
<path d="M228.1600 65.0384
L229.3764 65.0384
" />
<path d="M247.0040 65.0130
L249.0470 67.0560
" />
<path d="M245.1780 65.0130
L247.0040 65.0130
" />
</g>
<g >
</g>
<g style="fill:#000000; fill-opacity:0.0; 
stroke:#000000; stroke-width:0.7500; stroke-opacity:1; 
stroke-linecap:round; stroke-linejoin:round;">
<g >
</g>
<g style="fill:#000000; fill-opacity:1.0000; 
stroke:#000000; stroke-width:0.0000; stroke-opacity:1; 
stroke-linecap:round; stroke-linejoin:round;">
<path style="fill:#000000; fill-opacity:1.0000; 
stroke:#000000; stroke-width:0.0000; stroke-opacity:1; 
stroke-linecap:round; stroke-linejoin:round;fill-rule:evenodd;"
d="M 252.5410,59.0716
252.5864,59.1170
252.6030,59.1790
252.6030,81.2832
252.5864,81.3451
252.5411,81.3905
252.4792,81.4072
232.9818,81.4319
152.8547,81.4319
152.7927,81.4153
152.7473,81.3699
152.7307,81.3079
152.7307,76.3524
156.0795,76.3524
156.0986,76.6066
156.1553,76.8550
156.2484,77.0923
156.3758,77.3130
156.3758,77.3130
156.5348,77.5123
156.7216,77.6856
156.9322,77.8292
157.1618,77.9398
157.4053,78.0149
157.6574,78.0529
157.9122,78.0529
158.1643,78.0149
158.4078,77.9398
158.6374,77.8292
158.8480,77.6856
159.0349,77.5123
159.1938,77.3130
159.3212,77.0923
159.4143,76.8550
159.4710,76.6066
159.4901,76.3524
159.4710,76.0982
159.4143,75.8498
159.3212,75.6125
159.2907,75.5597
159.2374,75.4675
159.1938,75.3918
159.0349,75.1925
158.8480,75.0192
158.6374,74.8756
158.4078,74.7650
158.1643,74.6899
157.9122,74.6519
157.6574,74.6519
157.4053,74.6899
157.1618,74.7650
156.9322,74.8756
156.8577,74.9264
156.7216,75.0192
156.5348,75.1925
156.3758,75.3918
156.2484,75.6125
156.1553,75.8498
156.0986,76.0982
156.0795,76.3524
152.7307,76.3524
152.7307,71.2216
153.3435,71.2216
153.3474,71.2513
153.3474,71.2513
153.3633,71.3718
153.4213,71.5118
153.4904,71.6019
153.4904,71.6019
153.5135,71.6321
153.5373,71.6503
153.5495,71.6610
154.7038,72.8153
154.7145,72.8275
154.7327,72.8513
154.7629,72.8744
154.8465,72.9385
154.8514,72.9429
154.8530,72.9435
154.8530,72.9435
154.8530,72.9435
154.9786,72.9956
154.9930,73.0015
155.1135,73.0174
155.1135,73.0174
155.1432,73.0213
155.1729,73.0174
155.1890,73.0163
164.5563,73.0163
164.6037,73.0257
164.6439,73.0526
170.8328,79.2415
170.8435,79.2537
170.8617,79.2775
170.8919,79.3006
170.9755,79.3648
170.9804,79.3691
170.9820,79.3697
170.9820,79.3697
170.9820,79.3697
171.1220,79.4277
171.2425,79.4436
171.2425,79.4436
171.2722,79.4475
171.3019,79.4436
171.3180,79.4425
192.9949,79.4425
193.0569,79.4591
193.1023,79.5045
193.1189,79.5665
193.1189,79.9027
193.1305,79.9612
193.1748,80.0276
193.2412,80.0719
193.2997,80.0835
193.2997,80.0835
195.0663,80.0835
195.0663,80.0835
195.0956,80.0777
195.1248,80.0719
195.1912,80.0276
195.2355,79.9612
195.2471,79.9027
195.2471,79.6402
195.2650,79.5761
195.3134,79.5304
195.3785,79.5164
195.4414,79.5381
195.4841,79.5891
195.5283,79.6868
195.6582,79.8791
195.8188,80.0467
196.0055,80.1847
196.2127,80.2892
196.4347,80.3572
196.4730,80.3621
196.4730,77.3736
196.3223,77.4061
196.1069,77.4926
195.9092,77.6143
195.7350,77.7677
195.5892,77.9483
195.4794,78.1448
195.4343,78.1910
195.3722,78.2083
195.3097,78.1921
195.2639,78.1466
195.2471,78.0843
195.2471,77.8313
195.2355,77.7728
195.1912,77.7064
195.1248,77.6621
195.0663,77.6505
195.0663,77.6505
193.2997,77.6505
193.2997,77.6505
193.2412,77.6621
193.1748,77.7064
193.1305,77.7728
193.1189,77.8313
193.1189,78.1675
193.1023,78.2295
193.0569,78.2749
192.9949,78.2915
171.5619,78.2915
171.5145,78.2821
171.4743,78.2552
165.2854,72.0663
165.2747,72.0541
165.2565,72.0304
165.2565,72.0303
165.2565,72.0303
165.2263,72.0072
165.2263,72.0072
165.1362,71.9381
165.1362,71.9381
164.9962,71.8801
164.8757,71.8642
164.8757,71.8642
164.8460,71.8603
164.8163,71.8642
164.8002,71.8653
155.4329,71.8653
155.3855,71.8559
155.3453,71.8290
154.5358,71.0195
154.5089,70.9793
154.4995,70.9319
154.4995,68.3838
155.2856,68.3838
155.2972,68.4423
155.3415,68.5087
155.4079,68.5530
155.4664,68.5646
155.4664,68.5646
155.6883,68.5646
155.7503,68.5812
155.7957,68.6266
155.8123,68.6886
155.8123,69.4232
155.8112,69.4393
155.8073,69.4690
155.8112,69.4987
155.8112,69.4987
155.8123,69.5067
155.8210,69.5728
155.8271,69.6192
155.8851,69.7592
155.9542,69.8493
155.9542,69.8493
155.9726,69.8732
155.9774,69.8795
156.0011,69.8977
156.0133,69.9084
156.8374,70.7325
156.8481,70.7447
156.8663,70.7684
156.8663,70.7685
156.8901,70.7867
156.8901,70.7867
156.8965,70.7916
156.8965,70.7916
156.9866,70.8607
156.9866,70.8607
156.9866,70.8607
157.0856,70.9017
157.0856,70.9017
157.1266,70.9187
157.2391,70.9335
157.2471,70.9346
157.2471,70.9346
157.2768,70.9385
157.3065,70.9346
157.3226,70.9335
166.9439,70.9335
166.9913,70.9429
167.0315,70.9698
172.1282,76.0665
172.1389,76.0787
172.1571,76.1025
172.1873,76.1256
172.2540,76.1768
172.2774,76.1947
172.4174,76.2527
172.5379,76.2686
172.5379,76.2686
172.5676,76.2725
172.5973,76.2686
172.6134,76.2675
197.8303,76.2675
197.8777,76.2769
197.9179,76.3038
198.6512,77.0371
198.6781,77.0773
198.6875,77.1247
198.6875,77.7517
198.6756,77.8047
198.6422,77.8475
198.5298,77.9398
198.5069,77.9585
198.3740,78.1206
198.2751,78.3054
198.2686,78.3271
198.2351,78.3811
198.1793,78.4115
198.1158,78.4103
198.0612,78.3777
198.0299,78.3223
198.0134,78.2587
197.9177,78.0472
197.7878,77.8549
197.6272,77.6873
197.4405,77.5493
197.2333,77.4448
197.0113,77.3768
196.9730,77.3719
196.9730,80.3604
197.1237,80.3279
197.3391,80.2414
197.5368,80.1197
197.7110,79.9663
197.8568,79.7857
197.9700,79.5831
198.0335,79.4034
198.0678,79.3523
198.1224,79.3239
198.1839,79.3253
198.2372,79.3561
198.2691,79.4087
198.2751,79.4286
198.3740,79.6134
198.5069,79.7755
198.6690,79.9084
198.8538,80.0073
199.0544,80.0681
199.2630,80.0886
199.4716,80.0681
199.6722,80.0073
199.8570,79.9084
200.0191,79.7755
200.1520,79.6134
200.2509,79.4286
200.3117,79.2280
200.3271,79.0717
200.3271,78.6623
200.3117,78.5060
200.2509,78.3054
200.1520,78.1206
200.0191,77.9585
199.8838,77.8475
199.8504,77.8047
199.8385,77.7517
199.8385,76.8808
199.8396,76.8647
199.8435,76.8350
199.8396,76.8053
199.8396,76.8053
199.8237,76.6848
199.7657,76.5448
199.7578,76.5344
199.7578,76.5344
199.7578,76.5344
199.6966,76.4547
199.6966,76.4547
199.6735,76.4245
199.6734,76.4245
199.6734,76.4245
199.6497,76.4063
199.6375,76.3956
198.5594,75.3175
198.5487,75.3053
198.5305,75.2815
198.5003,75.2584
198.5003,75.2584
198.4102,75.1893
198.4102,75.1893
198.4102,75.1893
198.3846,75.1787
198.3846,75.1787
198.2702,75.1313
198.1497,75.1154
198.1497,75.1154
198.1200,75.1115
198.0903,75.1154
198.0742,75.1165
172.8573,75.1165
172.8099,75.1071
172.7697,75.0802
167.6730,69.9835
167.6623,69.9713
167.6441,69.9475
167.6139,69.9244
167.6139,69.9244
167.6139,69.9244
167.5238,69.8553
167.5238,69.8553
167.5238,69.8553
167.5093,69.8493
167.5093,69.8493
167.3838,69.7973
167.2633,69.7814
167.2633,69.7814
167.2336,69.7775
167.2039,69.7814
167.1878,69.7825
157.5665,69.7825
157.5191,69.7731
157.4789,69.7462
156.9996,69.2669
156.9727,69.2267
156.9633,69.1793
156.9633,68.6886
156.9799,68.6266
157.0253,68.5812
157.0873,68.5646
157.3092,68.5646
157.3385,68.5588
157.3677,68.5530
157.4341,68.5087
157.4784,68.4423
157.4900,68.3838
157.4900,68.2635
157.5066,68.2015
157.5520,68.1561
157.6140,68.1395
157.6955,68.1395
157.7557,68.1316
157.8080,68.1247
157.9480,68.0667
158.0683,67.9745
158.1605,67.8542
158.1724,67.8254
158.2131,67.7733
158.2748,67.7494
158.3400,67.7608
158.3901,67.8040
158.3962,67.8132
158.4626,67.8575
158.5211,67.8691
158.5211,67.8691
159.9605,67.8691
159.9605,67.8691
160.0158,67.8581
160.0190,67.8575
160.0854,67.8132
160.1297,67.7468
160.1413,67.6883
160.1413,67.4186
162.2408,67.4186
162.2408,67.7164
162.2472,67.7760
162.2974,67.9107
162.3836,68.0258
162.4987,68.1120
162.6334,68.1622
162.6930,68.1686
163.1908,68.1686
163.1908,67.4186
163.6908,67.4186
163.6908,68.1686
164.1886,68.1686
164.2482,68.1622
164.3829,68.1120
164.4980,68.0258
164.5842,67.9107
164.6344,67.7760
164.6408,67.7164
164.6408,67.4186
163.6908,67.4186
163.1908,67.4186
162.2408,67.4186
160.1413,67.4186
160.1413,66.6489
160.1372,66.6284
160.1297,66.5904
160.0784,66.5137
160.0587,66.4619
160.0635,66.4067
160.0919,66.3591
160.1382,66.3286
160.1829,66.3120
160.2980,66.2258
160.3842,66.1107
160.4344,65.9760
160.4408,65.9164
160.4408,65.6186
158.0408,65.6186
158.0408,65.9164
158.0472,65.9760
158.0974,66.1107
158.1836,66.2258
158.2987,66.3120
158.3434,66.3286
158.3897,66.3591
158.4181,66.4067
158.4229,66.4619
158.4032,66.5137
158.3869,66.5380
158.3423,66.5785
158.2838,66.5931
158.0155,66.5931
157.9030,66.6079
157.7630,66.6659
157.7223,66.6971
157.6736,66.7198
157.6200,66.7198
157.5713,66.6971
157.5306,66.6659
157.4711,66.6413
157.4497,66.6298
157.3677,66.5750
157.3092,66.5634
157.3092,66.5634
155.4664,66.5634
155.4664,66.5634
155.4079,66.5750
155.3415,66.6193
155.2972,66.6857
155.2856,66.7442
155.2856,68.3838
154.4995,68.3838
154.4995,65.4695
154.5161,65.4075
154.5615,65.3621
154.6235,65.3455
155.1616,65.3455
155.2236,65.3621
155.2690,65.4075
155.2856,65.4695
155.2856,65.5898
155.2972,65.6483
155.3415,65.7147
155.4079,65.7590
155.4664,65.7706
155.4664,65.7706
157.3092,65.7706
157.3092,65.7706
157.3409,65.7643
157.3677,65.7590
157.4341,65.7147
157.4784,65.6483
157.4852,65.6139
157.4900,65.5898
157.4900,65.1186
158.0408,65.1186
158.9908,65.1186
158.9908,64.3686
159.4908,64.3686
159.4908,65.1186
160.4408,65.1186
160.4408,64.8208
160.4344,64.7612
160.3842,64.6265
160.2980,64.5114
160.1829,64.4252
160.0482,64.3750
159.9886,64.3686
159.4908,64.3686
158.9908,64.3686
158.4930,64.3686
158.4334,64.3750
158.2987,64.4252
158.1836,64.5114
158.0974,64.6265
158.0472,64.7612
158.0408,64.8208
158.0408,65.1186
157.4900,65.1186
157.4900,63.9502
157.4784,63.8917
157.4341,63.8253
157.3677,63.7810
157.3092,63.7694
157.3092,63.7694
155.4664,63.7694
155.4664,63.7694
155.4079,63.7810
155.3415,63.8253
155.2972,63.8917
155.2856,63.9502
155.2856,64.0705
155.2690,64.1325
155.2236,64.1779
155.1616,64.1945
154.6235,64.1945
154.5615,64.1779
154.5161,64.1325
154.4995,64.0705
154.4995,62.1133
154.5089,62.0659
154.5358,62.0257
155.1167,61.4448
155.1569,61.4179
155.2043,61.4085
165.7213,61.4085
165.7833,61.4251
165.8287,61.4705
165.8453,61.5325
165.8453,63.5184
165.8287,63.5804
165.7833,63.6258
165.7213,63.6424
165.4994,63.6424
165.4409,63.6540
165.3745,63.6983
165.3302,63.7647
165.3186,63.8232
165.3186,65.3486
165.3051,65.4049
165.2675,65.4489
165.2140,65.4710
165.1563,65.4665
165.1069,65.4362
164.6648,64.9941
164.6541,64.9819
164.6359,64.9582
164.6359,64.9582
164.6359,64.9581
164.6057,64.9350
164.6057,64.9350
164.5156,64.8659
164.4745,64.8489
164.4067,64.8208
164.3630,64.8027
164.3318,64.7840
164.3074,64.7570
164.2854,64.7240
164.2190,64.6797
164.1605,64.6681
164.1605,64.6681
162.7211,64.6681
162.7211,64.6681
162.6626,64.6797
162.5962,64.7240
162.5519,64.7904
162.5403,64.8489
162.5403,65.8883
162.5519,65.9468
162.6032,66.0235
162.6229,66.0753
162.6181,66.1305
162.5897,66.1781
162.5434,66.2086
162.4987,66.2252
162.3836,66.3114
162.2974,66.4265
162.2472,66.5612
162.2408,66.6208
162.2408,66.9186
164.6408,66.9186
164.6408,66.8972
164.6543,66.8409
164.6919,66.7969
164.7454,66.7748
164.8031,66.7793
164.8525,66.8096
164.9932,66.9503
165.0238,67.0007
165.0276,67.0595
165.0039,67.1134
164.9783,67.1468
164.9203,67.2868
164.9005,67.4370
164.9203,67.5872
164.9630,67.6903
164.9783,67.7272
165.0705,67.8475
165.1908,67.9397
165.1908,67.9397
165.1908,67.9397
165.2421,67.9609
165.2823,67.9878
165.3092,68.0280
165.3186,68.0755
165.3186,68.2568
165.3302,68.3153
165.3745,68.3817
165.4409,68.4260
165.4994,68.4376
165.4994,68.4376
167.3422,68.4376
167.3422,68.4376
167.3715,68.4318
167.4007,68.4260
167.4671,68.3817
167.5114,68.3153
167.5230,68.2568
169.9668,68.2568
169.9784,68.3153
170.0227,68.3817
170.0891,68.4260
170.1476,68.4376
170.1476,68.4376
170.3695,68.4376
170.4315,68.4542
170.4769,68.4996
170.4935,68.5616
170.4935,70.4392
170.4924,70.4553
170.4885,70.4850
170.4924,70.5147
170.4924,70.5147
170.5083,70.6352
170.5137,70.6482
170.5137,70.6482
170.5663,70.7752
170.6354,70.8653
170.6354,70.8653
170.6585,70.8955
170.6823,70.9137
170.6945,70.9244
173.5506,73.7805
173.5613,73.7927
173.5795,73.8165
173.6033,73.8347
173.6033,73.8347
173.6097,73.8396
173.6097,73.8396
173.6998,73.9087
173.7837,73.9435
173.8398,73.9667
173.9523,73.9815
173.9900,73.9865
174.0197,73.9826
174.0358,73.9815
199.2273,73.9815
199.2747,73.9909
199.3149,74.0178
201.1912,75.8941
201.2181,75.9343
201.2275,75.9817
201.2275,77.7517
201.2156,77.8047
201.1822,77.8475
201.0698,77.9398
201.0469,77.9585
200.9140,78.1206
200.8151,78.3054
200.7543,78.5060
200.7389,78.6623
200.7389,79.0717
200.7543,79.2280
200.8151,79.4286
200.8940,79.5761
200.9140,79.6134
201.0469,79.7755
201.2090,79.9084
201.3938,80.0073
201.5944,80.0681
201.8030,80.0886
202.0116,80.0681
202.2122,80.0073
202.3970,79.9084
202.5591,79.7755
202.6920,79.6134
202.7909,79.4286
202.8517,79.2280
202.8671,79.0717
202.8671,78.6623
202.8517,78.5060
202.7909,78.3054
202.6920,78.1206
202.5591,77.9585
202.4238,77.8475
202.3904,77.8047
202.3785,77.7517
202.3785,75.7378
202.3796,75.7217
202.3835,75.6920
202.3796,75.6623
202.3796,75.6623
202.3637,75.5418
202.3329,75.4675
202.3057,75.4018
202.2980,75.3918
202.2366,75.3117
202.2366,75.3117
202.2135,75.2815
202.1897,75.2633
202.1775,75.2526
199.9564,73.0315
199.9457,73.0193
199.9275,72.9956
199.9275,72.9955
199.9275,72.9955
199.8973,72.9724
199.8973,72.9724
199.8137,72.9082
199.8088,72.9039
199.6672,72.8453
199.5467,72.8294
199.5467,72.8294
199.5170,72.8255
199.4873,72.8294
199.4712,72.8305
174.2797,72.8305
174.2323,72.8211
174.1921,72.7942
171.6808,70.2829
171.6539,70.2427
171.6445,70.1953
171.6445,68.5616
171.6611,68.4996
171.7065,68.4542
171.7685,68.4376
171.9904,68.4376
172.0197,68.4318
172.0489,68.4260
172.1153,68.3817
172.1596,68.3153
172.1712,68.2568
172.1712,68.1316
172.1852,68.0743
172.2241,68.0300
172.2790,68.0086
172.3622,67.9977
172.5022,67.9397
172.5092,67.9343
172.5923,67.8706
172.5923,67.8706
172.6086,67.8581
172.6086,67.8581
172.6225,67.8475
172.6407,67.8237
172.6513,67.8115
172.9365,67.5264
172.9767,67.4995
173.0241,67.4901
173.1682,67.4901
173.2267,67.5047
173.2713,67.5452
173.2806,67.5592
173.3470,67.6035
173.4055,67.6151
173.4055,67.6151
174.8449,67.6151
174.8449,67.6151
174.8742,67.6093
174.9034,67.6035
174.9698,67.5592
175.0141,67.4928
175.0225,67.4502
175.0257,67.4343
175.0257,67.1646
177.1252,67.1646
177.1252,67.4624
177.1316,67.5220
177.1818,67.6567
177.2680,67.7718
177.3831,67.8580
177.5178,67.9082
177.5774,67.9146
178.0752,67.9146
178.0752,67.1646
178.5752,67.1646
178.5752,67.9146
179.0730,67.9146
179.1326,67.9082
179.2673,67.8580
179.3824,67.7718
179.4686,67.6567
179.5188,67.5220
179.5252,67.4624
179.5252,67.1646
178.5752,67.1646
178.0752,67.1646
177.1252,67.1646
175.0257,67.1646
175.0257,66.3949
175.0141,66.3364
174.9628,66.2597
174.9431,66.2079
174.9479,66.1527
174.9763,66.1051
175.0226,66.0746
175.0673,66.0580
175.1824,65.9718
175.2686,65.8567
175.3188,65.7220
175.3252,65.6624
175.3252,65.3646
172.9252,65.3646
172.9252,65.6624
172.9316,65.7220
172.9818,65.8567
173.0680,65.9718
173.1831,66.0580
173.2278,66.0746
173.2741,66.1051
173.3025,66.1527
173.3073,66.2079
173.2876,66.2597
173.2713,66.2840
173.2267,66.3245
173.1682,66.3391
172.7802,66.3391
172.7641,66.3380
172.7344,66.3341
172.7047,66.3380
172.7047,66.3380
172.5441,66.3592
172.5021,66.3879
172.4442,66.4119
172.3574,66.4785
172.3574,66.4785
172.3239,66.5041
172.3219,66.5068
172.2766,66.5434
172.2195,66.5552
172.1633,66.5397
172.1205,66.5002
172.1153,66.4923
172.0489,66.4480
171.9904,66.4364
171.9904,66.4364
170.1476,66.4364
170.1476,66.4364
170.0891,66.4480
170.0227,66.4923
169.9784,66.5587
169.9668,66.6172
169.9668,68.2568
167.5230,68.2568
167.5230,68.2568
167.5230,66.6172
167.5155,66.5792
167.5114,66.5587
167.4671,66.4923
167.4007,66.4480
167.3422,66.4364
167.3422,66.4364
166.1584,66.4364
166.1110,66.4270
166.0708,66.4001
165.5260,65.8553
165.4957,65.8059
165.4912,65.7482
165.5133,65.6947
165.5573,65.6571
165.6136,65.6436
167.3422,65.6436
167.3715,65.6378
167.4007,65.6320
167.4671,65.5877
167.5114,65.5213
167.5230,65.4628
167.5230,63.8232
167.5114,63.7647
167.4671,63.6983
167.4007,63.6540
167.3422,63.6424
167.3422,63.6424
167.1203,63.6424
167.0583,63.6258
167.0129,63.5804
166.9963,63.5184
166.9963,61.5325
167.0129,61.4705
167.0583,61.4251
167.1203,61.4085
170.3695,61.4085
170.4315,61.4251
170.4769,61.4705
170.4935,61.5325
170.4935,63.5184
170.4769,63.5804
170.4315,63.6258
170.3695,63.6424
170.1476,63.6424
170.0891,63.6540
170.0227,63.6983
169.9784,63.7647
169.9668,63.8232
169.9668,65.4628
169.9784,65.5213
170.0227,65.5877
170.0891,65.6320
170.1476,65.6436
170.1476,65.6436
171.9904,65.6436
171.9904,65.6436
172.0197,65.6378
172.0489,65.6320
172.1153,65.5877
172.1596,65.5213
172.1712,65.4628
172.1712,64.8646
172.9252,64.8646
173.8752,64.8646
173.8752,64.1146
174.3752,64.1146
174.3752,64.8646
175.3252,64.8646
175.3252,64.5668
175.3188,64.5072
175.2686,64.3725
175.1824,64.2574
175.0673,64.1712
174.9326,64.1210
174.8730,64.1146
174.3752,64.1146
173.8752,64.1146
173.3774,64.1146
173.3178,64.1210
173.1831,64.1712
173.0680,64.2574
172.9818,64.3725
172.9316,64.5072
172.9252,64.5668
172.9252,64.8646
172.1712,64.8646
172.1712,63.8232
172.1596,63.7647
172.1153,63.6983
172.0489,63.6540
171.9904,63.6424
171.9904,63.6424
171.7685,63.6424
171.7065,63.6258
171.6611,63.5804
171.6445,63.5184
171.6445,61.5325
171.6611,61.4705
171.7065,61.4251
171.7685,61.4085
181.1645,61.4085
181.2265,61.4251
181.2719,61.4705
181.2885,61.5325
181.2885,63.3914
181.2719,63.4534
181.2265,63.4988
181.1645,63.5154
180.9426,63.5154
180.8841,63.5270
180.8177,63.5713
180.7734,63.6377
180.7618,63.6962
180.7618,65.0946
180.7483,65.1509
180.7107,65.1949
180.6572,65.2170
180.5995,65.2125
180.5501,65.1822
180.1080,64.7401
180.0973,64.7279
180.0791,64.7042
180.0791,64.7041
180.0791,64.7041
180.0489,64.6810
180.0489,64.6810
179.9588,64.6119
179.9487,64.6077
179.9177,64.5949
179.8188,64.5539
179.6983,64.5380
179.6983,64.5380
179.6686,64.5341
179.6389,64.5380
179.6228,64.5391
179.2822,64.5391
179.2237,64.5245
179.1791,64.4840
179.1698,64.4700
179.1034,64.4257
179.0449,64.4141
179.0449,64.4141
177.6055,64.4141
177.6055,64.4141
177.5470,64.4257
177.4806,64.4700
177.4363,64.5364
177.4247,64.5949
177.4247,65.6343
177.4363,65.6928
177.4876,65.7695
177.5073,65.8213
177.5025,65.8765
177.4741,65.9241
177.4278,65.9546
177.3831,65.9712
177.2680,66.0574
177.1818,66.1725
177.1316,66.3072
177.1252,66.3668
177.1252,66.6646
179.5252,66.6646
179.5252,66.3668
179.5188,66.3072
179.4686,66.1725
179.3824,66.0574
179.2673,65.9712
179.2226,65.9546
179.1763,65.9241
179.1479,65.8765
179.1431,65.8213
179.1628,65.7695
179.1699,65.7590
179.1791,65.7452
179.2237,65.7047
179.2822,65.6901
179.3789,65.6901
179.4263,65.6995
179.4665,65.7264
180.7255,66.9854
180.7524,67.0256
180.7618,67.0730
180.7618,68.1298
180.7734,68.1883
180.8177,68.2547
180.8841,68.2990
180.9426,68.3106
180.9426,68.3106
182.7854,68.3106
182.7854,68.3106
182.8147,68.3048
182.8439,68.2990
182.9103,68.2547
182.9546,68.1883
182.9662,68.1298
185.5878,68.1298
185.5994,68.1883
185.6437,68.2547
185.7101,68.2990
185.7686,68.3106
185.7686,68.3106
185.9905,68.3106
186.0525,68.3272
186.0979,68.3726
186.1145,68.4346
186.1145,69.6772
186.1134,69.6933
186.1095,69.7230
186.1134,69.7527
186.1134,69.7527
186.1293,69.8732
186.1319,69.8795
186.1415,69.9026
186.1423,69.9045
186.1423,69.9045
186.1873,70.0132
186.2564,70.1033
186.2564,70.1033
186.2795,70.1335
186.3033,70.1517
186.3155,70.1624
187.1396,70.9865
187.1503,70.9987
187.1663,71.0195
187.1685,71.0225
187.1923,71.0407
187.1923,71.0407
187.1987,71.0456
187.1987,71.0456
187.2888,71.1147
187.2888,71.1147
187.2888,71.1147
187.3878,71.1557
187.3878,71.1557
187.4288,71.1727
187.5413,71.1875
187.5493,71.1886
187.5493,71.1886
187.5790,71.1925
187.6087,71.1886
187.6248,71.1875
199.9893,71.1875
200.0367,71.1969
200.0769,71.2238
203.7312,74.8781
203.7581,74.9183
203.7675,74.9657
203.7675,77.7517
203.7556,77.8047
203.7222,77.8475
203.6098,77.9398
203.5869,77.9585
203.4540,78.1206
203.3551,78.3054
203.2943,78.5060
203.2789,78.6623
203.2789,79.0717
203.2943,79.2280
203.3551,79.4286
203.4340,79.5761
203.4540,79.6134
203.5869,79.7755
203.7490,79.9084
203.9338,80.0073
204.1344,80.0681
204.3430,80.0886
204.5516,80.0681
204.7522,80.0073
204.9370,79.9084
205.0991,79.7755
205.2320,79.6134
205.3309,79.4286
205.3917,79.2280
205.4071,79.0717
205.4071,78.6623
205.3917,78.5060
205.3309,78.3054
205.2320,78.1206
205.0991,77.9585
204.9638,77.8475
204.9304,77.8047
204.9185,77.7517
204.9185,74.7218
204.9196,74.7057
204.9235,74.6760
204.9196,74.6463
204.9196,74.6463
204.9165,74.6234
204.9037,74.5258
204.8833,74.4765
204.8457,74.3858
204.7766,74.2957
204.7766,74.2957
204.7535,74.2655
204.7534,74.2655
204.7534,74.2655
204.7297,74.2473
204.7175,74.2366
200.7184,70.2375
200.7077,70.2253
200.6895,70.2016
200.6895,70.2015
200.6895,70.2015
200.6593,70.1784
200.6593,70.1784
200.5692,70.1093
200.4690,70.0678
200.4690,70.0678
200.4292,70.0513
200.3087,70.0354
200.3087,70.0354
200.2790,70.0315
200.2493,70.0354
200.2332,70.0365
187.8687,70.0365
187.8213,70.0271
187.7811,70.0002
187.3018,69.5209
187.2749,69.4807
187.2655,69.4333
187.2655,68.4346
187.2821,68.3726
187.3275,68.3272
187.3895,68.3106
187.6114,68.3106
187.6407,68.3048
187.6699,68.2990
187.7363,68.2547
187.7806,68.1883
187.7922,68.1298
187.7922,68.0095
187.8088,67.9475
187.8542,67.9021
187.9162,67.8855
188.0412,67.8855
188.0573,67.8866
188.0870,67.8905
188.0870,67.8905
188.0870,67.8905
188.1167,67.8866
188.1167,67.8866
188.1247,67.8855
188.1247,67.8855
188.2372,67.8707
188.3772,67.8127
188.3772,67.8127
188.3772,67.8127
188.4153,67.7969
188.4384,67.7658
188.4836,67.7311
188.4836,67.7311
188.4975,67.7205
188.5157,67.6967
188.5263,67.6845
188.7861,67.4248
188.8263,67.3979
188.8737,67.3885
189.3734,67.3885
189.4319,67.4031
189.4765,67.4436
189.4858,67.4576
189.5522,67.5019
189.6107,67.5135
189.6107,67.5135
191.0501,67.5135
191.0501,67.5135
191.0942,67.5047
191.1086,67.5019
191.1750,67.4576
191.2193,67.3912
191.2309,67.3327
191.2309,67.0630
193.3304,67.0630
193.3304,67.3608
193.3368,67.4204
193.3870,67.5551
193.4732,67.6702
193.5883,67.7564
193.7230,67.8066
193.7826,67.8130
194.2804,67.8130
194.2804,67.0630
194.7804,67.0630
194.7804,67.8130
195.2782,67.8130
195.3378,67.8066
195.4725,67.7564
195.5876,67.6702
195.6738,67.5551
195.7240,67.4204
195.7304,67.3608
195.7304,67.0630
194.7804,67.0630
194.2804,67.0630
193.3304,67.0630
191.2309,67.0630
191.2309,66.2933
191.2289,66.2833
191.2193,66.2348
191.1680,66.1581
191.1483,66.1063
191.1531,66.0511
191.1815,66.0035
191.2278,65.9730
191.2725,65.9564
191.3876,65.8702
191.4738,65.7551
191.5240,65.6204
191.5304,65.5608
191.5304,65.2630
189.1304,65.2630
189.1304,65.5608
189.1368,65.6204
189.1870,65.7551
189.2732,65.8702
189.3883,65.9564
189.4330,65.9730
189.4793,66.0035
189.5077,66.0511
189.5125,66.1063
189.4928,66.1581
189.4765,66.1824
189.4319,66.2229
189.3734,66.2375
188.6298,66.2375
188.6137,66.2364
188.5840,66.2325
188.5543,66.2364
188.5543,66.2364
188.3937,66.2576
188.3517,66.2863
188.2938,66.3103
188.2070,66.3769
188.2070,66.3769
188.1735,66.4025
188.1553,66.4263
188.1446,66.4385
188.0039,66.5792
187.9545,66.6095
187.8968,66.6140
187.8433,66.5919
187.8057,66.5479
187.7947,66.5021
187.7946,66.5021
187.7938,66.4984
187.7922,66.4916
187.7922,66.4902
187.7806,66.4317
187.7363,66.3653
187.6699,66.3210
187.6114,66.3094
187.6114,66.3094
185.7686,66.3094
185.7686,66.3094
185.7101,66.3210
185.6437,66.3653
185.5994,66.4317
185.5878,66.4902
185.5878,68.1298
182.9662,68.1298
182.9662,68.1298
182.9662,66.4902
182.9585,66.4517
182.9546,66.4317
182.9103,66.3653
182.8439,66.3210
182.7854,66.3094
182.7854,66.3094
181.7286,66.3094
181.6812,66.3000
181.6410,66.2731
181.0962,65.7283
181.0659,65.6789
181.0614,65.6212
181.0835,65.5677
181.1275,65.5301
181.1838,65.5166
182.7854,65.5166
182.8147,65.5108
182.8439,65.5050
182.9103,65.4607
182.9546,65.3943
182.9662,65.3358
182.9662,63.6962
182.9546,63.6377
182.9466,63.6258
182.9103,63.5713
182.8439,63.5270
182.7854,63.5154
182.7854,63.5154
182.5635,63.5154
182.5015,63.4988
182.4561,63.4534
182.4395,63.3914
182.4395,61.5325
182.4561,61.4705
182.5015,61.4251
182.5635,61.4085
185.9905,61.4085
186.0525,61.4251
186.0979,61.4705
186.1145,61.5325
186.1145,63.3914
186.0979,63.4534
186.0525,63.4988
185.9905,63.5154
185.7686,63.5154
185.7101,63.5270
185.6437,63.5713
185.5994,63.6377
185.5878,63.6962
185.5878,65.3358
185.5994,65.3943
185.6437,65.4607
185.7101,65.5050
185.7686,65.5166
185.7686,65.5166
187.6114,65.5166
187.6114,65.5166
187.6407,65.5108
187.6699,65.5050
187.7363,65.4607
187.7806,65.3943
187.7922,65.3358
187.7922,64.7630
189.1304,64.7630
190.0804,64.7630
190.0804,64.0130
190.5804,64.0130
190.5804,64.7630
191.5304,64.7630
191.5304,64.4652
191.5240,64.4056
191.4738,64.2709
191.3876,64.1558
191.2725,64.0696
191.1378,64.0194
191.0782,64.0130
190.5804,64.0130
190.0804,64.0130
189.5826,64.0130
189.5230,64.0194
189.3883,64.0696
189.2732,64.1558
189.1870,64.2709
189.1368,64.4056
189.1304,64.4652
189.1304,64.7630
187.7922,64.7630
187.7922,63.6962
187.7806,63.6377
187.7726,63.6258
187.7363,63.5713
187.6699,63.5270
187.6114,63.5154
187.6114,63.5154
187.3895,63.5154
187.3275,63.4988
187.2821,63.4534
187.2655,63.3914
187.2655,61.5325
187.2821,61.4705
187.3275,61.4251
187.3895,61.4085
197.4205,61.4085
197.4825,61.4251
197.5279,61.4705
197.5445,61.5325
197.5445,63.3914
197.5279,63.4534
197.4825,63.4988
197.4205,63.5154
197.1986,63.5154
197.1401,63.5270
197.0737,63.5713
197.0294,63.6377
197.0178,63.6962
197.0178,65.0946
197.0043,65.1509
196.9667,65.1949
196.9132,65.2170
196.8555,65.2125
196.8061,65.1822
196.2624,64.6385
196.2517,64.6263
196.2335,64.6025
196.2071,64.5823
196.2033,64.5794
196.2033,64.5794
196.1132,64.5103
196.0959,64.5031
196.0721,64.4933
195.9732,64.4523
195.8527,64.4364
195.8527,64.4364
195.8230,64.4325
195.7933,64.4364
195.7772,64.4375
195.4874,64.4375
195.4289,64.4229
195.3843,64.3824
195.3750,64.3684
195.3086,64.3241
195.2501,64.3125
195.2501,64.3125
193.8107,64.3125
193.8107,64.3125
193.7522,64.3241
193.6858,64.3684
193.6415,64.4348
193.6299,64.4933
193.6299,65.5327
193.6415,65.5912
193.6928,65.6679
193.7125,65.7197
193.7077,65.7749
193.6793,65.8225
193.6330,65.8530
193.5883,65.8696
193.4732,65.9558
193.3870,66.0709
193.3368,66.2056
193.3304,66.2652
193.3304,66.5630
195.7304,66.5630
195.7304,66.2652
195.7240,66.2056
195.6738,66.0709
195.5876,65.9558
195.4725,65.8696
195.4278,65.8530
195.3815,65.8225
195.3531,65.7749
195.3483,65.7197
195.3680,65.6679
195.3843,65.6436
195.4289,65.6031
195.4874,65.5885
195.5333,65.5885
195.5807,65.5979
195.6209,65.6248
196.9815,66.9854
197.0084,67.0256
197.0178,67.0730
197.0178,68.1298
197.0294,68.1883
197.0737,68.2547
197.1401,68.2990
197.1986,68.3106
197.1986,68.3106
199.0414,68.3106
199.0414,68.3106
199.0707,68.3048
199.0999,68.2990
199.1663,68.2547
199.2106,68.1883
199.2222,68.1298
201.9708,68.1298
201.9824,68.1883
202.0267,68.2547
202.0931,68.2990
202.1516,68.3106
202.1516,68.3106
202.3735,68.3106
202.4355,68.3272
202.4809,68.3726
202.4975,68.4346
202.4975,69.6772
202.4964,69.6933
202.4925,69.7230
202.4964,69.7527
202.4964,69.7527
202.5123,69.8732
202.5149,69.8795
202.5245,69.9026
202.5253,69.9045
202.5253,69.9045
202.5703,70.0132
202.6394,70.1033
202.6394,70.1033
202.6625,70.1335
202.6863,70.1517
202.6985,70.1624
206.2712,73.7351
206.2981,73.7753
206.3075,73.8227
206.3075,77.7517
206.2956,77.8047
206.2622,77.8475
206.1498,77.9398
206.1269,77.9585
205.9940,78.1206
205.8951,78.3054
205.8343,78.5060
205.8189,78.6623
205.8189,79.0717
205.8343,79.2280
205.8951,79.4286
205.9740,79.5761
205.9940,79.6134
206.1269,79.7755
206.2890,79.9084
206.4738,80.0073
206.6744,80.0681
206.8830,80.0886
207.0916,80.0681
207.2922,80.0073
207.4770,79.9084
207.6391,79.7755
207.7720,79.6134
207.8709,79.4286
207.9317,79.2280
207.9471,79.0717
208.3589,79.0717
208.3743,79.2280
208.4351,79.4286
208.5140,79.5761
208.5340,79.6134
208.6669,79.7755
208.8290,79.9084
209.0138,80.0073
209.2144,80.0681
209.4230,80.0886
209.6316,80.0681
209.8322,80.0073
210.0170,79.9084
210.1791,79.7755
210.3120,79.6134
210.4109,79.4286
210.4717,79.2280
210.4871,79.0717
210.8989,79.0717
210.9143,79.2280
210.9751,79.4286
211.0540,79.5761
211.0740,79.6134
211.2069,79.7755
211.3690,79.9084
211.5538,80.0073
211.7544,80.0681
211.9630,80.0886
212.1716,80.0681
212.3722,80.0073
212.5570,79.9084
212.7191,79.7755
212.8520,79.6134
212.9509,79.4286
213.0117,79.2280
213.0271,79.0717
213.0271,78.6623
213.0117,78.5060
212.9509,78.3054
212.8520,78.1206
212.7191,77.9585
212.5838,77.8475
212.5504,77.8047
212.5385,77.7517
212.5385,76.6167
212.5479,76.5693
212.5748,76.5291
212.7007,76.4032
245.8939,76.4032
245.9130,76.6574
245.9697,76.9058
246.0628,77.1431
246.1609,77.3130
246.1902,77.3638
246.3491,77.5631
246.5360,77.7364
246.7466,77.8800
246.9762,77.9906
247.2197,78.0657
247.4718,78.1037
247.7266,78.1037
247.9787,78.0657
248.2222,77.9906
248.4518,77.8800
248.6624,77.7364
248.8492,77.5631
249.0082,77.3638
249.1356,77.1431
249.2287,76.9058
249.2854,76.6574
249.3045,76.4032
249.2854,76.1490
249.2287,75.9006
249.1356,75.6633
249.1304,75.6543
249.0287,75.4781
249.0082,75.4426
248.8492,75.2433
248.6624,75.0700
248.4518,74.9264
248.2222,74.8158
247.9787,74.7407
247.7266,74.7027
247.4718,74.7027
247.2197,74.7407
246.9762,74.8158
246.7466,74.9264
246.6889,74.9657
246.5360,75.0700
246.3491,75.2433
246.3491,75.2433
246.1991,75.4315
246.1902,75.4426
246.0628,75.6633
245.9697,75.9006
245.9130,76.1490
245.8939,76.4032
212.7007,76.4032
213.4351,75.6688
213.4753,75.6419
213.5227,75.6325
234.1168,75.6325
234.1329,75.6336
234.1626,75.6375
234.1923,75.6336
234.1923,75.6336
234.2003,75.6325
234.2003,75.6325
234.3128,75.6177
234.4528,75.5597
234.4762,75.5418
234.5429,75.4906
234.5429,75.4906
234.5592,75.4781
234.5592,75.4781
234.5731,75.4675
234.5913,75.4437
234.6019,75.4315
237.3565,72.6769
237.3687,72.6663
237.3925,72.6481
237.4055,72.6310
237.4055,72.6310
237.4847,72.5278
237.4919,72.5105
237.5427,72.3878
237.5625,72.2376
237.5586,72.2079
237.5575,72.1918
237.5575,68.4346
237.5741,68.3726
237.6195,68.3272
237.6815,68.3106
237.9034,68.3106
237.9327,68.3048
237.9619,68.2990
238.0283,68.2547
238.0726,68.1883
238.0842,68.1298
238.0842,68.0095
238.1008,67.9475
238.1462,67.9021
238.2082,67.8855
238.4602,67.8855
238.4763,67.8866
238.5060,67.8905
238.5060,67.8905
238.5060,67.8905
238.5357,67.8866
238.5357,67.8866
238.5437,67.8855
238.5437,67.8855
238.6562,67.8707
238.7962,67.8127
238.7962,67.8127
238.7962,67.8127
238.8343,67.7969
238.8574,67.7658
238.9026,67.7311
238.9026,67.7311
238.9165,67.7205
238.9347,67.6967
238.9453,67.6845
239.2051,67.4248
239.2453,67.3979
239.2927,67.3885
240.0210,67.3885
240.0795,67.4031
240.1241,67.4436
240.1334,67.4576
240.1998,67.5019
240.2583,67.5135
240.2583,67.5135
241.6977,67.5135
241.6977,67.5135
241.7418,67.5047
241.7562,67.5019
241.8226,67.4576
241.8669,67.3912
241.8785,67.3327
241.8785,67.0630
243.9780,67.0630
243.9780,67.3608
243.9844,67.4204
244.0346,67.5551
244.1208,67.6702
244.2359,67.7564
244.3706,67.8066
244.4302,67.8130
244.9280,67.8130
244.9280,67.0630
245.4280,67.0630
245.4280,67.8130
245.9258,67.8130
245.9854,67.8066
246.1201,67.7564
246.2352,67.6702
246.3214,67.5551
246.3716,67.4204
246.3780,67.3608
246.3780,67.0630
245.4280,67.0630
244.9280,67.0630
243.9780,67.0630
241.8785,67.0630
241.8785,66.2933
241.8765,66.2833
241.8669,66.2348
241.8156,66.1581
241.7959,66.1063
241.8007,66.0511
241.8291,66.0035
241.8754,65.9730
241.9201,65.9564
242.0352,65.8702
242.1214,65.7551
242.1716,65.6204
242.1780,65.5608
242.1780,65.2630
239.7780,65.2630
239.7780,65.5608
239.7844,65.6204
239.8346,65.7551
239.9208,65.8702
240.0359,65.9564
240.0806,65.9730
240.1269,66.0035
240.1553,66.0511
240.1601,66.1063
240.1404,66.1581
240.1241,66.1824
240.0795,66.2229
240.0210,66.2375
239.0488,66.2375
239.0327,66.2364
239.0030,66.2325
238.9733,66.2364
238.9733,66.2364
238.8127,66.2576
238.7707,66.2863
238.7128,66.3103
238.6260,66.3769
238.6260,66.3769
238.5925,66.4025
238.5743,66.4263
238.5636,66.4385
238.3039,66.6982
238.2637,66.7251
238.2163,66.7345
238.2082,66.7345
238.1462,66.7179
238.1008,66.6725
238.0842,66.6105
238.0842,66.4902
238.0726,66.4317
238.0283,66.3653
237.9619,66.3210
237.9034,66.3094
237.9034,66.3094
236.0606,66.3094
236.0606,66.3094
236.0021,66.3210
235.9357,66.3653
235.8914,66.4317
235.8798,66.4902
235.8798,68.1298
235.8914,68.1883
235.9357,68.2547
236.0021,68.2990
236.0606,68.3106
236.0606,68.3106
236.2825,68.3106
236.3445,68.3272
236.3899,68.3726
236.4065,68.4346
236.4065,71.9479
236.3971,71.9953
236.3702,72.0355
233.9605,74.4452
233.9203,74.4721
233.8729,74.4815
213.2788,74.4815
213.2627,74.4804
213.2330,74.4765
213.2033,74.4804
213.2033,74.4804
213.0690,74.4981
213.0560,74.5074
212.9428,74.5543
212.8560,74.6209
212.8560,74.6209
212.8225,74.6465
212.8043,74.6703
212.7936,74.6825
211.5885,75.8876
211.5763,75.8983
211.5525,75.9165
211.5269,75.9500
211.5269,75.9500
211.4690,76.0254
211.4690,76.0254
211.4603,76.0368
211.4023,76.1768
211.3864,76.2973
211.3864,76.2973
211.3825,76.3270
211.3864,76.3567
211.3875,76.3728
211.3875,77.7517
211.3756,77.8047
211.3422,77.8475
211.2298,77.9398
211.2069,77.9585
211.0740,78.1206
210.9751,78.3054
210.9143,78.5060
210.8989,78.6623
210.8989,79.0717
210.4871,79.0717
210.4871,78.6623
210.4717,78.5060
210.4109,78.3054
210.3120,78.1206
210.1791,77.9585
210.0438,77.8475
210.0104,77.8047
209.9985,77.7517
209.9985,74.0767
210.0079,74.0293
210.0348,73.9891
211.2761,72.7478
211.3163,72.7209
211.3637,72.7115
218.3942,72.7115
218.4103,72.7126
218.4400,72.7165
218.4697,72.7126
218.4697,72.7126
218.4777,72.7115
218.4777,72.7115
218.5902,72.6967
218.7302,72.6387
218.7574,72.6179
218.8203,72.5696
218.8203,72.5696
218.8366,72.5571
218.8366,72.5571
218.8505,72.5465
218.8687,72.5227
218.8793,72.5105
220.5925,70.7973
220.6047,70.7867
220.6285,70.7685
220.6317,70.7642
220.6391,70.7546
220.6391,70.7546
220.6516,70.7383
220.6516,70.7383
220.7207,70.6482
220.7787,70.5082
220.7985,70.3580
220.7946,70.3283
220.7935,70.3122
220.7935,68.4346
220.8101,68.3726
220.8555,68.3272
220.9175,68.3106
221.1394,68.3106
221.1687,68.3048
221.1979,68.2990
221.2643,68.2547
221.3086,68.1883
221.3202,68.1298
221.3202,68.0095
221.3368,67.9475
221.3822,67.9021
221.4442,67.8855
221.5692,67.8855
221.5853,67.8866
221.6150,67.8905
221.6150,67.8905
221.6150,67.8905
221.6447,67.8866
221.6447,67.8866
221.6527,67.8855
221.6527,67.8855
221.7652,67.8707
221.9052,67.8127
221.9052,67.8127
221.9052,67.8127
221.9433,67.7969
221.9664,67.7658
222.0116,67.7311
222.0116,67.7311
222.0255,67.7205
222.0437,67.6967
222.0543,67.6845
222.2887,67.4502
222.3289,67.4233
222.3763,67.4139
223.0030,67.4139
223.0615,67.4285
223.1061,67.4690
223.1154,67.4830
223.1818,67.5273
223.2403,67.5389
223.2403,67.5389
224.6797,67.5389
224.6797,67.5389
224.7090,67.5331
224.7382,67.5273
224.8046,67.4830
224.8489,67.4166
224.8605,67.3581
224.8605,67.0884
226.9600,67.0884
226.9600,67.3862
226.9664,67.4458
227.0166,67.5805
227.1028,67.6956
227.2179,67.7818
227.3526,67.8320
227.4122,67.8384
227.9100,67.8384
227.9100,67.0884
228.4100,67.0884
228.4100,67.8384
228.9078,67.8384
228.9674,67.8320
229.1021,67.7818
229.2172,67.6956
229.3034,67.5805
229.3536,67.4458
229.3600,67.3862
229.3600,67.0884
228.4100,67.0884
227.9100,67.0884
226.9600,67.0884
224.8605,67.0884
224.8605,66.3187
224.8554,66.2933
224.8489,66.2602
224.7976,66.1835
224.7779,66.1317
224.7827,66.0765
224.8111,66.0289
224.8574,65.9984
224.9021,65.9818
225.0172,65.8956
225.1034,65.7805
225.1536,65.6458
225.1600,65.5862
225.1600,65.2884
222.7600,65.2884
222.7600,65.5862
222.7664,65.6458
222.8166,65.7805
222.9028,65.8956
223.0179,65.9818
223.0626,65.9984
223.1089,66.0289
223.1373,66.0765
223.1421,66.1317
223.1224,66.1835
223.1061,66.2078
223.0615,66.2483
223.0030,66.2629
222.1324,66.2629
222.1163,66.2618
222.0866,66.2579
222.0569,66.2618
222.0569,66.2618
221.8963,66.2830
221.8543,66.3117
221.7964,66.3357
221.7096,66.4023
221.7096,66.4023
221.6761,66.4279
221.6579,66.4517
221.6472,66.4639
221.5319,66.5792
221.4825,66.6095
221.4248,66.6140
221.3713,66.5919
221.3337,66.5479
221.3227,66.5021
221.3226,66.5021
221.3218,66.4984
221.3202,66.4916
221.3202,66.4902
221.3086,66.4317
221.2643,66.3653
221.1979,66.3210
221.1394,66.3094
221.1394,66.3094
219.2966,66.3094
219.2966,66.3094
219.2381,66.3210
219.1717,66.3653
219.1274,66.4317
219.1158,66.4902
219.1158,68.1298
219.1274,68.1883
219.1717,68.2547
219.2381,68.2990
219.2966,68.3106
219.2966,68.3106
219.5185,68.3106
219.5805,68.3272
219.6259,68.3726
219.6425,68.4346
219.6425,70.0683
219.6331,70.1157
219.6062,70.1559
218.2379,71.5242
218.1977,71.5511
218.1503,71.5605
211.1198,71.5605
211.1037,71.5594
211.0740,71.5555
211.0740,71.5555
211.0551,71.5580
211.0363,71.5605
210.9238,71.5753
210.8658,71.5993
210.7838,71.6333
210.6970,71.6999
210.6970,71.6999
210.6635,71.7255
210.6453,71.7493
210.6346,71.7615
209.0485,73.3476
209.0363,73.3583
209.0125,73.3765
208.9869,73.4100
208.9869,73.4100
208.9214,73.4953
208.9214,73.4953
208.9206,73.4963
208.9203,73.4968
208.8623,73.6368
208.8464,73.7573
208.8464,73.7573
208.8425,73.7870
208.8464,73.8167
208.8475,73.8328
208.8475,77.7517
208.8356,77.8047
208.8022,77.8475
208.6898,77.9398
208.6669,77.9585
208.5340,78.1206
208.4351,78.3054
208.3743,78.5060
208.3589,78.6623
208.3589,79.0717
207.9471,79.0717
207.9471,78.6623
207.9317,78.5060
207.8709,78.3054
207.7720,78.1206
207.6391,77.9585
207.5038,77.8475
207.4704,77.8047
207.4585,77.7517
207.4585,73.5788
207.4596,73.5627
207.4635,73.5330
207.4437,73.3828
207.4437,73.3828
207.4411,73.3765
207.4197,73.3248
207.3857,73.2428
207.3166,73.1527
207.3166,73.1527
207.2935,73.1225
207.2934,73.1225
207.2934,73.1225
207.2697,73.1043
207.2575,73.0936
203.6848,69.5209
203.6579,69.4807
203.6485,69.4333
203.6485,68.4346
203.6651,68.3726
203.7105,68.3272
203.7725,68.3106
203.9944,68.3106
204.0237,68.3048
204.0529,68.2990
204.1193,68.2547
204.1636,68.1883
204.1752,68.1298
204.1752,68.0095
204.1918,67.9475
204.2372,67.9021
204.2992,67.8855
204.9322,67.8855
204.9483,67.8866
204.9780,67.8905
204.9780,67.8905
204.9780,67.8905
205.0077,67.8866
205.0077,67.8866
205.0157,67.8855
205.0157,67.8855
205.1282,67.8707
205.2682,67.8127
205.2682,67.8127
205.2682,67.8127
205.3063,67.7969
205.3294,67.7658
205.3746,67.7311
205.3746,67.7311
205.3885,67.7205
205.4067,67.6967
205.4173,67.6845
205.6263,67.4756
205.6665,67.4487
205.7139,67.4393
206.1882,67.4393
206.2467,67.4539
206.2913,67.4944
206.3006,67.5084
206.3670,67.5527
206.4255,67.5643
206.4255,67.5643
207.8649,67.5643
207.8649,67.5643
207.8942,67.5585
207.9234,67.5527
207.9898,67.5084
208.0341,67.4420
208.0418,67.4031
208.0457,67.3835
208.0457,67.1138
210.1452,67.1138
210.1452,67.4116
210.1516,67.4712
210.2018,67.6059
210.2880,67.7210
210.4031,67.8072
210.5378,67.8574
210.5974,67.8638
211.0952,67.8638
211.0952,67.1138
211.5952,67.1138
211.5952,67.8638
212.0930,67.8638
212.1526,67.8574
212.2873,67.8072
212.4024,67.7210
212.4886,67.6059
212.5388,67.4712
212.5452,67.4116
212.5452,67.1138
211.5952,67.1138
211.0952,67.1138
210.1452,67.1138
208.0457,67.1138
208.0457,66.3441
208.0341,66.2856
207.9828,66.2089
207.9631,66.1571
207.9679,66.1019
207.9963,66.0543
208.0426,66.0238
208.0873,66.0072
208.2024,65.9210
208.2886,65.8059
208.3388,65.6712
208.3452,65.6116
208.3452,65.3138
205.9452,65.3138
205.9452,65.6116
205.9516,65.6712
206.0018,65.8059
206.0880,65.9210
206.2031,66.0072
206.2478,66.0238
206.2941,66.0543
206.3225,66.1019
206.3273,66.1571
206.3076,66.2089
206.2913,66.2332
206.2467,66.2737
206.1882,66.2883
205.4700,66.2883
205.4539,66.2872
205.4242,66.2833
205.3945,66.2872
205.3945,66.2872
205.2339,66.3084
205.1919,66.3371
205.1340,66.3611
205.0472,66.4277
205.0472,66.4277
205.0137,66.4533
204.9955,66.4771
204.9848,66.4893
204.7759,66.6982
204.7357,66.7251
204.6883,66.7345
204.2992,66.7345
204.2372,66.7179
204.1918,66.6725
204.1752,66.6105
204.1752,66.4902
204.1636,66.4317
204.1193,66.3653
204.0529,66.3210
203.9944,66.3094
203.9944,66.3094
202.1516,66.3094
202.1516,66.3094
202.0931,66.3210
202.0267,66.3653
201.9824,66.4317
201.9708,66.4902
201.9708,68.1298
199.2222,68.1298
199.2222,68.1298
199.2222,66.4902
199.2145,66.4517
199.2106,66.4317
199.1663,66.3653
199.0999,66.3210
199.0414,66.3094
199.0414,66.3094
197.9846,66.3094
197.9372,66.3000
197.8970,66.2731
197.3522,65.7283
197.3219,65.6789
197.3174,65.6212
197.3395,65.5677
197.3835,65.5301
197.4398,65.5166
199.0414,65.5166
199.0707,65.5108
199.0999,65.5050
199.1663,65.4607
199.2106,65.3943
199.2222,65.3358
199.2222,63.6962
199.2106,63.6377
199.2026,63.6258
199.1663,63.5713
199.0999,63.5270
199.0414,63.5154
199.0414,63.5154
198.8195,63.5154
198.7575,63.4988
198.7121,63.4534
198.6955,63.3914
198.6955,61.5325
198.7121,61.4705
198.7575,61.4251
198.8195,61.4085
202.3735,61.4085
202.4355,61.4251
202.4809,61.4705
202.4975,61.5325
202.4975,63.3914
202.4809,63.4534
202.4355,63.4988
202.3735,63.5154
202.1516,63.5154
202.0931,63.5270
202.0267,63.5713
201.9824,63.6377
201.9708,63.6962
201.9708,65.3358
201.9824,65.3943
202.0267,65.4607
202.0931,65.5050
202.1516,65.5166
202.1516,65.5166
203.9944,65.5166
203.9944,65.5166
204.0237,65.5108
204.0529,65.5050
204.1193,65.4607
204.1636,65.3943
204.1752,65.3358
204.1752,64.8138
205.9452,64.8138
206.8952,64.8138
206.8952,64.0638
207.3952,64.0638
207.3952,64.8138
208.3452,64.8138
208.3452,64.5160
208.3388,64.4564
208.2886,64.3217
208.2024,64.2066
208.0873,64.1204
207.9526,64.0702
207.8930,64.0638
207.3952,64.0638
206.8952,64.0638
206.3974,64.0638
206.3378,64.0702
206.2031,64.1204
206.0880,64.2066
206.0018,64.3217
205.9516,64.4564
205.9452,64.5160
205.9452,64.8138
204.1752,64.8138
204.1752,63.6962
204.1636,63.6377
204.1556,63.6258
204.1193,63.5713
204.0529,63.5270
203.9944,63.5154
203.9944,63.5154
203.7725,63.5154
203.7105,63.4988
203.6651,63.4534
203.6485,63.3914
203.6485,61.5325
203.6651,61.4705
203.7105,61.4251
203.7725,61.4085
213.9305,61.4085
213.9925,61.4251
214.0379,61.4705
214.0545,61.5325
214.0545,63.3914
214.0379,63.4534
213.9925,63.4988
213.9305,63.5154
213.7086,63.5154
213.6501,63.5270
213.5837,63.5713
213.5394,63.6377
213.5278,63.6962
213.5278,65.0946
213.5143,65.1509
213.4767,65.1949
213.4232,65.2170
213.3655,65.2125
213.3161,65.1822
212.8232,64.6893
212.8125,64.6771
212.7943,64.6534
212.7943,64.6534
212.7943,64.6533
212.7641,64.6302
212.7641,64.6302
212.6740,64.5611
212.6567,64.5539
212.6329,64.5441
212.5340,64.5031
212.4135,64.4872
212.4135,64.4872
212.3838,64.4833
212.3541,64.4872
212.3380,64.4883
212.3022,64.4883
212.2437,64.4737
212.1991,64.4332
212.1898,64.4192
212.1234,64.3749
212.0649,64.3633
212.0649,64.3633
210.6255,64.3633
210.6255,64.3633
210.5670,64.3749
210.5006,64.4192
210.4563,64.4856
210.4447,64.5441
210.4447,65.5835
210.4563,65.6420
210.5076,65.7187
210.5273,65.7705
210.5225,65.8257
210.4941,65.8733
210.4478,65.9038
210.4031,65.9204
210.2880,66.0066
210.2018,66.1217
210.1516,66.2564
210.1452,66.3160
210.1452,66.6138
212.5452,66.6138
212.5452,66.3384
212.5587,66.2821
212.5963,66.2381
212.6498,66.2160
212.7075,66.2205
212.7569,66.2508
213.4915,66.9854
213.5184,67.0256
213.5278,67.0730
213.5278,68.1298
213.5394,68.1883
213.5837,68.2547
213.6501,68.2990
213.7086,68.3106
213.7086,68.3106
215.5514,68.3106
215.5514,68.3106
215.5807,68.3048
215.6099,68.2990
215.6763,68.2547
215.7206,68.1883
215.7322,68.1298
215.7322,66.4902
215.7245,66.4517
215.7206,66.4317
215.6763,66.3653
215.6099,66.3210
215.5514,66.3094
215.5514,66.3094
214.4946,66.3094
214.4472,66.3000
214.4070,66.2731
213.8622,65.7283
213.8319,65.6789
213.8274,65.6212
213.8495,65.5677
213.8935,65.5301
213.9498,65.5166
215.5514,65.5166
215.5807,65.5108
215.6099,65.5050
215.6763,65.4607
215.7206,65.3943
215.7322,65.3358
215.7322,63.6962
215.7206,63.6377
215.7126,63.6258
215.6763,63.5713
215.6099,63.5270
215.5514,63.5154
215.5514,63.5154
215.3295,63.5154
215.2675,63.4988
215.2221,63.4534
215.2055,63.3914
215.2055,61.5325
215.2221,61.4705
215.2675,61.4251
215.3295,61.4085
219.5185,61.4085
219.5805,61.4251
219.6259,61.4705
219.6425,61.5325
219.6425,63.3914
219.6259,63.4534
219.5805,63.4988
219.5185,63.5154
219.2966,63.5154
219.2381,63.5270
219.1717,63.5713
219.1274,63.6377
219.1158,63.6962
219.1158,65.3358
219.1274,65.3943
219.1717,65.4607
219.2381,65.5050
219.2966,65.5166
219.2966,65.5166
221.1394,65.5166
221.1394,65.5166
221.1687,65.5108
221.1979,65.5050
221.2643,65.4607
221.3086,65.3943
221.3202,65.3358
221.3202,64.7884
222.7600,64.7884
223.7100,64.7884
223.7100,64.0384
224.2100,64.0384
224.2100,64.7884
225.1600,64.7884
225.1600,64.4906
225.1536,64.4310
225.1034,64.2963
225.0172,64.1812
224.9021,64.0950
224.7674,64.0448
224.7078,64.0384
224.2100,64.0384
223.7100,64.0384
223.2122,64.0384
223.1526,64.0448
223.0179,64.0950
222.9028,64.1812
222.8166,64.2963
222.7664,64.4310
222.7600,64.4906
222.7600,64.7884
221.3202,64.7884
221.3202,63.6962
221.3086,63.6377
221.3006,63.6258
221.2643,63.5713
221.1979,63.5270
221.1394,63.5154
221.1394,63.5154
220.9175,63.5154
220.8555,63.4988
220.8101,63.4534
220.7935,63.3914
220.7935,61.5325
220.8101,61.4705
220.8555,61.4251
220.9175,61.4085
230.9485,61.4085
231.0105,61.4251
231.0559,61.4705
231.0725,61.5325
231.0725,63.3914
231.0559,63.4534
231.0105,63.4988
230.9485,63.5154
230.7266,63.5154
230.6681,63.5270
230.6017,63.5713
230.5574,63.6377
230.5458,63.6962
230.5458,65.0946
230.5323,65.1509
230.4947,65.1949
230.4412,65.2170
230.3835,65.2125
230.3341,65.1822
229.8158,64.6639
229.8051,64.6517
229.7869,64.6279
229.7605,64.6077
229.7567,64.6048
229.7567,64.6048
229.6666,64.5357
229.6053,64.5103
229.5979,64.5072
229.5266,64.4777
229.4061,64.4618
229.4061,64.4618
229.3764,64.4579
229.3467,64.4618
229.3306,64.4629
229.1170,64.4629
229.0585,64.4483
229.0139,64.4078
229.0046,64.3938
228.9382,64.3495
228.8797,64.3379
228.8797,64.3379
227.4403,64.3379
227.4403,64.3379
227.3818,64.3495
227.3154,64.3938
227.2711,64.4602
227.2595,64.5187
227.2595,65.5581
227.2711,65.6166
227.3224,65.6933
227.3421,65.7451
227.3373,65.8003
227.3089,65.8479
227.2626,65.8784
227.2179,65.8950
227.1028,65.9812
227.0166,66.0963
226.9664,66.2310
226.9600,66.2906
226.9600,66.5884
229.3600,66.5884
229.3600,66.2906
229.3536,66.2310
229.3139,66.1247
229.3083,66.0585
229.3376,65.9988
229.3935,65.9629
229.4599,65.9610
229.5178,65.9937
230.5095,66.9854
230.5364,67.0256
230.5458,67.0730
230.5458,68.1298
230.5574,68.1883
230.6017,68.2547
230.6681,68.2990
230.7266,68.3106
230.7266,68.3106
232.5694,68.3106
232.5694,68.3106
232.5987,68.3048
232.6279,68.2990
232.6943,68.2547
232.7386,68.1883
232.7502,68.1298
232.7502,66.4902
232.7425,66.4517
232.7386,66.4317
232.6943,66.3653
232.6279,66.3210
232.5694,66.3094
232.5694,66.3094
231.5126,66.3094
231.4652,66.3000
231.4250,66.2731
230.8802,65.7283
230.8499,65.6789
230.8454,65.6212
230.8675,65.5677
230.9115,65.5301
230.9678,65.5166
232.5694,65.5166
232.5987,65.5108
232.6279,65.5050
232.6943,65.4607
232.7386,65.3943
232.7502,65.3358
232.7502,63.6962
232.7386,63.6377
232.7306,63.6258
232.6943,63.5713
232.6279,63.5270
232.5694,63.5154
232.5694,63.5154
232.3475,63.5154
232.2855,63.4988
232.2401,63.4534
232.2235,63.3914
232.2235,61.5325
232.2401,61.4705
232.2855,61.4251
232.3475,61.4085
236.2825,61.4085
236.3445,61.4251
236.3899,61.4705
236.4065,61.5325
236.4065,63.3914
236.3899,63.4534
236.3445,63.4988
236.2825,63.5154
236.0606,63.5154
236.0021,63.5270
235.9357,63.5713
235.8914,63.6377
235.8798,63.6962
235.8798,65.3358
235.8914,65.3943
235.9357,65.4607
236.0021,65.5050
236.0606,65.5166
236.0606,65.5166
237.9034,65.5166
237.9034,65.5166
237.9327,65.5108
237.9619,65.5050
238.0283,65.4607
238.0726,65.3943
238.0842,65.3358
238.0842,64.7630
239.7780,64.7630
240.7280,64.7630
240.7280,64.0130
241.2280,64.0130
241.2280,64.7630
242.1780,64.7630
242.1780,64.4652
242.1716,64.4056
242.1214,64.2709
242.0352,64.1558
241.9201,64.0696
241.7854,64.0194
241.7258,64.0130
241.2280,64.0130
240.7280,64.0130
240.2302,64.0130
240.1706,64.0194
240.0359,64.0696
239.9208,64.1558
239.8346,64.2709
239.7844,64.4056
239.7780,64.4652
239.7780,64.7630
238.0842,64.7630
238.0842,63.6962
238.0726,63.6377
238.0646,63.6258
238.0283,63.5713
237.9619,63.5270
237.9034,63.5154
237.9034,63.5154
237.6815,63.5154
237.6195,63.4988
237.5741,63.4534
237.5575,63.3914
237.5575,61.5325
237.5741,61.4705
237.6195,61.4251
237.6815,61.4085
247.8429,61.4085
247.8903,61.4179
247.9305,61.4448
248.4352,61.9495
248.4621,61.9897
248.4715,62.0371
248.4715,63.1374
248.4549,63.1994
248.4095,63.2448
248.3475,63.2614
248.1256,63.2614
248.0671,63.2730
248.0007,63.3173
247.9564,63.3837
247.9448,63.4422
247.9448,64.8406
247.9313,64.8969
247.8937,64.9409
247.8402,64.9630
247.7825,64.9585
247.7331,64.9282
247.4434,64.6385
247.4327,64.6263
247.4145,64.6025
247.3881,64.5823
247.3843,64.5794
247.3843,64.5794
247.2942,64.5103
247.2769,64.5031
247.2531,64.4933
247.1542,64.4523
247.0337,64.4364
247.0337,64.4364
247.0040,64.4325
246.9743,64.4364
246.9582,64.4375
246.1350,64.4375
246.0765,64.4229
246.0319,64.3824
246.0226,64.3684
245.9562,64.3241
245.8977,64.3125
245.8977,64.3125
244.4583,64.3125
244.4583,64.3125
244.3998,64.3241
244.3334,64.3684
244.2891,64.4348
244.2775,64.4933
244.2775,65.5327
244.2891,65.5912
244.3404,65.6679
244.3601,65.7197
244.3553,65.7749
244.3269,65.8225
244.2806,65.8530
244.2359,65.8696
244.1208,65.9558
244.0346,66.0709
243.9844,66.2056
243.9780,66.2652
243.9780,66.5630
246.3780,66.5630
246.3780,66.2652
246.3716,66.2056
246.3214,66.0709
246.2352,65.9558
246.1201,65.8696
246.0754,65.8530
246.0291,65.8225
246.0007,65.7749
245.9959,65.7197
246.0156,65.6679
246.0319,65.6436
246.0765,65.6031
246.1350,65.5885
246.7143,65.5885
246.7617,65.5979
246.8019,65.6248
247.9085,66.7314
247.9354,66.7716
247.9448,66.8190
247.9448,67.8758
247.9564,67.9343
248.0007,68.0007
248.0671,68.0450
248.1256,68.0566
248.1256,68.0566
249.9684,68.0566
249.9684,68.0566
249.9977,68.0508
250.0269,68.0450
250.0933,68.0007
250.1376,67.9343
250.1440,67.9021
250.1492,67.8758
250.1492,66.2362
250.1376,66.1777
250.0933,66.1113
250.0269,66.0670
249.9684,66.0554
249.9684,66.0554
248.9116,66.0554
248.8642,66.0460
248.8240,66.0191
248.2792,65.4743
248.2489,65.4249
248.2444,65.3672
248.2665,65.3137
248.3105,65.2761
248.3668,65.2626
249.9684,65.2626
249.9977,65.2568
250.0269,65.2510
250.0933,65.2067
250.1376,65.1403
250.1492,65.0818
250.1492,63.4422
250.1376,63.3837
250.1376,63.3837
250.0933,63.3173
250.0269,63.2730
249.9684,63.2614
249.9684,63.2614
249.7465,63.2614
249.6845,63.2448
249.6391,63.1994
249.6225,63.1374
249.6225,61.7932
249.6236,61.7771
249.6275,61.7474
249.6236,61.7177
249.6236,61.7177
249.6177,61.6734
249.6077,61.5972
249.5907,61.5562
249.5907,61.5562
249.5907,61.5562
249.5497,61.4572
249.5497,61.4572
249.5497,61.4572
249.4806,61.3671
249.4806,61.3671
249.4575,61.3369
249.4574,61.3369
249.4574,61.3369
249.4337,61.3187
249.4215,61.3080
248.5720,60.4585
248.5613,60.4463
248.5431,60.4226
248.5431,60.4225
248.5431,60.4225
248.5129,60.3994
248.5129,60.3994
248.4228,60.3303
248.4055,60.3231
248.4055,60.3231
248.2828,60.2723
248.1623,60.2564
248.1623,60.2564
248.1326,60.2525
248.1029,60.2564
248.0868,60.2575
237.0278,60.2575
237.0117,60.2564
236.9820,60.2525
236.9523,60.2564
236.9362,60.2575
231.6938,60.2575
231.6777,60.2564
231.6480,60.2525
231.6183,60.2564
231.6022,60.2575
220.2638,60.2575
220.2477,60.2564
220.2180,60.2525
220.1883,60.2564
220.1722,60.2575
214.6758,60.2575
214.6597,60.2564
214.6300,60.2525
214.6003,60.2564
214.5842,60.2575
203.1188,60.2575
203.1027,60.2564
203.0730,60.2525
203.0433,60.2564
203.0272,60.2575
198.2928,60.2575
198.2767,60.2564
198.2470,60.2525
198.2173,60.2564
198.2012,60.2575
186.7358,60.2575
186.7197,60.2564
186.6900,60.2525
186.6603,60.2564
186.6442,60.2575
181.9098,60.2575
181.8937,60.2564
181.8640,60.2525
181.8343,60.2564
181.8182,60.2575
170.9878,60.2575
170.9717,60.2564
170.9420,60.2525
170.9123,60.2564
170.8962,60.2575
166.5174,60.2575
166.5013,60.2564
166.4716,60.2525
166.4419,60.2564
166.4258,60.2575
154.9604,60.2575
154.9443,60.2564
154.9146,60.2525
154.8849,60.2564
154.8849,60.2564
154.7644,60.2723
154.7234,60.2893
154.7234,60.2893
154.6244,60.3303
154.5376,60.3969
154.5376,60.3969
154.5041,60.4225
154.4859,60.4463
154.4752,60.4585
153.5495,61.3842
153.5373,61.3949
153.5135,61.4131
153.4879,61.4466
153.4879,61.4466
153.4879,61.4466
153.4743,61.4643
153.4743,61.4643
153.4743,61.4643
153.4213,61.5334
153.3633,61.6734
153.3474,61.7939
153.3474,61.7939
153.3435,61.8236
153.3474,61.8533
153.3485,61.8694
153.3485,64.7750
153.3474,64.7911
153.3435,64.8208
153.3474,64.8505
153.3485,64.8666
153.3485,71.1758
153.3474,71.1919
153.3435,71.2216
152.7307,71.2216
152.7307,59.1790
152.7473,59.1170
152.7927,59.0716
152.8547,59.0550
252.4790,59.0550
Z" /> 
</g>
</g>
</g> 
</svg>
