<?xml version="1.0" standalone="no"?>
 <!DOCTYPE svg PUBLIC "-//W3C//DTD SVG 1.1//EN" 
 "http://www.w3.org/Graphics/SVG/1.1/DTD/svg11.dtd"> 
<svg
  xmlns:svg="http://www.w3.org/2000/svg"
  xmlns="http://www.w3.org/2000/svg"
  xmlns:xlink="http://www.w3.org/1999/xlink"
  version="1.1"
  width="297.0022mm" height="210.0072mm" viewBox="0.0000 0.0000 297.0022 210.0072">
<title>SVG Image created as puente H-F_Cu.svg date 2023/08/25 11:43:11 </title>
  <desc>Image generated by PCBNEW </desc>
<g style="fill:#000000; fill-opacity:1.0000;stroke:#000000; stroke-opacity:1.0000;
stroke-linecap:round; stroke-linejoin:round;"
 transform="translate(0 0) scale(1 1)">
</g>
<g style="fill:#000000; fill-opacity:0.0; 
stroke:#000000; stroke-width:0.0000; stroke-opacity:1; 
stroke-linecap:round; stroke-linejoin:round;">
<g >
</g>
<g style="fill:#000000; fill-opacity:0.0; 
stroke:#000000; stroke-width:0.0000; stroke-opacity:1; 
stroke-linecap:round; stroke-linejoin:round;">
</g>
<g style="fill:#000000; fill-opacity:1.0000; 
stroke:#000000; stroke-width:0.0000; stroke-opacity:1; 
stroke-linecap:round; stroke-linejoin:round;">
<path style="fill:#000000; fill-opacity:1.0000; 
stroke:#000000; stroke-width:0.0000; stroke-opacity:1; 
stroke-linecap:round; stroke-linejoin:round;fill-rule:evenodd;"
d="M 156.9802,96.1994
155.7302,96.1994
155.7302,96.5994
156.9802,96.5994
Z" /> 
<path style="fill:#000000; fill-opacity:1.0000; 
stroke:#000000; stroke-width:0.0000; stroke-opacity:1; 
stroke-linecap:round; stroke-linejoin:round;fill-rule:evenodd;"
d="M 156.9802,96.8494
155.7302,96.8494
155.7302,97.2494
156.9802,97.2494
Z" /> 
<path style="fill:#000000; fill-opacity:1.0000; 
stroke:#000000; stroke-width:0.0000; stroke-opacity:1; 
stroke-linecap:round; stroke-linejoin:round;fill-rule:evenodd;"
d="M 156.9802,97.4994
155.7302,97.4994
155.7302,97.8994
156.9802,97.8994
Z" /> 
<path style="fill:#000000; fill-opacity:1.0000; 
stroke:#000000; stroke-width:0.0000; stroke-opacity:1; 
stroke-linecap:round; stroke-linejoin:round;fill-rule:evenodd;"
d="M 156.9802,98.1494
155.7302,98.1494
155.7302,98.5494
156.9802,98.5494
Z" /> 
<path style="fill:#000000; fill-opacity:1.0000; 
stroke:#000000; stroke-width:0.0000; stroke-opacity:1; 
stroke-linecap:round; stroke-linejoin:round;fill-rule:evenodd;"
d="M 156.9802,98.7994
155.7302,98.7994
155.7302,99.1994
156.9802,99.1994
Z" /> 
<path style="fill:#000000; fill-opacity:1.0000; 
stroke:#000000; stroke-width:0.0000; stroke-opacity:1; 
stroke-linecap:round; stroke-linejoin:round;fill-rule:evenodd;"
d="M 156.9802,99.4494
155.7302,99.4494
155.7302,99.8494
156.9802,99.8494
Z" /> 
<path style="fill:#000000; fill-opacity:1.0000; 
stroke:#000000; stroke-width:0.0000; stroke-opacity:1; 
stroke-linecap:round; stroke-linejoin:round;fill-rule:evenodd;"
d="M 156.9802,100.0994
155.7302,100.0994
155.7302,100.4994
156.9802,100.4994
Z" /> 
<path style="fill:#000000; fill-opacity:1.0000; 
stroke:#000000; stroke-width:0.0000; stroke-opacity:1; 
stroke-linecap:round; stroke-linejoin:round;fill-rule:evenodd;"
d="M 156.9802,100.7494
155.7302,100.7494
155.7302,101.1494
156.9802,101.1494
Z" /> 
<path style="fill:#000000; fill-opacity:1.0000; 
stroke:#000000; stroke-width:0.0000; stroke-opacity:1; 
stroke-linecap:round; stroke-linejoin:round;fill-rule:evenodd;"
d="M 156.9802,101.3994
155.7302,101.3994
155.7302,101.7994
156.9802,101.7994
Z" /> 
<path style="fill:#000000; fill-opacity:1.0000; 
stroke:#000000; stroke-width:0.0000; stroke-opacity:1; 
stroke-linecap:round; stroke-linejoin:round;fill-rule:evenodd;"
d="M 156.9802,102.0494
155.7302,102.0494
155.7302,102.4494
156.9802,102.4494
Z" /> 
<path style="fill:#000000; fill-opacity:1.0000; 
stroke:#000000; stroke-width:0.0000; stroke-opacity:1; 
stroke-linecap:round; stroke-linejoin:round;fill-rule:evenodd;"
d="M 156.9802,102.6994
155.7302,102.6994
155.7302,103.0994
156.9802,103.0994
Z" /> 
<path style="fill:#000000; fill-opacity:1.0000; 
stroke:#000000; stroke-width:0.0000; stroke-opacity:1; 
stroke-linecap:round; stroke-linejoin:round;fill-rule:evenodd;"
d="M 156.9802,103.3494
155.7302,103.3494
155.7302,103.7494
156.9802,103.7494
Z" /> 
<path style="fill:#000000; fill-opacity:1.0000; 
stroke:#000000; stroke-width:0.0000; stroke-opacity:1; 
stroke-linecap:round; stroke-linejoin:round;fill-rule:evenodd;"
d="M 149.7302,102.0494
148.4802,102.0494
148.4802,102.4494
149.7302,102.4494
Z" /> 
<path style="fill:#000000; fill-opacity:1.0000; 
stroke:#000000; stroke-width:0.0000; stroke-opacity:1; 
stroke-linecap:round; stroke-linejoin:round;fill-rule:evenodd;"
d="M 149.7302,101.3994
148.4802,101.3994
148.4802,101.7994
149.7302,101.7994
Z" /> 
<path style="fill:#000000; fill-opacity:1.0000; 
stroke:#000000; stroke-width:0.0000; stroke-opacity:1; 
stroke-linecap:round; stroke-linejoin:round;fill-rule:evenodd;"
d="M 149.7302,100.7494
148.4802,100.7494
148.4802,101.1494
149.7302,101.1494
Z" /> 
<path style="fill:#000000; fill-opacity:1.0000; 
stroke:#000000; stroke-width:0.0000; stroke-opacity:1; 
stroke-linecap:round; stroke-linejoin:round;fill-rule:evenodd;"
d="M 149.7302,100.0994
148.4802,100.0994
148.4802,100.4994
149.7302,100.4994
Z" /> 
<path style="fill:#000000; fill-opacity:1.0000; 
stroke:#000000; stroke-width:0.0000; stroke-opacity:1; 
stroke-linecap:round; stroke-linejoin:round;fill-rule:evenodd;"
d="M 149.7302,99.4494
148.4802,99.4494
148.4802,99.8494
149.7302,99.8494
Z" /> 
<path style="fill:#000000; fill-opacity:1.0000; 
stroke:#000000; stroke-width:0.0000; stroke-opacity:1; 
stroke-linecap:round; stroke-linejoin:round;fill-rule:evenodd;"
d="M 149.7302,98.7994
148.4802,98.7994
148.4802,99.1994
149.7302,99.1994
Z" /> 
<path style="fill:#000000; fill-opacity:1.0000; 
stroke:#000000; stroke-width:0.0000; stroke-opacity:1; 
stroke-linecap:round; stroke-linejoin:round;fill-rule:evenodd;"
d="M 149.7302,98.1494
148.4802,98.1494
148.4802,98.5494
149.7302,98.5494
Z" /> 
<path style="fill:#000000; fill-opacity:1.0000; 
stroke:#000000; stroke-width:0.0000; stroke-opacity:1; 
stroke-linecap:round; stroke-linejoin:round;fill-rule:evenodd;"
d="M 149.7302,97.4994
148.4802,97.4994
148.4802,97.8994
149.7302,97.8994
Z" /> 
<path style="fill:#000000; fill-opacity:1.0000; 
stroke:#000000; stroke-width:0.0000; stroke-opacity:1; 
stroke-linecap:round; stroke-linejoin:round;fill-rule:evenodd;"
d="M 149.7302,96.8494
148.4802,96.8494
148.4802,97.2494
149.7302,97.2494
Z" /> 
<path style="fill:#000000; fill-opacity:1.0000; 
stroke:#000000; stroke-width:0.0000; stroke-opacity:1; 
stroke-linecap:round; stroke-linejoin:round;fill-rule:evenodd;"
d="M 149.7302,96.1994
148.4802,96.1994
148.4802,96.5994
149.7302,96.5994
Z" /> 
<path style="fill:#000000; fill-opacity:1.0000; 
stroke:#000000; stroke-width:0.0000; stroke-opacity:1; 
stroke-linecap:round; stroke-linejoin:round;fill-rule:evenodd;"
d="M 149.7302,102.6994
148.4802,102.6994
148.4802,103.0994
149.7302,103.0994
Z" /> 
<path style="fill:#000000; fill-opacity:1.0000; 
stroke:#000000; stroke-width:0.0000; stroke-opacity:1; 
stroke-linecap:round; stroke-linejoin:round;fill-rule:evenodd;"
d="M 149.7302,103.3494
148.4802,103.3494
148.4802,103.7494
149.7302,103.7494
Z" /> 
</g>
<g >
</g>
<g style="fill:#000000; fill-opacity:1.0000; 
stroke:#000000; stroke-width:0.0000; stroke-opacity:1; 
stroke-linecap:round; stroke-linejoin:round;">
<path style="fill:#000000; fill-opacity:1.0000; 
stroke:#000000; stroke-width:0.0000; stroke-opacity:1; 
stroke-linecap:round; stroke-linejoin:round;fill-rule:evenodd;"
d="M 155.1462,89.4990
155.1272,89.4033
155.0730,89.3222
154.9919,89.2680
154.8962,89.2490
153.8962,89.2490
153.8005,89.2680
153.7194,89.3222
153.6652,89.4033
153.6462,89.4990
153.6462,91.3490
153.6652,91.4447
153.7194,91.5258
153.8005,91.5800
153.8962,91.5990
154.8962,91.5990
154.9919,91.5800
155.0730,91.5258
155.1272,91.4447
155.1462,91.3490
Z" /> 
<path style="fill:#000000; fill-opacity:1.0000; 
stroke:#000000; stroke-width:0.0000; stroke-opacity:1; 
stroke-linecap:round; stroke-linejoin:round;fill-rule:evenodd;"
d="M 151.8962,89.4990
151.8772,89.4033
151.8230,89.3222
151.7419,89.2680
151.6462,89.2490
150.6462,89.2490
150.5505,89.2680
150.4694,89.3222
150.4152,89.4033
150.3962,89.4990
150.3962,91.3490
150.4152,91.4447
150.4694,91.5258
150.5505,91.5800
150.6462,91.5990
151.6462,91.5990
151.7419,91.5800
151.8230,91.5258
151.8772,91.4447
151.8962,91.3490
Z" /> 
</g>
<g >
</g>
<g style="fill:#000000; fill-opacity:1.0000; 
stroke:#000000; stroke-width:0.0000; stroke-opacity:1; 
stroke-linecap:round; stroke-linejoin:round;">
<path style="fill:#000000; fill-opacity:1.0000; 
stroke:#000000; stroke-width:0.0000; stroke-opacity:1; 
stroke-linecap:round; stroke-linejoin:round;fill-rule:evenodd;"
d="M 151.3072,94.6365
151.3871,94.6206
151.4549,94.5754
151.5001,94.5076
151.5160,94.4277
151.5160,94.0102
151.5001,93.9304
151.4549,93.8626
151.3871,93.8174
151.3072,93.8015
150.4447,93.8015
150.3649,93.8174
150.2971,93.8626
150.2519,93.9304
150.2360,94.0102
150.2360,94.4277
150.2519,94.5076
150.2971,94.5754
150.3649,94.6206
150.4447,94.6365
Z" /> 
<path style="fill:#000000; fill-opacity:1.0000; 
stroke:#000000; stroke-width:0.0000; stroke-opacity:1; 
stroke-linecap:round; stroke-linejoin:round;fill-rule:evenodd;"
d="M 151.3072,93.3815
151.3871,93.3656
151.4549,93.3204
151.5001,93.2526
151.5160,93.1727
151.5160,92.7552
151.5001,92.6754
151.4549,92.6076
151.3871,92.5624
151.3072,92.5465
150.4447,92.5465
150.3649,92.5624
150.2971,92.6076
150.2519,92.6754
150.2360,92.7552
150.2360,93.1727
150.2519,93.2526
150.2971,93.3204
150.3649,93.3656
150.4447,93.3815
Z" /> 
</g>
<g >
</g>
<g >
</g>
<g style="fill:#000000; fill-opacity:1.0000; 
stroke:#000000; stroke-width:0.0000; stroke-opacity:1; 
stroke-linecap:round; stroke-linejoin:round;">
<path style="fill:#000000; fill-opacity:1.0000; 
stroke:#000000; stroke-width:0.0000; stroke-opacity:1; 
stroke-linecap:round; stroke-linejoin:round;fill-rule:evenodd;"
d="M 145.8868,91.0106
145.8868,89.6606
144.5368,89.6606
144.5368,91.0106
Z" /> 
<circle cx="145.2118" cy="92.3356" r="0.6750" /> 
<circle cx="145.2118" cy="94.3356" r="0.6750" /> 
<circle cx="145.2118" cy="96.3356" r="0.6750" /> 
<circle cx="145.2118" cy="98.3356" r="0.6750" /> 
<circle cx="145.2118" cy="100.3356" r="0.6750" /> 
<circle cx="145.2118" cy="102.3356" r="0.6750" /> 
<circle cx="145.2118" cy="104.3356" r="0.6750" /> 
</g>
<g >
</g>
<g style="fill:#000000; fill-opacity:1.0000; 
stroke:#000000; stroke-width:0.0000; stroke-opacity:1; 
stroke-linecap:round; stroke-linejoin:round;">
<path style="fill:#000000; fill-opacity:1.0000; 
stroke:#000000; stroke-width:0.0000; stroke-opacity:1; 
stroke-linecap:round; stroke-linejoin:round;fill-rule:evenodd;"
d="M 159.1672,103.6926
159.1672,105.0426
160.5172,105.0426
160.5172,103.6926
Z" /> 
<circle cx="159.8422" cy="102.3676" r="0.6750" /> 
<circle cx="159.8422" cy="100.3676" r="0.6750" /> 
<circle cx="159.8422" cy="98.3676" r="0.6750" /> 
<circle cx="159.8422" cy="96.3676" r="0.6750" /> 
<circle cx="159.8422" cy="94.3676" r="0.6750" /> 
<circle cx="159.8422" cy="92.3676" r="0.6750" /> 
<circle cx="159.8422" cy="90.3676" r="0.6750" /> 
</g>
<g >
</g>
<g style="fill:#000000; fill-opacity:1.0000; 
stroke:#000000; stroke-width:0.0000; stroke-opacity:1; 
stroke-linecap:round; stroke-linejoin:round;">
<path style="fill:#000000; fill-opacity:1.0000; 
stroke:#000000; stroke-width:0.0000; stroke-opacity:1; 
stroke-linecap:round; stroke-linejoin:round;fill-rule:evenodd;"
d="M 155.0918,94.6873
155.1717,94.6714
155.2395,94.6262
155.2847,94.5584
155.3006,94.4785
155.3006,94.0610
155.2847,93.9812
155.2395,93.9134
155.1717,93.8682
155.0918,93.8523
154.2293,93.8523
154.1495,93.8682
154.0817,93.9134
154.0365,93.9812
154.0206,94.0610
154.0206,94.4785
154.0365,94.5584
154.0817,94.6262
154.1495,94.6714
154.2293,94.6873
Z" /> 
<path style="fill:#000000; fill-opacity:1.0000; 
stroke:#000000; stroke-width:0.0000; stroke-opacity:1; 
stroke-linecap:round; stroke-linejoin:round;fill-rule:evenodd;"
d="M 155.0918,93.4323
155.1717,93.4164
155.2395,93.3712
155.2847,93.3034
155.3006,93.2235
155.3006,92.8060
155.2847,92.7262
155.2395,92.6584
155.1717,92.6132
155.0918,92.5973
154.2293,92.5973
154.1495,92.6132
154.0817,92.6584
154.0365,92.7262
154.0206,92.8060
154.0206,93.2235
154.0365,93.3034
154.0817,93.3712
154.1495,93.4164
154.2293,93.4323
Z" /> 
</g>
<g >
</g>
<g style="fill:#000000; fill-opacity:1.0000; 
stroke:#000000; stroke-width:0.0000; stroke-opacity:1; 
stroke-linecap:round; stroke-linejoin:round;">
<circle cx="152.6540" cy="105.2830" r="0.5500" /> 
</g>
<g style="fill:#000000; fill-opacity:1.0000; 
stroke:#000000; stroke-width:0.0212; stroke-opacity:1; 
stroke-linecap:round; stroke-linejoin:round;">
</g>
<g style="fill:#000000; fill-opacity:1.0000; 
stroke:#000000; stroke-width:0.0000; stroke-opacity:1; 
stroke-linecap:round; stroke-linejoin:round;">
<circle cx="149.1996" cy="94.8944" r="0.5000" /> 
</g>
<g style="fill:#000000; fill-opacity:1.0000; 
stroke:#000000; stroke-width:0.0212; stroke-opacity:1; 
stroke-linecap:round; stroke-linejoin:round;">
</g>
<g >
</g>
<g style="fill:#000000; fill-opacity:1.0000; 
stroke:#000000; stroke-width:0.0212; stroke-opacity:1; 
stroke-linecap:round; stroke-linejoin:round;">
</g>
<g style="fill:#000000; fill-opacity:1.0000; 
stroke:#000000; stroke-width:1.0000; stroke-opacity:1; 
stroke-linecap:round; stroke-linejoin:round;">
</g>
<g style="fill:#000000; fill-opacity:0.0; 
stroke:#000000; stroke-width:1.0000; stroke-opacity:1; 
stroke-linecap:round; stroke-linejoin:round;">
<path d="M149.7584 92.9640
L149.0472 92.2528
" />
<path d="M150.8760 92.9640
L149.7584 92.9640
" />
<path d="M155.8036 92.0750
L155.0924 92.0750
" />
<path d="M154.6606 92.5068
L154.6606 93.0148
" />
<path d="M155.0924 92.0750
L154.6606 92.5068
" />
<path d="M156.3878 101.9302
L154.4066 101.9302
" />
<path d="M156.4894 98.0186
L154.5082 98.0186
" />
</g>
<g style="fill:#000000; fill-opacity:0.0; 
stroke:#000000; stroke-width:0.2500; stroke-opacity:1; 
stroke-linecap:round; stroke-linejoin:round;">
<path d="M159.8422 92.3676
L157.5176 92.3676
" />
<path d="M154.6606 95.6056
L151.2668 98.9994
" />
<path d="M154.6606 94.2698
L154.6606 95.6056
" />
<path d="M157.5176 92.3676
L155.6154 94.2698
" />
<path d="M155.6154 94.2698
L154.6606 94.2698
" />
<path d="M151.2668 98.9994
L149.1052 98.9994
" />
</g>
<g style="fill:#000000; fill-opacity:0.0; 
stroke:#000000; stroke-width:1.0000; stroke-opacity:1; 
stroke-linecap:round; stroke-linejoin:round;">
<path d="M152.6540 104.9020
L150.9014 103.1494
" />
<path d="M153.0858 93.8022
L152.6690 94.2190
" />
<path d="M149.1996 94.8944
L149.1488 94.8944
" />
<path d="M159.8422 90.3676
L153.8026 90.3676
" />
<path d="M149.1488 94.8944
L149.1052 94.9380
" />
<path d="M153.0858 91.0844
L153.0858 93.8022
" />
<path d="M149.8242 94.2190
L149.1996 94.8436
" />
<path d="M150.8760 94.2190
L149.8242 94.2190
" />
<path d="M152.6690 94.2190
L150.8760 94.2190
" />
<path d="M150.9014 103.1494
L149.1052 103.1494
" />
<path d="M153.7462 90.4240
L153.0858 91.0844
" />
<path d="M149.1996 94.8436
L149.1996 94.8944
" />
<path d="M152.6540 105.2830
L152.6540 104.9020
" />
<path d="M149.1052 94.9380
L149.1052 96.1494
" />
<path d="M153.8026 90.3676
L153.7462 90.4240
" />
<path d="M156.4822 96.6724
L156.3552 96.7994
" />
<path d="M159.5374 96.6724
L156.4822 96.6724
" />
<path d="M159.8422 96.3676
L159.5374 96.6724
" />
<path d="M158.0642 99.3648
L156.0830 99.3648
" />
<path d="M159.8422 98.3676
L159.0614 98.3676
" />
<path d="M159.0614 98.3676
L158.0642 99.3648
" />
<path d="M159.8422 100.3676
L159.6258 100.5840
" />
<path d="M159.6258 100.5840
L156.1338 100.5840
" />
<path d="M159.8422 102.3676
L158.4620 102.3676
" />
<path d="M158.4620 102.3676
L157.6040 103.2256
" />
<path d="M157.6040 103.2256
L155.9306 103.2256
" />
</g>
<g style="fill:#000000; fill-opacity:0.0; 
stroke:#000000; stroke-width:0.2500; stroke-opacity:1; 
stroke-linecap:round; stroke-linejoin:round;">
<path d="M149.1052 102.2494
L145.2980 102.2494
" />
<path d="M145.2980 102.2494
L145.2118 102.3356
" />
<path d="M149.1052 101.5994
L146.4756 101.5994
" />
<path d="M146.4756 101.5994
L145.2118 100.3356
" />
<path d="M147.8256 100.9494
L145.2118 98.3356
" />
<path d="M149.1052 100.9494
L147.8256 100.9494
" />
<path d="M146.4310 96.8756
L145.8910 96.3356
" />
<path d="M146.4310 97.8916
L146.4310 96.8756
" />
<path d="M145.8910 96.3356
L145.2118 96.3356
" />
<path d="M149.1052 99.6494
L148.1888 99.6494
" />
<path d="M148.1888 99.6494
L146.4310 97.8916
" />
<path d="M148.1588 98.3494
L149.1052 98.3494
" />
<path d="M146.9390 97.1296
L148.1588 98.3494
" />
<path d="M146.9390 95.0976
L146.9390 97.1296
" />
<path d="M146.1770 94.3356
L146.9390 95.0976
" />
<path d="M145.2118 94.3356
L146.1770 94.3356
" />
<path d="M149.1052 97.6994
L148.2302 97.6994
" />
<path d="M146.6662 92.3356
L145.2118 92.3356
" />
<path d="M147.4470 93.1164
L146.6662 92.3356
" />
<path d="M147.4470 96.9162
L147.4470 93.1164
" />
<path d="M148.2302 97.6994
L147.4470 96.9162
" />
<path d="M149.1052 97.0494
L148.2302 97.0494
" />
<path d="M146.5458 90.3356
L145.2118 90.3356
" />
<path d="M147.9550 96.7742
L147.9550 91.7448
" />
<path d="M147.9550 91.7448
L146.5458 90.3356
" />
<path d="M148.2302 97.0494
L147.9550 96.7742
" />
</g>
<g >
</g>
<g style="fill:#000000; fill-opacity:0.0; 
stroke:#000000; stroke-width:0.2500; stroke-opacity:1; 
stroke-linecap:round; stroke-linejoin:round;">
<g >
</g>
<g style="fill:#000000; fill-opacity:1.0000; 
stroke:#000000; stroke-width:0.0000; stroke-opacity:1; 
stroke-linecap:round; stroke-linejoin:round;">
<path style="fill:#000000; fill-opacity:1.0000; 
stroke:#000000; stroke-width:0.0000; stroke-opacity:1; 
stroke-linecap:round; stroke-linejoin:round;fill-rule:evenodd;"
d="M 142.9019,88.6638
142.8766,88.7077
142.8755,88.7205
142.8755,106.5801
142.8928,106.6277
142.9366,106.6530
142.9495,106.6541
161.7997,106.6541
161.8473,106.6368
161.8726,106.5930
161.8737,106.5801
161.8737,104.2426
160.6172,104.2426
160.2274,104.2426
160.2472,104.3676
160.2274,104.4926
160.6172,104.4926
160.6172,105.0524
160.6114,105.0816
160.5893,105.1147
160.5893,105.1147
160.5562,105.1368
160.5270,105.1426
159.9672,105.1426
159.9672,104.7528
159.8737,104.7676
159.8107,104.7676
159.7172,104.7528
159.7172,105.1426
159.1574,105.1426
159.1282,105.1368
159.0951,105.1147
159.0951,105.1147
159.0730,105.0816
159.0672,105.0524
159.0672,104.4926
159.4570,104.4926
159.4372,104.3676
159.4570,104.2426
159.0672,104.2426
159.0672,103.6828
159.0730,103.6536
159.0951,103.6205
159.0951,103.6205
159.1282,103.5984
159.1574,103.5926
159.7172,103.5926
159.7172,103.9824
159.8107,103.9676
159.8737,103.9676
159.9672,103.9824
159.9672,103.5926
160.5270,103.5926
160.5562,103.5984
160.5893,103.6205
160.5893,103.6205
160.6114,103.6536
160.6172,103.6828
160.6172,104.2426
161.8737,104.2426
161.8737,102.3676
160.7225,102.3676
160.7038,102.5455
160.7033,102.5506
160.6464,102.7257
160.5544,102.8850
160.5544,102.8850
160.4312,103.0218
160.2824,103.1300
160.2824,103.1300
160.1142,103.2048
159.9342,103.2431
159.9342,103.2431
159.7502,103.2431
159.7502,103.2431
159.5702,103.2048
159.4020,103.1300
159.3871,103.1191
159.3363,103.0822
159.2928,103.0681
158.7828,103.0681
158.7352,103.0854
158.7305,103.0898
158.1151,103.7052
158.1136,103.7068
158.0719,103.7538
158.0719,103.7538
158.0203,103.7894
158.0185,103.7908
157.9691,103.8295
157.9557,103.8355
157.9440,103.8421
157.9319,103.8504
157.9319,103.8504
157.9319,103.8504
157.9319,103.8504
157.8732,103.8727
157.8712,103.8735
157.8139,103.8993
157.7995,103.9019
157.7866,103.9055
157.7729,103.9107
157.7105,103.9183
157.7084,103.9186
157.6779,103.9242
157.6466,103.9300
157.6032,103.9273
157.5840,103.9262
157.5817,103.9261
157.0991,103.9261
157.0655,103.9363
157.0652,103.9355
157.0584,103.9383
157.0584,103.9383
156.9999,103.9499
156.9999,103.9499
155.7105,103.9499
155.7105,103.9499
155.6520,103.9383
155.5856,103.8940
155.5413,103.8276
155.5413,103.8276
155.5385,103.8209
155.5353,103.8222
155.5164,103.7911
155.5121,103.7879
155.4627,103.7538
155.3499,103.6265
155.2708,103.4758
155.2301,103.3107
155.2301,103.1405
155.2708,102.9754
155.3499,102.8247
155.4627,102.6974
155.5116,102.6637
155.5373,102.6274
155.5385,102.6279
155.5407,102.6226
155.5409,102.6224
155.5410,102.6220
155.5413,102.6212
155.5856,102.5548
155.5920,102.5506
155.6007,102.5448
155.6306,102.5040
155.6321,102.4689
155.6302,102.4592
155.6302,102.3744
157.0802,102.3744
157.0802,102.4511
157.0975,102.4987
157.1413,102.5240
157.1542,102.5251
157.2832,102.5251
157.3308,102.5078
157.3355,102.5034
157.7145,102.1244
157.0802,102.1244
156.4802,102.1244
156.4802,101.7244
156.2302,101.7244
156.2302,102.1244
155.6302,102.1244
155.6302,102.0396
155.6360,102.0104
155.6581,101.9773
155.6587,101.9767
155.6591,101.9758
155.6622,101.9712
155.6615,101.9708
155.6801,101.9308
155.6670,101.8820
155.6587,101.8721
155.6581,101.8715
155.6360,101.8384
155.6302,101.8092
155.6302,101.7244
156.2302,101.7244
156.4802,101.7244
157.0802,101.7244
157.0802,101.8092
157.0744,101.8384
157.0523,101.8715
157.0517,101.8721
157.0513,101.8730
157.0482,101.8776
157.0489,101.8780
157.0303,101.9179
157.0434,101.9668
157.0517,101.9767
157.0523,101.9773
157.0744,102.0104
157.0802,102.0396
157.0802,102.1244
157.7145,102.1244
157.9509,101.8880
157.9524,101.8864
157.9941,101.8394
157.9955,101.8384
158.0457,101.8038
158.0475,101.8024
158.0969,101.7637
158.0969,101.7637
158.0969,101.7637
158.1103,101.7577
158.1220,101.7511
158.1341,101.7428
158.1928,101.7205
158.1948,101.7197
158.2521,101.6939
158.2665,101.6913
158.2794,101.6877
158.2931,101.6825
158.2931,101.6825
158.3286,101.6782
158.3554,101.6749
158.3576,101.6746
158.4194,101.6632
158.4194,101.6632
158.4263,101.6637
158.4821,101.6670
158.4843,101.6671
159.2928,101.6671
159.3363,101.6530
159.4020,101.6052
159.4020,101.6052
159.5702,101.5304
159.5702,101.5304
159.7207,101.4984
159.7502,101.4921
159.9342,101.4921
159.9637,101.4984
160.1142,101.5304
160.1142,101.5304
160.2824,101.6052
160.2824,101.6052
160.4312,101.7134
160.5544,101.8502
160.5544,101.8502
160.6464,102.0095
160.7033,102.1846
160.7033,102.1846
160.7033,102.1846
160.7225,102.3676
161.8737,102.3676
161.8737,100.3676
160.7225,100.3676
160.7035,100.5489
160.7033,100.5506
160.6464,100.7257
160.5544,100.8850
160.5544,100.8850
160.4312,101.0218
160.2824,101.1300
160.2824,101.1300
160.1142,101.2048
159.9342,101.2431
159.8840,101.2431
159.8537,101.2496
159.8357,101.2577
159.8213,101.2603
159.8084,101.2639
159.7947,101.2691
159.7323,101.2767
159.7302,101.2770
159.6684,101.2884
159.6255,101.2858
159.6057,101.2846
159.6035,101.2845
157.1613,101.2845
157.1202,101.2970
157.1098,101.3040
157.0798,101.3448
157.0783,101.3799
157.0802,101.3895
157.0802,101.4744
155.6302,101.4744
155.6302,101.3895
155.6321,101.3799
155.6244,101.3299
155.6006,101.3040
155.5856,101.2940
155.5413,101.2276
155.5297,101.1691
155.5297,100.9586
155.5212,100.9242
155.4740,100.8342
155.4333,100.6691
155.4333,100.4989
155.4740,100.3338
155.4740,100.3338
155.5212,100.2438
155.5297,100.2094
155.5297,100.0797
155.5413,100.0212
155.5451,100.0155
155.5571,99.9663
155.5451,99.9333
155.5413,99.9276
155.5413,99.9276
155.5413,99.9276
155.5297,99.8691
155.5297,99.8247
155.5124,99.7771
155.5111,99.7756
155.5023,99.7657
155.5023,99.7657
155.4232,99.6150
155.3825,99.4499
155.3825,99.2797
155.4232,99.1146
155.5023,98.9639
155.5111,98.9540
155.5297,98.9069
155.5297,98.9049
155.5297,98.7797
155.5404,98.7257
155.5413,98.7212
155.5466,98.7133
155.5689,98.6799
155.5856,98.6548
155.6007,98.6448
155.6306,98.6040
155.6321,98.5689
155.6302,98.5592
155.6302,98.4744
157.0802,98.4744
157.0802,98.5592
157.0783,98.5689
157.0860,98.6189
157.1098,98.6448
157.1202,98.6518
157.1613,98.6643
157.7434,98.6643
157.7910,98.6470
157.7957,98.6426
158.2139,98.2244
157.0802,98.2244
156.4802,98.2244
156.4802,97.8244
156.2302,97.8244
156.2302,98.2244
155.6302,98.2244
155.6302,98.1396
155.6360,98.1104
155.6581,98.0773
155.6587,98.0767
155.6591,98.0758
155.6622,98.0712
155.6615,98.0708
155.6801,98.0309
155.6670,97.9820
155.6587,97.9721
155.6581,97.9715
155.6360,97.9384
155.6302,97.9092
155.6302,97.8244
156.2302,97.8244
156.4802,97.8244
157.0802,97.8244
157.0802,97.9092
157.0744,97.9384
157.0523,97.9715
157.0517,97.9721
157.0513,97.9730
157.0482,97.9776
157.0489,97.9780
157.0303,98.0179
157.0434,98.0668
157.0517,98.0767
157.0523,98.0773
157.0744,98.1104
157.0802,98.1396
157.0802,98.2244
158.2139,98.2244
158.5503,97.8880
158.5518,97.8864
158.5935,97.8394
158.6243,97.8182
158.6451,97.8038
158.6469,97.8024
158.6963,97.7637
158.6963,97.7637
158.6963,97.7637
158.7097,97.7577
158.7214,97.7511
158.7335,97.7428
158.7922,97.7205
158.7942,97.7197
158.8515,97.6939
158.8659,97.6913
158.8788,97.6877
158.8925,97.6825
158.8925,97.6825
158.9280,97.6782
158.9548,97.6749
158.9570,97.6746
159.0188,97.6632
159.0188,97.6632
159.0257,97.6637
159.0815,97.6670
159.0837,97.6671
159.2928,97.6671
159.3363,97.6530
159.4020,97.6052
159.4020,97.6052
159.5702,97.5304
159.5702,97.5304
159.6169,97.5204
159.6598,97.4936
159.6754,97.4455
159.6565,97.3985
159.6118,97.3748
159.5881,97.3753
159.5800,97.3768
159.5366,97.3741
159.5174,97.3730
159.5151,97.3729
157.1765,97.3729
157.1289,97.3902
157.1250,97.3938
157.1248,97.3939
157.1248,97.3940
157.1098,97.4040
157.0798,97.4448
157.0783,97.4799
157.0802,97.4896
157.0802,97.5744
155.6302,97.5744
155.6302,97.4895
155.6321,97.4799
155.6244,97.4299
155.6006,97.4040
155.5856,97.3940
155.5413,97.3276
155.5297,97.2691
155.5297,96.8297
155.5413,96.7712
155.5413,96.7712
155.5413,96.7712
155.5451,96.7655
155.5571,96.7163
155.5451,96.6833
155.5413,96.6776
155.5413,96.6776
155.5413,96.6776
155.5297,96.6191
155.5297,96.1797
155.5413,96.1212
155.5460,96.1142
155.5672,96.0824
155.5856,96.0548
155.6218,96.0307
155.6520,96.0105
155.6520,96.0105
155.6812,96.0047
155.7105,95.9989
155.7105,95.9989
156.2645,95.9989
156.2778,95.9977
156.2867,95.9961
156.2996,95.9925
156.3133,95.9873
156.3133,95.9873
156.3488,95.9830
156.3756,95.9797
156.3778,95.9794
156.4396,95.9680
156.4396,95.9680
156.4465,95.9685
156.5023,95.9718
156.5045,95.9719
159.0170,95.9719
159.0646,95.9546
159.0811,95.9349
159.1300,95.8502
159.1300,95.8502
159.2244,95.7453
159.2532,95.7134
159.2532,95.7134
159.2532,95.7134
159.4020,95.6052
159.4020,95.6052
159.5702,95.5304
159.5702,95.5304
159.7207,95.4984
159.7502,95.4921
159.9342,95.4921
159.9359,95.4924
160.1142,95.5304
160.1142,95.5304
160.2824,95.6052
160.2824,95.6052
160.4312,95.7134
160.5544,95.8502
160.5544,95.8502
160.6464,96.0095
160.7033,96.1846
160.7033,96.1846
160.7033,96.1846
160.7225,96.3676
160.7066,96.5186
160.7033,96.5506
160.6464,96.7257
160.5544,96.8850
160.5544,96.8850
160.4312,97.0218
160.2824,97.1300
160.2824,97.1300
160.1142,97.2048
160.1142,97.2048
160.0848,97.2111
159.9655,97.2364
159.9353,97.2506
159.9025,97.2763
159.8891,97.2823
159.8774,97.2889
159.8653,97.2972
159.8066,97.3195
159.8046,97.3203
159.7473,97.3461
159.7473,97.3461
159.7431,97.3474
159.7438,97.3499
159.7079,97.3709
159.6909,97.4186
159.7086,97.4661
159.7526,97.4911
159.7649,97.4921
159.9342,97.4921
159.9637,97.4984
160.1142,97.5304
160.1142,97.5304
160.2824,97.6052
160.2824,97.6052
160.4312,97.7134
160.5544,97.8502
160.5544,97.8502
160.6464,98.0095
160.7033,98.1846
160.7033,98.1846
160.7033,98.1846
160.7225,98.3676
160.7066,98.5186
160.7033,98.5506
160.6464,98.7257
160.5544,98.8850
160.5544,98.8850
160.4312,99.0218
160.2824,99.1300
160.2824,99.1300
160.1142,99.2048
159.9342,99.2431
159.9342,99.2431
159.7502,99.2431
159.7502,99.2431
159.5702,99.2048
159.4020,99.1300
159.3881,99.1198
159.3394,99.1059
159.2932,99.1265
159.2923,99.1274
158.6625,99.7572
158.6411,99.8030
158.6542,99.8519
158.6957,99.8810
158.7148,99.8835
159.0681,99.8835
159.1156,99.8662
159.1279,99.8530
159.1300,99.8502
159.1300,99.8502
159.2532,99.7134
159.2532,99.7134
159.2532,99.7134
159.4020,99.6052
159.4020,99.6052
159.5702,99.5304
159.5702,99.5304
159.7207,99.4984
159.7502,99.4921
159.9342,99.4921
159.9637,99.4984
160.1142,99.5304
160.1142,99.5304
160.2824,99.6052
160.2824,99.6052
160.4312,99.7134
160.5544,99.8502
160.5544,99.8502
160.6464,100.0095
160.7033,100.1846
160.7033,100.1846
160.7033,100.1846
160.7225,100.3676
161.8737,100.3676
161.8737,94.4926
160.6080,94.4926
160.6025,94.5411
160.6025,94.5412
160.5449,94.7060
160.4520,94.8539
160.3285,94.9774
160.1806,95.0703
160.0157,95.1279
160.0157,95.1279
159.9672,95.1334
159.9672,94.7528
159.8737,94.7676
159.8107,94.7676
159.7172,94.7528
159.7172,95.1334
159.6687,95.1279
159.5038,95.0703
159.3559,94.9774
159.2324,94.8539
159.1395,94.7060
159.0819,94.5412
159.0819,94.5411
159.0764,94.4926
159.4570,94.4926
159.4372,94.3676
159.4570,94.2426
159.0764,94.2426
159.0819,94.1941
159.0819,94.1940
159.1395,94.0292
159.2324,93.8813
159.3559,93.7578
159.5038,93.6649
159.6686,93.6073
159.6687,93.6072
159.7172,93.6018
159.7172,93.9824
159.8107,93.9676
159.8737,93.9676
159.9672,93.9824
159.9672,93.6018
160.0157,93.6072
160.0158,93.6073
160.1806,93.6649
160.3285,93.7578
160.4520,93.8813
160.5449,94.0292
160.6025,94.1940
160.6025,94.1941
160.6080,94.2426
160.2274,94.2426
160.2472,94.3676
160.2274,94.4926
160.6080,94.4926
161.8737,94.4926
161.8737,92.3676
160.7225,92.3676
160.7037,92.5469
160.7033,92.5506
160.6464,92.7257
160.5544,92.8850
160.5544,92.8850
160.4312,93.0218
160.2824,93.1300
160.2824,93.1300
160.1142,93.2048
159.9342,93.2431
159.9342,93.2431
159.7502,93.2431
159.7502,93.2431
159.5702,93.2048
159.4020,93.1300
159.3580,93.0980
159.2532,93.0218
159.2532,93.0218
159.2532,93.0218
159.1300,92.8850
159.0406,92.7301
159.0018,92.6976
158.9765,92.6931
157.6831,92.6931
157.6355,92.7104
157.6308,92.7148
155.8568,94.4888
155.8546,94.4911
155.8532,94.4927
155.8289,94.5217
155.8279,94.5230
155.7919,94.5438
155.7891,94.5455
155.7551,94.5694
155.7551,94.5694
155.7505,94.5706
155.7326,94.5780
155.7284,94.5804
155.7284,94.5804
155.7284,94.5804
155.7284,94.5804
155.6875,94.5876
155.6844,94.5883
155.6442,94.5991
155.6028,94.5954
155.5996,94.5953
155.5370,94.5953
155.4895,94.6126
155.4711,94.6357
155.4367,94.7032
155.4271,94.7221
155.3354,94.8138
155.2199,94.8726
155.1720,94.8802
155.1241,94.8878
155.1241,94.8878
155.0601,94.8878
155.0125,94.9051
154.9872,94.9489
154.9861,94.9618
154.9861,95.5898
154.9862,95.5930
154.9899,95.6344
154.9899,95.6344
154.9791,95.6746
154.9784,95.6777
154.9712,95.7186
154.9688,95.7228
154.9614,95.7406
154.9602,95.7453
154.9602,95.7453
154.9363,95.7793
154.9346,95.7821
154.9258,95.7973
154.9138,95.8181
154.9138,95.8181
154.9138,95.8181
154.8967,95.8324
154.8819,95.8448
154.8796,95.8470
151.5082,99.2184
151.5060,99.2207
151.4793,99.2526
151.4433,99.2734
151.4405,99.2751
151.4065,99.2990
151.4065,99.2990
151.4019,99.3002
151.3840,99.3076
151.3798,99.3100
151.3798,99.3100
151.3798,99.3100
151.3798,99.3100
151.3389,99.3172
151.3358,99.3179
151.2956,99.3287
151.2542,99.3250
151.2510,99.3249
150.0000,99.3249
149.9525,99.3422
149.9272,99.3860
149.9275,99.4133
149.9307,99.4297
149.9307,99.8691
149.9278,99.8835
149.9191,99.9276
149.8932,99.9663
149.8748,99.9940
149.8598,100.0040
149.8298,100.0448
149.8283,100.0799
149.8302,100.0896
149.8302,100.1744
148.3802,100.1744
148.3802,100.0895
148.3821,100.0799
148.3744,100.0299
148.3506,100.0040
148.3356,99.9940
148.3356,99.9940
148.3296,99.9899
148.3282,99.9919
148.2924,99.9752
148.2859,99.9749
148.2046,99.9749
148.2014,99.9750
148.1753,99.9773
148.1600,99.9787
148.1600,99.9787
148.1600,99.9787
148.1198,99.9679
148.1167,99.9672
148.0758,99.9600
148.0716,99.9576
148.0537,99.9502
148.0491,99.9490
148.0151,99.9251
148.0123,99.9234
147.9763,99.9026
147.9496,99.8707
147.9475,99.8684
146.2120,98.1329
146.2097,98.1308
146.1974,98.1205
146.1499,98.1032
146.1023,98.1205
146.0770,98.1644
146.0763,98.1850
146.0921,98.3356
146.0775,98.4744
146.0729,98.5186
146.0335,98.6398
146.0353,98.6904
146.0516,98.7150
147.9388,100.6022
147.9846,100.6236
147.9911,100.6239
148.2859,100.6239
148.3291,100.6082
148.3296,100.6089
148.3325,100.6070
148.3335,100.6066
148.3348,100.6054
148.3356,100.6048
148.3356,100.6048
148.3507,100.5948
148.3806,100.5540
148.3821,100.5189
148.3802,100.5092
148.3802,100.4244
149.8302,100.4244
149.8302,100.5092
149.8283,100.5189
149.8360,100.5689
149.8598,100.5948
149.8748,100.6048
149.9191,100.6712
149.9191,100.6712
149.9191,100.6712
149.9307,100.7297
149.9307,101.1691
149.9240,101.2026
149.9191,101.2276
149.9153,101.2333
149.9033,101.2825
149.9153,101.3155
149.9191,101.3212
149.9225,101.3383
149.9307,101.3797
149.9307,101.8191
149.9202,101.8721
149.9191,101.8776
149.9153,101.8833
149.9033,101.9325
149.9153,101.9655
149.9191,101.9712
149.9307,102.0297
149.9307,102.3749
149.9480,102.4225
149.9918,102.4478
150.0047,102.4489
150.8791,102.4489
150.8813,102.4488
150.9316,102.4458
150.9440,102.4450
150.9440,102.4450
150.9440,102.4450
151.0058,102.4564
151.0080,102.4567
151.0281,102.4591
151.0703,102.4643
151.0703,102.4643
151.0840,102.4695
151.0969,102.4731
151.1113,102.4757
151.1686,102.5015
151.1706,102.5023
151.2293,102.5246
151.2414,102.5329
151.2531,102.5395
151.2665,102.5455
151.3159,102.5842
151.3177,102.5856
151.3693,102.6212
151.3693,102.6212
151.4109,102.6682
151.4125,102.6698
153.1336,104.3909
153.1352,104.3924
153.1822,104.4341
153.2178,104.4857
153.2192,104.4875
153.2579,104.5369
153.2639,104.5503
153.2705,104.5620
153.2788,104.5741
153.3011,104.6328
153.3019,104.6348
153.3277,104.6921
153.3303,104.7065
153.3339,104.7194
153.3391,104.7331
153.3391,104.7331
153.3467,104.7954
153.3470,104.7976
153.3584,104.8594
153.3546,104.9221
153.3545,104.9243
153.3545,105.0000
153.3587,105.0245
153.3903,105.1149
153.3903,105.1149
153.4092,105.2830
153.3903,105.4511
153.3903,105.4511
153.3345,105.6107
153.2445,105.7539
153.2445,105.7539
153.2445,105.7539
153.1249,105.8735
153.1249,105.8735
153.1249,105.8735
152.9817,105.9635
152.9817,105.9635
152.8221,106.0193
152.6540,106.0382
152.4859,106.0193
152.3263,105.9635
152.1831,105.8735
152.0635,105.7539
151.9735,105.6107
151.9177,105.4511
151.8988,105.2830
151.9095,105.1876
151.8976,105.1384
151.8883,105.1270
151.2219,104.4606
145.9776,104.4606
145.9721,104.5091
145.9721,104.5092
145.9145,104.6740
145.8216,104.8219
145.6981,104.9454
145.5502,105.0383
145.3853,105.0960
145.3853,105.0960
145.3368,105.1014
145.3368,104.7208
145.2433,104.7356
145.1803,104.7356
145.0868,104.7208
145.0868,105.1014
145.0383,105.0960
144.8734,105.0383
144.7255,104.9454
144.6020,104.8219
144.5091,104.6740
144.4515,104.5092
144.4515,104.5091
144.4460,104.4606
144.8266,104.4606
144.8068,104.3356
144.8266,104.2106
144.4460,104.2106
144.4515,104.1621
144.4515,104.1620
144.5091,103.9972
144.6020,103.8493
144.7255,103.7258
144.8734,103.6329
145.0382,103.5753
145.0383,103.5752
145.0868,103.5698
145.0868,103.9504
145.1803,103.9356
145.2433,103.9356
145.3368,103.9504
145.3368,103.5698
145.3853,103.5752
145.3854,103.5753
145.5502,103.6329
145.6981,103.7258
145.8216,103.8493
145.9145,103.9972
145.9721,104.1620
145.9721,104.1621
145.9776,104.2106
145.5970,104.2106
145.6168,104.3356
145.5970,104.4606
145.9776,104.4606
151.2219,104.4606
150.6329,103.8716
150.5870,103.8502
150.5806,103.8499
149.9437,103.8499
149.8962,103.8672
149.8822,103.8828
149.8748,103.8940
149.8496,103.9107
149.8084,103.9383
149.8084,103.9383
149.8084,103.9383
149.7499,103.9499
149.7499,103.9499
148.4605,103.9499
148.4605,103.9499
148.4020,103.9383
148.3356,103.8940
148.2913,103.8276
148.2797,103.7691
148.2797,103.3297
148.2913,103.2712
148.2913,103.2712
148.2951,103.2655
148.3071,103.2163
148.2951,103.1833
148.2913,103.1776
148.2797,103.1191
148.2797,102.6797
148.2829,102.6633
148.2752,102.6133
148.2372,102.5799
148.2104,102.5749
146.1084,102.5749
146.0608,102.5922
146.0380,102.6260
146.0160,102.6937
145.9240,102.8530
145.9240,102.8530
145.8232,102.9650
145.8138,102.9754
145.8008,102.9898
145.6520,103.0980
145.6520,103.0980
145.4838,103.1728
145.3038,103.2111
145.3038,103.2111
145.1198,103.2111
145.1198,103.2111
144.9398,103.1728
144.7716,103.0980
144.7543,103.0854
144.6228,102.9898
144.6228,102.9898
144.6227,102.9898
144.4996,102.8530
144.4076,102.6937
144.4076,102.6937
144.3723,102.5849
144.3507,102.5186
144.3315,102.3356
144.3507,102.1526
144.3599,102.1244
144.4076,101.9775
144.4996,101.8182
144.4996,101.8182
144.5818,101.7268
144.6227,101.6814
144.6228,101.6814
144.6228,101.6814
144.7716,101.5732
144.7716,101.5732
144.9398,101.4984
144.9398,101.4984
145.0815,101.4682
145.1198,101.4601
145.3038,101.4601
145.3354,101.4668
145.4838,101.4984
145.4838,101.4984
145.6520,101.5732
145.6520,101.5732
145.8008,101.6814
145.8008,101.6814
145.8008,101.6814
145.8121,101.6939
145.9240,101.8182
145.9240,101.8182
145.9637,101.8869
146.0025,101.9194
146.0278,101.9239
146.1611,101.9239
146.2087,101.9066
146.2340,101.8627
146.2252,101.8129
146.2134,101.7976
145.9080,101.4921
145.5924,101.1765
145.5465,101.1551
145.5099,101.1612
145.4838,101.1728
145.4838,101.1728
145.4838,101.1728
145.3038,101.2111
145.3038,101.2111
145.1198,101.2111
145.1198,101.2111
144.9398,101.1728
144.7716,101.0980
144.6227,100.9898
144.4996,100.8530
144.4076,100.6937
144.4065,100.6904
144.3611,100.5506
144.3507,100.5186
144.3315,100.3356
144.3507,100.1526
144.3547,100.1404
144.4076,99.9775
144.4996,99.8182
144.4996,99.8182
144.6228,99.6814
144.7716,99.5732
144.7716,99.5732
144.9398,99.4984
144.9398,99.4984
145.0815,99.4682
145.1198,99.4601
145.3038,99.4601
145.3354,99.4668
145.4838,99.4984
145.4838,99.4984
145.6520,99.5732
145.6520,99.5732
145.8008,99.6814
145.9240,99.8182
145.9240,99.8182
146.0160,99.9775
146.0729,100.1526
146.0729,100.1526
146.0729,100.1526
146.0921,100.3356
146.0750,100.4989
146.0729,100.5186
146.0335,100.6398
146.0353,100.6904
146.0516,100.7150
146.5888,101.2522
146.6346,101.2736
146.6411,101.2739
147.5111,101.2739
147.5587,101.2566
147.5840,101.2127
147.5752,101.1629
147.5634,101.1476
146.5903,100.1744
145.5924,99.1765
145.5465,99.1551
145.5099,99.1612
145.4838,99.1728
145.3038,99.2111
145.3038,99.2111
145.1198,99.2111
145.1198,99.2111
144.9398,99.1728
144.7716,99.0980
144.6227,98.9898
144.4996,98.8530
144.4076,98.6937
144.4015,98.6750
144.3768,98.5989
144.3507,98.5186
144.3315,98.3356
144.3507,98.1526
144.3752,98.0773
144.4076,97.9775
144.4996,97.8182
144.4996,97.8182
144.5879,97.7201
144.6227,97.6814
144.6228,97.6814
144.6228,97.6814
144.7716,97.5732
144.7716,97.5732
144.9398,97.4984
144.9398,97.4984
145.0917,97.4661
145.1198,97.4601
145.3038,97.4601
145.3319,97.4661
145.4838,97.4984
145.4838,97.4984
145.6520,97.5732
145.6520,97.5732
145.8008,97.6814
145.8008,97.6814
145.8008,97.6814
145.8121,97.6939
145.9240,97.8182
145.9240,97.8182
145.9674,97.8934
146.0062,97.9259
146.0568,97.9259
146.0956,97.8934
146.1055,97.8564
146.1055,97.0411
146.0882,96.9935
146.0838,96.9888
145.9906,96.8955
145.9447,96.8741
145.8958,96.8872
145.8832,96.8983
145.8009,96.9898
145.6520,97.0980
145.6520,97.0980
145.4838,97.1728
145.3038,97.2111
145.3038,97.2111
145.1198,97.2111
145.1198,97.2111
144.9398,97.1728
144.7716,97.0980
144.6227,96.9898
144.4996,96.8530
144.4076,96.6937
144.4042,96.6833
144.3611,96.5506
144.3507,96.5186
144.3315,96.3356
144.3507,96.1526
144.3609,96.1212
144.4076,95.9775
144.4996,95.8182
144.4996,95.8182
144.6228,95.6814
144.7716,95.5732
144.7716,95.5732
144.9398,95.4984
144.9398,95.4984
145.0815,95.4682
145.1198,95.4601
145.3038,95.4601
145.3354,95.4668
145.4838,95.4984
145.4838,95.4984
145.6520,95.5732
145.6520,95.5732
145.8008,95.6814
145.9240,95.8182
145.9240,95.8182
146.0160,95.9775
146.0287,96.0164
146.0566,96.0542
146.0647,96.0599
146.0675,96.0616
146.1035,96.0824
146.1035,96.0824
146.1302,96.1142
146.1323,96.1166
146.4872,96.4714
146.5331,96.4928
146.5819,96.4797
146.6110,96.4383
146.6135,96.4191
146.6135,95.2631
146.5962,95.2155
146.5918,95.2108
146.3584,94.9774
146.1057,94.7246
146.0598,94.7032
146.0109,94.7163
145.9893,94.7399
145.9240,94.8530
145.9240,94.8530
145.8008,94.9898
145.6520,95.0980
145.6520,95.0980
145.4838,95.1728
145.3038,95.2111
145.3038,95.2111
145.1198,95.2111
145.1198,95.2111
144.9398,95.1728
144.7716,95.0980
144.7335,95.0703
144.6228,94.9898
144.6228,94.9898
144.6227,94.9898
144.4996,94.8530
144.4076,94.6937
144.3507,94.5186
144.3315,94.3356
144.3507,94.1526
144.3805,94.0608
144.4076,93.9775
144.4996,93.8182
144.4996,93.8182
144.6228,93.6814
144.7716,93.5732
144.7716,93.5732
144.9398,93.4984
144.9398,93.4984
145.0815,93.4682
145.1198,93.4601
145.3038,93.4601
145.3354,93.4668
145.4838,93.4984
145.4838,93.4984
145.6520,93.5732
145.6520,93.5732
145.8008,93.6814
145.9240,93.8182
145.9240,93.8182
146.0135,93.9731
146.0522,94.0056
146.0775,94.0101
146.1612,94.0101
146.1644,94.0100
146.1733,94.0092
146.2058,94.0063
146.2058,94.0063
146.2460,94.0171
146.2491,94.0178
146.2900,94.0250
146.2900,94.0250
146.2942,94.0274
146.3120,94.0348
146.3167,94.0360
146.3167,94.0360
146.3507,94.0599
146.3535,94.0616
146.3895,94.0824
146.3895,94.0824
146.4162,94.1142
146.4184,94.1166
146.9952,94.6934
147.0410,94.7148
147.0899,94.7017
147.1190,94.6603
147.1215,94.6411
147.1215,93.2819
147.1042,93.2343
147.0998,93.2296
146.5530,92.6828
146.5072,92.6614
146.5007,92.6611
146.0775,92.6611
146.0300,92.6784
146.0135,92.6981
145.9240,92.8530
145.9240,92.8530
145.8008,92.9898
145.6520,93.0980
145.6520,93.0980
145.4838,93.1728
145.3038,93.2111
145.3038,93.2111
145.1198,93.2111
145.1198,93.2111
144.9398,93.1728
144.7716,93.0980
144.7593,93.0890
144.6228,92.9898
144.6228,92.9898
144.6227,92.9898
144.4996,92.8530
144.4076,92.6937
144.3971,92.6614
144.3611,92.5506
144.3507,92.5186
144.3315,92.3356
144.3507,92.1526
144.3805,92.0608
144.4076,91.9775
144.4996,91.8182
144.4996,91.8182
144.6228,91.6814
144.7716,91.5732
144.7716,91.5732
144.9398,91.4984
144.9398,91.4984
145.0815,91.4682
145.1198,91.4601
145.3038,91.4601
145.3354,91.4668
145.4838,91.4984
145.4838,91.4984
145.6520,91.5732
145.6520,91.5732
145.8008,91.6814
145.9240,91.8182
145.9240,91.8182
146.0135,91.9731
146.0522,92.0056
146.0775,92.0101
146.6504,92.0101
146.6536,92.0100
146.6625,92.0092
146.6950,92.0063
146.6950,92.0063
146.7352,92.0171
146.7383,92.0178
146.7792,92.0250
146.7792,92.0250
146.7834,92.0274
146.8012,92.0348
146.8059,92.0360
146.8059,92.0360
146.8399,92.0599
146.8427,92.0616
146.8787,92.0824
146.8787,92.0824
146.9054,92.1142
146.9076,92.1166
147.5032,92.7122
147.5490,92.7336
147.5979,92.7205
147.6270,92.6791
147.6295,92.6599
147.6295,91.9103
147.6122,91.8627
147.6078,91.8580
146.4326,90.6828
146.3868,90.6614
146.3803,90.6611
146.1613,90.6611
146.1137,90.6784
146.0884,90.7223
146.0873,90.7351
146.0873,91.0303
146.0850,91.0418
146.0757,91.0888
146.0670,91.1018
146.0314,91.1552
145.9872,91.1846
145.9650,91.1995
145.9650,91.1995
145.9650,91.1995
145.9065,91.2111
145.9065,91.2111
144.5171,91.2111
144.5171,91.2111
144.4586,91.1995
144.3922,91.1552
144.3479,91.0888
144.3363,91.0303
144.3363,89.6409
144.3479,89.5824
144.3922,89.5160
144.4281,89.4921
144.4586,89.4717
144.4586,89.4717
144.4878,89.4659
144.5171,89.4601
145.9065,89.4601
145.9358,89.4659
145.9650,89.4717
146.0314,89.5160
146.0314,89.5160
146.0757,89.5824
146.0873,89.6409
146.0873,89.9361
146.1046,89.9837
146.1484,90.0090
146.1613,90.0101
146.5300,90.0101
146.5332,90.0100
146.5421,90.0092
146.5746,90.0063
146.5746,90.0063
146.6148,90.0171
146.6179,90.0178
146.6588,90.0250
146.6588,90.0250
146.6630,90.0274
146.6808,90.0348
146.6855,90.0360
146.6855,90.0360
146.7195,90.0599
146.7223,90.0616
146.7583,90.0824
146.7583,90.0824
146.7850,90.1142
146.7872,90.1166
148.1740,91.5034
148.1763,91.5056
148.2082,91.5323
148.2082,91.5323
148.2290,91.5683
148.2307,91.5711
148.2546,91.6051
148.2546,91.6051
148.2558,91.6098
148.2632,91.6276
148.2656,91.6318
148.2656,91.6318
148.2728,91.6727
148.2735,91.6758
148.2843,91.7160
148.2843,91.7160
148.2806,91.7574
148.2805,91.7606
148.2805,94.7333
148.2978,94.7809
148.3416,94.8062
148.3915,94.7974
148.4237,94.7596
148.4253,94.7554
148.4289,94.7425
148.4315,94.7281
148.4573,94.6708
148.4581,94.6688
148.4804,94.6101
148.4887,94.5980
148.4953,94.5863
148.4985,94.5793
148.5013,94.5729
148.5400,94.5235
148.5414,94.5217
148.5435,94.5186
148.5770,94.4701
148.6240,94.4284
148.6256,94.4269
148.6377,94.4148
148.6392,94.4132
148.6487,94.4025
148.6661,94.3829
148.6689,94.3793
148.6714,94.3757
148.6748,94.3727
148.6779,94.3696
148.6809,94.3662
148.6809,94.3662
148.6809,94.3662
148.6845,94.3637
148.6881,94.3609
148.7184,94.3340
148.7200,94.3325
149.3131,93.7394
149.3146,93.7378
149.3563,93.6908
149.3699,93.6814
149.4079,93.6552
149.4097,93.6538
149.4591,93.6151
149.4591,93.6151
149.4591,93.6151
149.4725,93.6091
149.4842,93.6025
149.4963,93.5942
149.5550,93.5719
149.5570,93.5711
149.6143,93.5453
149.6287,93.5427
149.6416,93.5391
149.6553,93.5339
149.6553,93.5339
149.6908,93.5296
149.7176,93.5263
149.7198,93.5260
149.7816,93.5146
149.7816,93.5146
149.7885,93.5151
149.8443,93.5184
149.8465,93.5185
150.1752,93.5185
150.2228,93.5012
150.2481,93.4573
150.2393,93.4075
150.2275,93.3922
150.1856,93.3503
150.1390,93.2447
150.1360,93.2188
150.1360,93.0890
151.6160,93.0890
151.6160,93.2188
151.6130,93.2447
151.6130,93.2447
151.5664,93.3503
151.5245,93.3922
151.5031,93.4380
151.5162,93.4869
151.5576,93.5160
151.5768,93.5185
152.3113,93.5185
152.3589,93.5012
152.3842,93.4573
152.3853,93.4445
152.3853,92.8390
151.6160,92.8390
151.0010,92.8390
151.0010,92.4465
150.7510,92.4465
150.7510,92.8390
150.1360,92.8390
150.1360,92.7092
150.1390,92.6833
150.1390,92.6833
150.1856,92.5777
150.2672,92.4961
150.3728,92.4495
150.3987,92.4465
150.7510,92.4465
151.0010,92.4465
151.3533,92.4465
151.3792,92.4495
151.3792,92.4495
151.4848,92.4961
151.5664,92.5777
151.6130,92.6833
151.6160,92.7092
151.6160,92.8390
152.3853,92.8390
152.3853,91.1118
152.3680,91.0643
152.3242,91.0390
152.3006,91.0386
152.2294,91.0490
151.9212,91.0490
151.9212,91.0490
151.9212,90.5490
151.6712,90.5490
151.6712,91.0490
151.3630,91.0490
151.3630,91.0490
151.2950,91.0391
151.1900,90.9878
151.1074,90.9052
151.0561,90.8002
151.0462,90.7322
151.0462,90.7322
151.0462,90.5490
151.6712,90.5490
151.9212,90.5490
152.5578,90.5490
152.5819,90.5602
152.6308,90.5471
152.6407,90.5388
152.8740,90.3055
152.8771,90.2990
152.5462,90.2990
151.9212,90.2990
151.9212,89.7990
151.6712,89.7990
151.6712,90.2990
151.0462,90.2990
151.0462,90.1158
151.0462,90.1158
151.0561,90.0477
151.1074,89.9428
151.1900,89.8602
151.2950,89.8089
151.3630,89.7990
151.6712,89.7990
151.9212,89.7990
152.2294,89.7990
152.2294,89.7990
152.2975,89.8089
152.4024,89.8602
152.4850,89.9428
152.5363,90.0477
152.5462,90.1158
152.5462,90.2990
152.8771,90.2990
152.8954,90.2596
152.8957,90.2532
152.8957,90.0947
152.8957,90.0947
152.8986,90.0643
152.9434,89.9361
152.9994,89.8602
153.0240,89.8269
153.0241,89.8268
153.1333,89.7462
153.1333,89.7462
153.2615,89.7014
153.2615,89.7014
153.2615,89.7014
153.2615,89.7014
153.2919,89.6985
153.2919,89.6985
153.5667,89.6985
153.5887,89.6951
153.5927,89.6939
153.5927,89.6939
153.5927,89.6939
153.5927,89.6939
153.6071,89.6913
153.6200,89.6877
153.6337,89.6825
153.6337,89.6825
153.6692,89.6782
153.6960,89.6749
153.6982,89.6746
153.7600,89.6632
153.7600,89.6632
153.7669,89.6637
153.8227,89.6670
153.8249,89.6671
159.2928,89.6671
159.3363,89.6530
159.4020,89.6052
159.4020,89.6052
159.5702,89.5304
159.5702,89.5304
159.7119,89.5002
159.7502,89.4921
159.9342,89.4921
159.9658,89.4988
160.1142,89.5304
160.1142,89.5304
160.2824,89.6052
160.2824,89.6052
160.4312,89.7134
160.5544,89.8502
160.5544,89.8502
160.6464,90.0095
160.7033,90.1846
160.7225,90.3676
160.7033,90.5506
160.6464,90.7257
160.5544,90.8850
160.5544,90.8850
160.4312,91.0218
160.2824,91.1300
160.2824,91.1300
160.1142,91.2048
159.9342,91.2431
159.9342,91.2431
159.7502,91.2431
159.7502,91.2431
159.5702,91.2048
159.4020,91.1300
159.3771,91.1118
159.3363,91.0822
159.2928,91.0681
154.4291,91.0681
154.3851,91.0826
154.3766,91.0888
154.3591,91.1018
154.3591,91.1018
154.3591,91.1018
154.2309,91.1466
154.2309,91.1466
154.2005,91.1495
154.0420,91.1495
153.9944,91.1668
153.9897,91.1712
153.8080,91.3529
153.7866,91.3988
153.7863,91.4052
153.7863,92.6943
153.8036,92.7418
153.8474,92.7672
153.8973,92.7584
153.9280,92.7242
153.9702,92.6285
154.0518,92.5469
154.1574,92.5003
154.1833,92.4973
154.5356,92.4973
154.5356,93.0658
154.5529,93.1134
154.5967,93.1387
154.6096,93.1398
155.4006,93.1398
155.4006,93.2696
155.3976,93.2955
155.3976,93.2955
155.3510,93.4011
155.2694,93.4827
155.1789,93.5226
155.1424,93.5577
155.1370,93.6080
155.1651,93.6500
155.1972,93.6634
155.2199,93.6670
155.3354,93.7258
155.4271,93.8175
155.4417,93.8462
155.4787,93.8807
155.5293,93.8834
155.5599,93.8649
156.5351,92.8898
155.4006,92.8898
154.7856,92.8898
154.7856,92.4973
155.1379,92.4973
155.1638,92.5003
155.1638,92.5003
155.2694,92.5469
155.3510,92.6285
155.3976,92.7341
155.4006,92.7600
155.4006,92.8898
156.5351,92.8898
157.2762,92.1486
157.2784,92.1463
157.2812,92.1429
157.3051,92.1144
157.3225,92.1044
157.3411,92.0936
157.3439,92.0919
157.3779,92.0680
157.3779,92.0680
157.3826,92.0668
157.4004,92.0594
157.4046,92.0570
157.4455,92.0498
157.4486,92.0491
157.4888,92.0383
157.4888,92.0383
157.5218,92.0412
157.5302,92.0420
157.5334,92.0421
158.9765,92.0421
159.0240,92.0248
159.0405,92.0051
159.1300,91.8502
159.1300,91.8502
159.2532,91.7134
159.4020,91.6052
159.4020,91.6052
159.5702,91.5304
159.5702,91.5304
159.7207,91.4984
159.7502,91.4921
159.9342,91.4921
159.9637,91.4984
160.1142,91.5304
160.1142,91.5304
160.2824,91.6052
160.2824,91.6052
160.4312,91.7134
160.5544,91.8502
160.5544,91.8502
160.6464,92.0095
160.7033,92.1846
160.7033,92.1846
160.7033,92.1846
160.7225,92.3676
161.8737,92.3676
161.8737,88.7205
161.8564,88.6729
161.8125,88.6476
161.7997,88.6465
142.9495,88.6465
Z" /> 
</g>
</g>
</g> 
</svg>
