<?xml version="1.0" standalone="no"?>
 <!DOCTYPE svg PUBLIC "-//W3C//DTD SVG 1.1//EN" 
 "http://www.w3.org/Graphics/SVG/1.1/DTD/svg11.dtd"> 
<svg
  xmlns:svg="http://www.w3.org/2000/svg"
  xmlns="http://www.w3.org/2000/svg"
  xmlns:xlink="http://www.w3.org/1999/xlink"
  version="1.1"
  width="297.0022mm" height="210.0072mm" viewBox="0.0000 0.0000 297.0022 210.0072">
<title>SVG Image created as puente H-F_Cu.svg date 2023/08/29 18:20:54 </title>
  <desc>Image generated by PCBNEW </desc>
<g style="fill:#000000; fill-opacity:1.0000;stroke:#000000; stroke-opacity:1.0000;
stroke-linecap:round; stroke-linejoin:round;"
 transform="translate(0 0) scale(1 1)">
</g>
<g style="fill:#000000; fill-opacity:0.0; 
stroke:#000000; stroke-width:0.0000; stroke-opacity:1; 
stroke-linecap:round; stroke-linejoin:round;">
<g >
</g>
<g style="fill:#000000; fill-opacity:0.0; 
stroke:#000000; stroke-width:0.0000; stroke-opacity:1; 
stroke-linecap:round; stroke-linejoin:round;">
</g>
<g style="fill:#000000; fill-opacity:1.0000; 
stroke:#000000; stroke-width:0.0000; stroke-opacity:1; 
stroke-linecap:round; stroke-linejoin:round;">
<path style="fill:#000000; fill-opacity:1.0000; 
stroke:#000000; stroke-width:0.0000; stroke-opacity:1; 
stroke-linecap:round; stroke-linejoin:round;fill-rule:evenodd;"
d="M 154.5222,87.6450
154.5032,87.5493
154.4490,87.4682
154.3679,87.4140
154.2722,87.3950
153.2722,87.3950
153.1765,87.4140
153.0954,87.4682
153.0412,87.5493
153.0222,87.6450
153.0222,89.4950
153.0412,89.5907
153.0954,89.6718
153.1765,89.7260
153.2722,89.7450
154.2722,89.7450
154.3679,89.7260
154.4490,89.6718
154.5032,89.5907
154.5222,89.4950
Z" /> 
<path style="fill:#000000; fill-opacity:1.0000; 
stroke:#000000; stroke-width:0.0000; stroke-opacity:1; 
stroke-linecap:round; stroke-linejoin:round;fill-rule:evenodd;"
d="M 151.2722,87.6450
151.2532,87.5493
151.1990,87.4682
151.1179,87.4140
151.0222,87.3950
150.0222,87.3950
149.9265,87.4140
149.8454,87.4682
149.7912,87.5493
149.7722,87.6450
149.7722,89.4950
149.7912,89.5907
149.8454,89.6718
149.9265,89.7260
150.0222,89.7450
151.0222,89.7450
151.1179,89.7260
151.1990,89.6718
151.2532,89.5907
151.2722,89.4950
Z" /> 
</g>
<g >
</g>
<g style="fill:#000000; fill-opacity:1.0000; 
stroke:#000000; stroke-width:0.0000; stroke-opacity:1; 
stroke-linecap:round; stroke-linejoin:round;">
</g>
<g style="fill:#000000; fill-opacity:1.0000; 
stroke:#000000; stroke-width:1.7500; stroke-opacity:1; 
stroke-linecap:round; stroke-linejoin:round;">
</g>
<g style="fill:#000000; fill-opacity:0.0; 
stroke:#000000; stroke-width:1.7500; stroke-opacity:1; 
stroke-linecap:round; stroke-linejoin:round;">
<path d="M148.7912 105.5300
L149.0732 105.5300
" />
</g>
<g >
</g>
<g >
</g>
<g style="fill:#000000; fill-opacity:0.0; 
stroke:#000000; stroke-width:1.7500; stroke-opacity:1; 
stroke-linecap:round; stroke-linejoin:round;">
</g>
<g style="fill:#000000; fill-opacity:0.0; 
stroke:#000000; stroke-width:0.0000; stroke-opacity:1; 
stroke-linecap:round; stroke-linejoin:round;">
</g>
<g style="fill:#000000; fill-opacity:1.0000; 
stroke:#000000; stroke-width:0.0000; stroke-opacity:1; 
stroke-linecap:round; stroke-linejoin:round;">
<path style="fill:#000000; fill-opacity:1.0000; 
stroke:#000000; stroke-width:0.0000; stroke-opacity:1; 
stroke-linecap:round; stroke-linejoin:round;fill-rule:evenodd;"
d="M 151.8881,91.3588
151.8722,91.2789
151.8270,91.2111
151.7592,91.1659
151.6793,91.1500
151.2618,91.1500
151.1820,91.1659
151.1142,91.2111
151.0690,91.2789
151.0531,91.3588
151.0531,92.2212
151.0690,92.3011
151.1142,92.3689
151.1820,92.4141
151.2618,92.4300
151.6793,92.4300
151.7592,92.4141
151.8270,92.3689
151.8722,92.3011
151.8881,92.2212
Z" /> 
<path style="fill:#000000; fill-opacity:1.0000; 
stroke:#000000; stroke-width:0.0000; stroke-opacity:1; 
stroke-linecap:round; stroke-linejoin:round;fill-rule:evenodd;"
d="M 150.6331,91.3588
150.6172,91.2789
150.5720,91.2111
150.5042,91.1659
150.4244,91.1500
150.0068,91.1500
149.9270,91.1659
149.8592,91.2111
149.8140,91.2789
149.7981,91.3588
149.7981,92.2212
149.8140,92.3011
149.8592,92.3689
149.9270,92.4141
150.0068,92.4300
150.4244,92.4300
150.5042,92.4141
150.5720,92.3689
150.6172,92.3011
150.6331,92.2212
Z" /> 
</g>
<g >
</g>
<g style="fill:#000000; fill-opacity:1.0000; 
stroke:#000000; stroke-width:0.0000; stroke-opacity:1; 
stroke-linecap:round; stroke-linejoin:round;">
</g>
<g style="fill:#000000; fill-opacity:1.0000; 
stroke:#000000; stroke-width:1.7500; stroke-opacity:1; 
stroke-linecap:round; stroke-linejoin:round;">
</g>
<g style="fill:#000000; fill-opacity:0.0; 
stroke:#000000; stroke-width:1.7500; stroke-opacity:1; 
stroke-linecap:round; stroke-linejoin:round;">
<path d="M148.7912 93.4300
L149.0732 93.4300
" />
</g>
<g >
</g>
<g style="fill:#000000; fill-opacity:0.0; 
stroke:#000000; stroke-width:1.7500; stroke-opacity:1; 
stroke-linecap:round; stroke-linejoin:round;">
</g>
<g style="fill:#000000; fill-opacity:0.0; 
stroke:#000000; stroke-width:0.0000; stroke-opacity:1; 
stroke-linecap:round; stroke-linejoin:round;">
</g>
<g style="fill:#000000; fill-opacity:1.0000; 
stroke:#000000; stroke-width:0.0000; stroke-opacity:1; 
stroke-linecap:round; stroke-linejoin:round;">
<path style="fill:#000000; fill-opacity:1.0000; 
stroke:#000000; stroke-width:0.0000; stroke-opacity:1; 
stroke-linecap:round; stroke-linejoin:round;fill-rule:evenodd;"
d="M 145.3642,88.7082
145.3642,86.9582
143.3322,86.9582
143.3322,88.7082
Z" /> 
</g>
<g style="fill:#000000; fill-opacity:1.0000; 
stroke:#000000; stroke-width:1.7500; stroke-opacity:1; 
stroke-linecap:round; stroke-linejoin:round;">
</g>
<g style="fill:#000000; fill-opacity:0.0; 
stroke:#000000; stroke-width:1.7500; stroke-opacity:1; 
stroke-linecap:round; stroke-linejoin:round;">
<path d="M144.4892 90.3732
L144.2072 90.3732
" />
<path d="M144.4892 92.9132
L144.2072 92.9132
" />
<path d="M144.4892 95.4532
L144.2072 95.4532
" />
<path d="M144.4892 97.9932
L144.2072 97.9932
" />
<path d="M144.4892 100.5332
L144.2072 100.5332
" />
<path d="M144.4892 103.0732
L144.2072 103.0732
" />
<path d="M144.4892 105.6132
L144.2072 105.6132
" />
</g>
<g >
</g>
<g style="fill:#000000; fill-opacity:0.0; 
stroke:#000000; stroke-width:1.7500; stroke-opacity:1; 
stroke-linecap:round; stroke-linejoin:round;">
</g>
<g style="fill:#000000; fill-opacity:0.0; 
stroke:#000000; stroke-width:0.0000; stroke-opacity:1; 
stroke-linecap:round; stroke-linejoin:round;">
</g>
<g style="fill:#000000; fill-opacity:1.0000; 
stroke:#000000; stroke-width:0.0000; stroke-opacity:1; 
stroke-linecap:round; stroke-linejoin:round;">
<path style="fill:#000000; fill-opacity:1.0000; 
stroke:#000000; stroke-width:0.0000; stroke-opacity:1; 
stroke-linecap:round; stroke-linejoin:round;fill-rule:evenodd;"
d="M 159.3850,104.8144
159.3850,106.5644
161.4170,106.5644
161.4170,104.8144
Z" /> 
</g>
<g style="fill:#000000; fill-opacity:1.0000; 
stroke:#000000; stroke-width:1.7500; stroke-opacity:1; 
stroke-linecap:round; stroke-linejoin:round;">
</g>
<g style="fill:#000000; fill-opacity:0.0; 
stroke:#000000; stroke-width:1.7500; stroke-opacity:1; 
stroke-linecap:round; stroke-linejoin:round;">
<path d="M160.2600 103.1494
L160.5420 103.1494
" />
<path d="M160.2600 100.6094
L160.5420 100.6094
" />
<path d="M160.2600 98.0694
L160.5420 98.0694
" />
<path d="M160.2600 95.5294
L160.5420 95.5294
" />
<path d="M160.2600 92.9894
L160.5420 92.9894
" />
<path d="M160.2600 90.4494
L160.5420 90.4494
" />
<path d="M160.2600 87.9094
L160.5420 87.9094
" />
</g>
<g >
</g>
<g style="fill:#000000; fill-opacity:0.0; 
stroke:#000000; stroke-width:1.7500; stroke-opacity:1; 
stroke-linecap:round; stroke-linejoin:round;">
</g>
<g style="fill:#000000; fill-opacity:0.0; 
stroke:#000000; stroke-width:0.0000; stroke-opacity:1; 
stroke-linecap:round; stroke-linejoin:round;">
</g>
<g style="fill:#000000; fill-opacity:1.0000; 
stroke:#000000; stroke-width:0.0000; stroke-opacity:1; 
stroke-linecap:round; stroke-linejoin:round;">
<path style="fill:#000000; fill-opacity:1.0000; 
stroke:#000000; stroke-width:0.0000; stroke-opacity:1; 
stroke-linecap:round; stroke-linejoin:round;fill-rule:evenodd;"
d="M 156.5484,95.5136
155.2984,95.5136
155.2984,95.9136
156.5484,95.9136
Z" /> 
<path style="fill:#000000; fill-opacity:1.0000; 
stroke:#000000; stroke-width:0.0000; stroke-opacity:1; 
stroke-linecap:round; stroke-linejoin:round;fill-rule:evenodd;"
d="M 156.5484,96.1636
155.2984,96.1636
155.2984,96.5636
156.5484,96.5636
Z" /> 
<path style="fill:#000000; fill-opacity:1.0000; 
stroke:#000000; stroke-width:0.0000; stroke-opacity:1; 
stroke-linecap:round; stroke-linejoin:round;fill-rule:evenodd;"
d="M 156.5484,96.8136
155.2984,96.8136
155.2984,97.2136
156.5484,97.2136
Z" /> 
<path style="fill:#000000; fill-opacity:1.0000; 
stroke:#000000; stroke-width:0.0000; stroke-opacity:1; 
stroke-linecap:round; stroke-linejoin:round;fill-rule:evenodd;"
d="M 156.5484,97.4636
155.2984,97.4636
155.2984,97.8636
156.5484,97.8636
Z" /> 
<path style="fill:#000000; fill-opacity:1.0000; 
stroke:#000000; stroke-width:0.0000; stroke-opacity:1; 
stroke-linecap:round; stroke-linejoin:round;fill-rule:evenodd;"
d="M 156.5484,98.1136
155.2984,98.1136
155.2984,98.5136
156.5484,98.5136
Z" /> 
<path style="fill:#000000; fill-opacity:1.0000; 
stroke:#000000; stroke-width:0.0000; stroke-opacity:1; 
stroke-linecap:round; stroke-linejoin:round;fill-rule:evenodd;"
d="M 156.5484,98.7636
155.2984,98.7636
155.2984,99.1636
156.5484,99.1636
Z" /> 
<path style="fill:#000000; fill-opacity:1.0000; 
stroke:#000000; stroke-width:0.0000; stroke-opacity:1; 
stroke-linecap:round; stroke-linejoin:round;fill-rule:evenodd;"
d="M 156.5484,99.4136
155.2984,99.4136
155.2984,99.8136
156.5484,99.8136
Z" /> 
<path style="fill:#000000; fill-opacity:1.0000; 
stroke:#000000; stroke-width:0.0000; stroke-opacity:1; 
stroke-linecap:round; stroke-linejoin:round;fill-rule:evenodd;"
d="M 156.5484,100.0636
155.2984,100.0636
155.2984,100.4636
156.5484,100.4636
Z" /> 
<path style="fill:#000000; fill-opacity:1.0000; 
stroke:#000000; stroke-width:0.0000; stroke-opacity:1; 
stroke-linecap:round; stroke-linejoin:round;fill-rule:evenodd;"
d="M 156.5484,100.7136
155.2984,100.7136
155.2984,101.1136
156.5484,101.1136
Z" /> 
<path style="fill:#000000; fill-opacity:1.0000; 
stroke:#000000; stroke-width:0.0000; stroke-opacity:1; 
stroke-linecap:round; stroke-linejoin:round;fill-rule:evenodd;"
d="M 156.5484,101.3636
155.2984,101.3636
155.2984,101.7636
156.5484,101.7636
Z" /> 
<path style="fill:#000000; fill-opacity:1.0000; 
stroke:#000000; stroke-width:0.0000; stroke-opacity:1; 
stroke-linecap:round; stroke-linejoin:round;fill-rule:evenodd;"
d="M 156.5484,102.0136
155.2984,102.0136
155.2984,102.4136
156.5484,102.4136
Z" /> 
<path style="fill:#000000; fill-opacity:1.0000; 
stroke:#000000; stroke-width:0.0000; stroke-opacity:1; 
stroke-linecap:round; stroke-linejoin:round;fill-rule:evenodd;"
d="M 156.5484,102.6636
155.2984,102.6636
155.2984,103.0636
156.5484,103.0636
Z" /> 
<path style="fill:#000000; fill-opacity:1.0000; 
stroke:#000000; stroke-width:0.0000; stroke-opacity:1; 
stroke-linecap:round; stroke-linejoin:round;fill-rule:evenodd;"
d="M 149.2984,102.6636
148.0484,102.6636
148.0484,103.0636
149.2984,103.0636
Z" /> 
<path style="fill:#000000; fill-opacity:1.0000; 
stroke:#000000; stroke-width:0.0000; stroke-opacity:1; 
stroke-linecap:round; stroke-linejoin:round;fill-rule:evenodd;"
d="M 149.2984,102.0136
148.0484,102.0136
148.0484,102.4136
149.2984,102.4136
Z" /> 
<path style="fill:#000000; fill-opacity:1.0000; 
stroke:#000000; stroke-width:0.0000; stroke-opacity:1; 
stroke-linecap:round; stroke-linejoin:round;fill-rule:evenodd;"
d="M 149.2984,101.3636
148.0484,101.3636
148.0484,101.7636
149.2984,101.7636
Z" /> 
<path style="fill:#000000; fill-opacity:1.0000; 
stroke:#000000; stroke-width:0.0000; stroke-opacity:1; 
stroke-linecap:round; stroke-linejoin:round;fill-rule:evenodd;"
d="M 149.2984,100.7136
148.0484,100.7136
148.0484,101.1136
149.2984,101.1136
Z" /> 
<path style="fill:#000000; fill-opacity:1.0000; 
stroke:#000000; stroke-width:0.0000; stroke-opacity:1; 
stroke-linecap:round; stroke-linejoin:round;fill-rule:evenodd;"
d="M 149.2984,100.0636
148.0484,100.0636
148.0484,100.4636
149.2984,100.4636
Z" /> 
<path style="fill:#000000; fill-opacity:1.0000; 
stroke:#000000; stroke-width:0.0000; stroke-opacity:1; 
stroke-linecap:round; stroke-linejoin:round;fill-rule:evenodd;"
d="M 149.2984,99.4136
148.0484,99.4136
148.0484,99.8136
149.2984,99.8136
Z" /> 
<path style="fill:#000000; fill-opacity:1.0000; 
stroke:#000000; stroke-width:0.0000; stroke-opacity:1; 
stroke-linecap:round; stroke-linejoin:round;fill-rule:evenodd;"
d="M 149.2984,98.7636
148.0484,98.7636
148.0484,99.1636
149.2984,99.1636
Z" /> 
<path style="fill:#000000; fill-opacity:1.0000; 
stroke:#000000; stroke-width:0.0000; stroke-opacity:1; 
stroke-linecap:round; stroke-linejoin:round;fill-rule:evenodd;"
d="M 149.2984,98.1136
148.0484,98.1136
148.0484,98.5136
149.2984,98.5136
Z" /> 
<path style="fill:#000000; fill-opacity:1.0000; 
stroke:#000000; stroke-width:0.0000; stroke-opacity:1; 
stroke-linecap:round; stroke-linejoin:round;fill-rule:evenodd;"
d="M 149.2984,97.4636
148.0484,97.4636
148.0484,97.8636
149.2984,97.8636
Z" /> 
<path style="fill:#000000; fill-opacity:1.0000; 
stroke:#000000; stroke-width:0.0000; stroke-opacity:1; 
stroke-linecap:round; stroke-linejoin:round;fill-rule:evenodd;"
d="M 149.2984,96.8136
148.0484,96.8136
148.0484,97.2136
149.2984,97.2136
Z" /> 
<path style="fill:#000000; fill-opacity:1.0000; 
stroke:#000000; stroke-width:0.0000; stroke-opacity:1; 
stroke-linecap:round; stroke-linejoin:round;fill-rule:evenodd;"
d="M 149.2984,96.1636
148.0484,96.1636
148.0484,96.5636
149.2984,96.5636
Z" /> 
<path style="fill:#000000; fill-opacity:1.0000; 
stroke:#000000; stroke-width:0.0000; stroke-opacity:1; 
stroke-linecap:round; stroke-linejoin:round;fill-rule:evenodd;"
d="M 149.2984,95.5136
148.0484,95.5136
148.0484,95.9136
149.2984,95.9136
Z" /> 
</g>
<g >
</g>
<g style="fill:#000000; fill-opacity:1.0000; 
stroke:#000000; stroke-width:0.0000; stroke-opacity:1; 
stroke-linecap:round; stroke-linejoin:round;">
<path style="fill:#000000; fill-opacity:1.0000; 
stroke:#000000; stroke-width:0.0000; stroke-opacity:1; 
stroke-linecap:round; stroke-linejoin:round;fill-rule:evenodd;"
d="M 154.6567,91.3087
154.6408,91.2289
154.5956,91.1611
154.5278,91.1159
154.4479,91.1000
154.0305,91.1000
153.9506,91.1159
153.8828,91.1611
153.8376,91.2289
153.8217,91.3087
153.8217,92.1713
153.8376,92.2511
153.8828,92.3189
153.9506,92.3641
154.0305,92.3800
154.4479,92.3800
154.5278,92.3641
154.5956,92.3189
154.6408,92.2511
154.6567,92.1713
Z" /> 
<path style="fill:#000000; fill-opacity:1.0000; 
stroke:#000000; stroke-width:0.0000; stroke-opacity:1; 
stroke-linecap:round; stroke-linejoin:round;fill-rule:evenodd;"
d="M 153.4017,91.3087
153.3858,91.2289
153.3406,91.1611
153.2728,91.1159
153.1929,91.1000
152.7755,91.1000
152.6956,91.1159
152.6278,91.1611
152.5826,91.2289
152.5667,91.3087
152.5667,92.1713
152.5826,92.2511
152.6278,92.3189
152.6956,92.3641
152.7755,92.3800
153.1929,92.3800
153.2728,92.3641
153.3406,92.3189
153.3858,92.2511
153.4017,92.1713
Z" /> 
</g>
<g >
</g>
<g >
</g>
<g style="fill:#000000; fill-opacity:1.0000; 
stroke:#000000; stroke-width:0.0000; stroke-opacity:1; 
stroke-linecap:round; stroke-linejoin:round;">
</g>
<g style="fill:#000000; fill-opacity:1.0000; 
stroke:#000000; stroke-width:0.7000; stroke-opacity:1; 
stroke-linecap:round; stroke-linejoin:round;">
</g>
<g style="fill:#000000; fill-opacity:0.0; 
stroke:#000000; stroke-width:0.7000; stroke-opacity:1; 
stroke-linecap:round; stroke-linejoin:round;">
<path d="M149.8422 99.6250
L148.6204 99.6250
" />
</g>
<g style="fill:#000000; fill-opacity:0.0; 
stroke:#000000; stroke-width:1.0000; stroke-opacity:1; 
stroke-linecap:round; stroke-linejoin:round;">
<path d="M156.1900 97.3500
L154.7022 97.3500
" />
<path d="M154.7022 97.3500
L154.6772 97.3750
" />
<path d="M155.9650 101.3000
L154.5522 101.3000
" />
</g>
<g style="fill:#000000; fill-opacity:0.0; 
stroke:#000000; stroke-width:0.7000; stroke-opacity:1; 
stroke-linecap:round; stroke-linejoin:round;">
<path d="M158.3828 90.4494
L157.1822 91.6500
" />
<path d="M154.4526 91.6500
L154.3009 91.8017
" />
<path d="M160.4010 90.4494
L158.3828 90.4494
" />
<path d="M154.2796 93.9292
L149.8952 98.3136
" />
<path d="M157.1822 91.6500
L154.4526 91.6500
" />
<path d="M149.8952 98.3136
L148.6734 98.3136
" />
<path d="M154.2796 91.8230
L154.3009 91.8017
" />
<path d="M154.2796 93.9292
L154.2796 91.8230
" />
</g>
<g style="fill:#000000; fill-opacity:0.0; 
stroke:#000000; stroke-width:1.0000; stroke-opacity:1; 
stroke-linecap:round; stroke-linejoin:round;">
<path d="M153.7722 88.5700
L153.7722 89.3100
" />
<path d="M148.9022 102.6924
L148.6734 102.4636
" />
<path d="M148.9322 93.4300
L148.6734 93.6888
" />
<path d="M148.9022 105.5000
L148.9022 102.6924
" />
<path d="M149.1722 105.5000
L149.1422 105.5300
" />
<path d="M152.4022 89.9600
L151.4706 90.8916
" />
<path d="M160.4010 87.9094
L156.6328 87.9094
" />
<path d="M148.6734 93.6888
L148.6734 95.4636
" />
<path d="M149.1422 105.5300
L148.9322 105.5300
" />
<path d="M151.4706 90.8916
L151.4706 92.9738
" />
<path d="M148.9322 105.5300
L148.9022 105.5000
" />
<path d="M155.9722 88.5700
L153.7722 88.5700
" />
<path d="M151.4706 92.9738
L151.0144 93.4300
" />
<path d="M153.7722 89.3100
L153.1222 89.9600
" />
<path d="M156.6328 87.9094
L155.9722 88.5700
" />
<path d="M151.0144 93.4300
L148.9322 93.4300
" />
<path d="M153.1222 89.9600
L152.4022 89.9600
" />
<path d="M160.4010 95.5294
L159.8930 96.0374
" />
<path d="M159.8930 96.0374
L155.9052 96.0374
" />
<path d="M160.4010 98.0694
L159.7568 98.7136
" />
<path d="M159.7568 98.7136
L155.6766 98.7136
" />
<path d="M157.2092 99.9744
L155.6512 99.9744
" />
<path d="M160.3756 100.6348
L157.8696 100.6348
" />
<path d="M157.8696 100.6348
L157.2092 99.9744
" />
<path d="M160.4010 100.6094
L160.3756 100.6348
" />
<path d="M160.4010 103.1494
L159.8422 102.5906
" />
<path d="M159.8422 102.5906
L155.8036 102.5906
" />
</g>
<g style="fill:#000000; fill-opacity:0.0; 
stroke:#000000; stroke-width:0.2500; stroke-opacity:1; 
stroke-linecap:round; stroke-linejoin:round;">
<path d="M147.4276 101.5746
L145.9290 103.0732
" />
<path d="M148.6734 101.5636
L148.6624 101.5746
" />
<path d="M145.9290 103.0732
L144.3482 103.0732
" />
<path d="M148.6624 101.5746
L147.4276 101.5746
" />
<path d="M148.6734 100.9136
L148.6370 100.9500
" />
<path d="M148.6370 100.9500
L144.7650 100.9500
" />
<path d="M144.7650 100.9500
L144.3482 100.5332
" />
<path d="M148.6734 100.2636
L147.9158 100.2636
" />
<path d="M147.9158 100.2636
L145.6454 97.9932
" />
<path d="M145.6454 97.9932
L144.3482 97.9932
" />
<path d="M144.3554 95.4532
L144.3482 95.4532
" />
<path d="M147.8658 98.9636
L144.3554 95.4532
" />
<path d="M148.6734 98.9636
L147.8658 98.9636
" />
<path d="M148.6734 97.6636
L147.5158 97.6636
" />
<path d="M145.5654 92.9132
L144.3482 92.9132
" />
<path d="M147.5158 97.6636
L145.9992 96.1470
" />
<path d="M145.9992 96.1470
L145.9992 93.3470
" />
<path d="M145.9992 93.3470
L145.5654 92.9132
" />
<path d="M148.6734 97.0136
L147.8120 97.0136
" />
<path d="M147.8120 97.0136
L146.7522 95.9538
" />
<path d="M146.7522 91.1750
L145.9504 90.3732
" />
<path d="M145.9504 90.3732
L144.3482 90.3732
" />
<path d="M146.7522 95.9538
L146.7522 91.1750
" />
<path d="M147.4724 95.9702
L147.4724 89.0202
" />
<path d="M147.8658 96.3636
L147.4724 95.9702
" />
<path d="M148.6734 96.3636
L147.8658 96.3636
" />
<path d="M147.4724 89.0202
L146.2854 87.8332
" />
<path d="M146.2854 87.8332
L144.3482 87.8332
" />
</g>
<g >
</g>
<g style="fill:#000000; fill-opacity:0.0; 
stroke:#000000; stroke-width:0.2500; stroke-opacity:1; 
stroke-linecap:round; stroke-linejoin:round;">
<g >
</g>
<g style="fill:#000000; fill-opacity:1.0000; 
stroke:#000000; stroke-width:0.0000; stroke-opacity:1; 
stroke-linecap:round; stroke-linejoin:round;">
<path style="fill:#000000; fill-opacity:1.0000; 
stroke:#000000; stroke-width:0.0000; stroke-opacity:1; 
stroke-linecap:round; stroke-linejoin:round;fill-rule:evenodd;"
d="M 152.7912,91.5097
152.7454,91.5625
152.7342,91.6140
152.7342,92.8800
152.7182,92.8800
152.6468,92.8735
152.4824,92.8223
152.3593,92.7478
152.2917,92.7300
152.2252,92.7515
152.1809,92.8056
152.1711,92.8540
152.1711,92.9507
152.1712,92.9545
152.1750,93.0164
152.1750,93.0164
152.1638,93.0774
152.1632,93.0811
152.1557,93.1426
152.1557,93.1426
152.1521,93.1521
152.1461,93.1737
152.1443,93.1837
152.1188,93.2403
152.1174,93.2437
152.0954,93.3017
152.0908,93.3084
152.0897,93.3100
152.0786,93.3296
152.0745,93.3388
152.0745,93.3388
152.0362,93.3876
152.0340,93.3907
151.9988,93.4417
151.9988,93.4417
151.9988,93.4417
151.9523,93.4828
151.9497,93.4854
151.5260,93.9091
151.5234,93.9117
151.4823,93.9582
151.4420,93.9860
151.4313,93.9934
151.4282,93.9956
151.4019,94.0163
151.3794,94.0339
151.3725,94.0370
151.3702,94.0380
151.3506,94.0491
151.3423,94.0548
151.2843,94.0768
151.2809,94.0782
151.2336,94.0995
151.2243,94.1037
151.2243,94.1037
151.2243,94.1037
151.2143,94.1055
151.1927,94.1115
151.1896,94.1127
151.1832,94.1151
151.1381,94.1206
151.1217,94.1226
151.1180,94.1232
151.0570,94.1344
151.0016,94.1310
150.9951,94.1306
150.9913,94.1305
149.9467,94.1305
149.8797,94.1502
149.8611,94.1648
149.7411,94.2792
149.5879,94.3777
149.5683,94.3903
149.4518,94.4369
149.3969,94.4801
149.3740,94.5461
149.3739,94.5520
149.3739,95.2566
149.3936,95.3237
149.4290,95.3597
149.4430,95.3690
149.4873,95.4354
149.4873,95.4354
149.4989,95.4938
149.4989,95.9334
149.4849,96.0038
149.4862,96.0041
149.4801,96.0606
149.4871,96.0845
149.4989,96.1438
149.4989,96.5834
149.4849,96.6538
149.4862,96.6541
149.4801,96.7106
149.4871,96.7345
149.4989,96.7938
149.4989,97.2334
149.4849,97.3038
149.4862,97.3041
149.4801,97.3606
149.4871,97.3845
149.4989,97.4438
149.4989,97.6320
149.5186,97.6991
149.5714,97.7448
149.6405,97.7548
149.7041,97.7257
149.7106,97.7197
153.6928,93.7375
153.7263,93.6762
153.7291,93.6498
153.7291,92.8952
153.7094,92.8281
153.6566,92.7824
153.5875,92.7724
153.5409,92.7891
153.4860,92.8223
153.4860,92.8223
153.3216,92.8735
153.3216,92.8735
153.2502,92.8800
153.2342,92.8800
153.2342,91.6140
153.2145,91.5470
153.1617,91.5012
153.1102,91.4900
152.8582,91.4900
Z" /> 
<path style="fill:#000000; fill-opacity:1.0000; 
stroke:#000000; stroke-width:0.0000; stroke-opacity:1; 
stroke-linecap:round; stroke-linejoin:round;fill-rule:evenodd;"
d="M 142.4342,86.3802
142.3884,86.4330
142.3772,86.4845
142.3772,107.2413
142.3969,107.3083
142.4497,107.3541
142.5012,107.3653
162.2532,107.3653
162.3202,107.3456
162.3660,107.2928
162.3772,107.2413
162.3772,106.6122
161.9170,106.6122
161.9106,106.6718
161.9106,106.6718
161.8604,106.8065
161.8604,106.8065
161.7742,106.9216
161.7742,106.9216
161.6591,107.0078
161.6591,107.0078
161.5244,107.0580
161.5244,107.0580
161.4648,107.0644
161.4648,107.0644
160.6510,107.0644
160.6510,106.0051
160.6390,106.0170
160.5261,106.0746
160.4325,106.0894
160.3695,106.0894
160.2759,106.0746
160.1630,106.0170
160.1510,106.0051
160.1510,107.0644
159.3372,107.0644
159.3372,107.0644
159.2776,107.0580
159.2776,107.0580
159.1429,107.0078
159.1429,107.0078
159.0278,106.9216
159.0278,106.9216
158.9416,106.8065
158.9416,106.8065
158.8914,106.6718
158.8914,106.6718
158.8850,106.6122
158.8850,106.6122
158.8850,105.9394
160.0853,105.9394
160.0734,105.9274
160.0158,105.8145
159.9960,105.6894
160.0158,105.5643
160.0734,105.4514
160.0853,105.4394
158.8850,105.4394
158.8850,104.7666
158.8850,104.7666
158.8914,104.7070
158.8914,104.7070
158.9416,104.5723
158.9416,104.5723
159.0278,104.4572
159.0278,104.4572
159.1429,104.3710
159.1429,104.3710
159.2776,104.3208
159.2776,104.3208
159.3372,104.3144
159.6616,104.3144
159.7286,104.2947
159.7744,104.2419
159.7843,104.1728
159.7553,104.1092
159.7184,104.0802
159.6759,104.0583
159.6444,104.0335
159.6001,103.9986
159.5144,103.9313
159.3799,103.7761
159.2772,103.5982
159.2101,103.4041
159.2091,103.3975
159.1801,103.3339
159.1213,103.2961
159.0864,103.2911
155.7612,103.2911
155.7191,103.2860
155.6347,103.2757
155.6253,103.2722
155.5813,103.2641
155.2786,103.2641
155.2786,103.2641
155.2638,103.2612
155.2202,103.2525
155.2202,103.2525
155.2202,103.2525
155.1538,103.2082
155.1095,103.1418
155.1095,103.1418
155.1095,103.1418
155.0979,103.0834
155.0979,103.0833
155.0979,102.6439
155.1007,102.6297
155.1031,102.6055
155.1031,102.5055
155.1040,102.4981
155.1019,102.4978
155.1028,102.4579
155.0979,102.4333
155.0979,102.3002
155.0782,102.2331
155.0482,102.2009
154.9412,102.1208
154.9412,102.1208
154.8551,102.0057
154.8550,102.0057
154.8048,101.8710
154.8048,101.8710
154.7984,101.8114
154.7984,101.8114
154.7984,101.7636
157.0484,101.7636
157.0484,101.7661
157.0681,101.8331
157.1209,101.8789
157.1724,101.8901
159.8192,101.8901
159.8229,101.8900
159.8848,101.8862
159.8848,101.8862
159.9458,101.8974
159.9495,101.8980
159.9619,101.8995
160.0128,101.8910
160.0407,101.9129
160.0499,101.9162
160.0521,101.9169
160.1087,101.9424
160.1121,101.9438
160.1701,101.9658
160.1701,101.9658
160.1785,101.9715
160.1980,101.9826
160.2073,101.9867
160.2561,102.0250
160.2591,102.0272
160.2950,102.0519
160.3613,102.0738
160.3654,102.0739
160.5932,102.0739
160.7465,102.0885
160.7465,102.0885
160.7465,102.0885
160.9435,102.1464
161.1261,102.2405
161.2876,102.3675
161.2876,102.3675
161.4221,102.5227
161.5248,102.7006
161.5919,102.8947
161.5919,102.8947
161.5919,102.8947
161.6212,103.0980
161.6114,103.3032
161.5630,103.5028
161.5124,103.6134
161.4776,103.6896
161.4776,103.6896
161.3585,103.8569
161.3585,103.8569
161.2099,103.9986
161.0738,104.0861
161.0280,104.1389
161.0181,104.2080
161.0471,104.2716
161.1059,104.3094
161.1408,104.3144
161.4648,104.3144
161.5244,104.3208
161.5244,104.3208
161.6591,104.3710
161.6591,104.3710
161.7742,104.4572
161.7742,104.4572
161.8604,104.5723
161.8604,104.5723
161.9106,104.7070
161.9106,104.7070
161.9170,104.7666
161.9170,105.4394
160.7167,105.4394
160.7286,105.4514
160.7862,105.5643
160.8060,105.6894
160.7862,105.8145
160.7286,105.9274
160.7167,105.9394
161.9170,105.9394
161.9170,106.6122
162.3772,106.6122
162.3772,100.5580
161.6212,100.5580
161.6114,100.7632
161.5630,100.9628
161.5095,101.0799
161.4776,101.1496
161.4776,101.1496
161.3585,101.3169
161.3585,101.3169
161.2099,101.4586
161.0371,101.5697
160.9762,101.5941
160.8464,101.6460
160.6993,101.6744
160.6447,101.6849
160.6447,101.6849
160.2088,101.6849
160.2088,101.6849
160.0985,101.6744
160.0512,101.6835
160.0258,101.6625
160.0118,101.6574
159.8585,101.6124
159.6759,101.5183
159.5144,101.3913
159.5030,101.3781
159.4442,101.3403
159.4093,101.3353
157.8926,101.3353
157.8889,101.3354
157.8816,101.3359
157.8270,101.3392
157.7893,101.3322
157.7660,101.3280
157.7623,101.3274
157.7444,101.3252
157.7007,101.3199
157.6913,101.3163
157.6696,101.3103
157.6666,101.3098
157.6597,101.3085
157.6031,101.2830
157.5997,101.2816
157.5417,101.2596
157.5333,101.2539
157.5138,101.2428
157.5045,101.2387
157.4557,101.2004
157.4527,101.1982
157.4017,101.1630
157.3605,101.1165
157.3580,101.1139
157.2601,101.0159
157.1988,100.9825
157.1291,100.9874
157.0731,101.0293
157.0487,101.0948
157.0484,101.1036
157.0484,101.1614
157.0415,101.2253
157.0415,101.2519
157.0484,101.3158
157.0484,101.3158
157.0484,101.3636
156.1234,101.3636
156.1234,101.1136
155.7234,101.1136
155.7234,101.3636
154.7984,101.3636
154.7984,101.3158
154.7984,101.3158
154.8053,101.2519
154.8053,101.2253
154.7984,101.1614
154.7984,101.1614
154.7984,101.1136
155.7234,101.1136
156.1234,101.1136
156.1234,100.8376
156.1037,100.7706
156.0509,100.7248
155.9994,100.7136
154.7984,100.7136
154.7984,100.6658
154.7984,100.6658
154.8048,100.6062
154.8048,100.6062
154.8550,100.4715
154.8551,100.4715
154.9412,100.3564
154.9412,100.3564
154.9453,100.3534
154.9871,100.2974
154.9921,100.2277
154.9914,100.2245
154.9507,100.0595
154.9507,99.8893
154.9914,99.7242
155.0038,99.7005
155.0705,99.5735
155.0747,99.5674
155.0724,99.5658
155.0964,99.5145
155.0979,99.4956
155.0979,99.3938
155.0979,99.3938
155.1119,99.3234
155.1106,99.3231
155.1167,99.2666
155.1097,99.2427
155.1095,99.2418
155.0979,99.1833
155.0979,99.1489
155.0837,99.0913
155.0338,98.9962
155.0168,98.9638
154.9761,98.7987
154.9761,98.6285
155.0168,98.4634
155.0378,98.4234
155.0515,98.3549
155.0260,98.2899
155.0023,98.2665
154.9412,98.2208
154.8551,98.1057
154.8550,98.1057
154.8048,97.9710
154.8048,97.9710
154.7984,97.9114
154.7984,97.9114
154.7984,97.8636
157.0484,97.8636
157.0484,97.8891
157.0681,97.9561
157.1209,98.0019
157.1724,98.0131
159.0694,98.0131
159.1365,97.9934
159.1822,97.9406
159.1900,97.9183
159.1906,97.9156
159.1906,97.9156
159.2390,97.7160
159.3244,97.5292
159.3244,97.5292
159.4435,97.3619
159.4435,97.3619
159.5921,97.2202
159.6023,97.2136
157.0484,97.2136
157.0484,97.2614
157.0484,97.2614
157.0415,97.3253
157.0415,97.3519
157.0484,97.4158
157.0484,97.4158
157.0484,97.4636
156.1234,97.4636
156.1234,97.2136
155.7234,97.2136
155.7234,97.4636
154.7984,97.4636
154.7984,97.4158
154.7984,97.4158
154.8053,97.3519
154.8053,97.3253
154.7984,97.2614
154.7984,97.2614
154.7984,97.2136
155.7234,97.2136
156.1234,97.2136
157.0484,97.2136
159.6023,97.2136
159.7649,97.1091
159.9556,97.0328
159.9556,97.0328
159.9556,97.0328
159.9556,97.0328
159.9556,97.0328
160.1573,96.9939
160.1573,96.9939
160.5932,96.9939
160.7465,97.0085
160.7465,97.0085
160.7465,97.0085
160.9435,97.0664
161.1261,97.1605
161.2876,97.2875
161.2876,97.2875
161.4221,97.4427
161.5248,97.6206
161.5919,97.8147
161.5919,97.8147
161.5919,97.8147
161.6212,98.0180
161.6114,98.2232
161.5630,98.4228
161.5124,98.5334
161.4776,98.6096
161.4776,98.6096
161.3585,98.7769
161.3585,98.7769
161.2099,98.9186
161.0371,99.0297
160.8464,99.1060
160.8464,99.1060
160.6951,99.1352
160.6447,99.1449
160.6447,99.1449
160.3675,99.1449
160.3005,99.1646
160.2798,99.1812
160.2684,99.1927
160.2659,99.1953
160.2247,99.2418
160.2234,99.2427
160.1737,99.2770
160.1707,99.2792
160.1285,99.3123
160.0878,99.3691
160.0844,99.4389
160.1192,99.4995
160.1813,99.5316
160.2050,99.5339
160.5932,99.5339
160.7465,99.5485
160.7465,99.5485
160.7465,99.5485
160.9435,99.6064
161.1261,99.7005
161.2876,99.8275
161.2876,99.8275
161.4221,99.9827
161.5248,100.1606
161.5919,100.3547
161.5919,100.3547
161.5919,100.3547
161.6212,100.5580
162.3772,100.5580
162.3772,92.7394
161.8962,92.7394
160.7167,92.7394
160.7286,92.7514
160.7862,92.8643
160.8060,92.9894
160.7862,93.1145
160.7286,93.2274
160.7167,93.2394
161.8947,93.2394
161.8615,93.3935
161.7742,93.6107
161.6515,93.8100
161.4969,93.9857
161.4969,93.9857
161.3148,94.1327
161.3148,94.1327
161.1104,94.2469
160.9603,94.2999
160.9036,94.3408
160.8781,94.4058
160.8918,94.4744
160.9403,94.5246
160.9448,94.5270
161.1261,94.6205
161.2876,94.7475
161.2876,94.7475
161.4221,94.9027
161.5248,95.0806
161.5919,95.2747
161.5919,95.2747
161.5919,95.2747
161.6212,95.4780
161.6114,95.6832
161.5630,95.8828
161.5399,95.9333
161.4776,96.0696
161.4776,96.0696
161.3585,96.2369
161.3585,96.2369
161.2099,96.3786
161.0371,96.4897
160.9909,96.5082
160.8464,96.5660
160.6951,96.5952
160.6447,96.6049
160.6447,96.6049
160.3473,96.6049
160.2802,96.6246
160.2708,96.6313
160.2581,96.6413
160.2488,96.6454
160.2293,96.6565
160.2209,96.6622
160.1629,96.6842
160.1595,96.6856
160.1299,96.6990
160.1029,96.7111
160.1029,96.7111
160.1029,96.7111
160.0930,96.7129
160.0713,96.7189
160.0619,96.7225
160.0619,96.7225
160.0451,96.7246
160.0003,96.7300
159.9966,96.7306
159.9356,96.7418
159.9356,96.7418
159.9356,96.7418
159.8737,96.7380
159.8700,96.7379
157.1724,96.7379
157.1054,96.7576
157.0866,96.7792
157.0847,96.7773
157.0484,96.8136
154.7984,96.8136
154.7984,96.7658
154.7984,96.7658
154.8048,96.7062
154.8048,96.7062
154.8550,96.5715
154.8551,96.5715
154.9412,96.4564
155.0482,96.3763
155.0901,96.3204
155.0979,96.2770
155.0979,96.1438
155.0979,96.1438
155.1119,96.0734
155.1106,96.0731
155.1167,96.0166
155.1097,95.9927
155.1095,95.9918
155.0979,95.9333
155.0979,95.4939
155.0979,95.4939
155.0979,95.4938
155.0979,95.4938
155.1095,95.4354
155.1095,95.4354
155.1538,95.3690
155.2202,95.3247
155.2202,95.3247
155.2786,95.3131
155.2787,95.3131
156.5681,95.3131
156.5682,95.3131
156.6266,95.3247
156.6332,95.3275
156.6807,95.3369
159.1025,95.3369
159.1695,95.3172
159.2153,95.2644
159.2230,95.2421
159.2390,95.1760
159.2390,95.1760
159.2738,95.0998
159.3244,94.9892
159.3654,94.9316
159.4435,94.8219
159.4435,94.8219
159.5921,94.6802
159.7649,94.5691
159.8505,94.5349
159.9054,94.4917
159.9282,94.4256
159.9118,94.3577
159.8612,94.3095
159.8356,94.2997
159.8003,94.2905
159.8003,94.2905
159.5870,94.1941
159.5870,94.1941
159.3931,94.0631
159.2241,93.9011
159.2241,93.9011
159.0849,93.7129
158.9795,93.5039
158.9110,93.2801
158.9058,93.2394
160.0853,93.2394
160.0734,93.2274
160.0158,93.1145
159.9960,92.9894
160.0158,92.8643
160.0734,92.7514
160.0853,92.7394
158.9073,92.7394
158.9405,92.5853
159.0278,92.3681
159.1505,92.1688
159.3051,91.9931
159.3051,91.9931
159.4873,91.8461
159.4873,91.8461
159.6916,91.7319
159.8417,91.6789
159.8984,91.6380
159.9239,91.5730
159.9102,91.5044
159.8617,91.4542
159.8573,91.4518
159.6759,91.3583
159.5144,91.2313
159.3799,91.0761
159.3737,91.0652
159.3717,91.0619
159.3212,91.0137
159.2644,90.9999
158.6622,90.9999
158.5951,91.0196
158.5745,91.0362
157.5788,92.0319
157.5774,92.0334
157.5329,92.0810
157.5329,92.0810
157.4951,92.1040
157.4898,92.1076
157.4545,92.1344
157.4463,92.1376
157.4378,92.1409
157.4189,92.1504
157.4036,92.1597
157.3610,92.1716
157.3549,92.1736
157.3138,92.1899
157.2959,92.1917
157.2751,92.1957
157.2579,92.2005
157.2136,92.2005
157.2073,92.2008
157.1632,92.2054
157.1455,92.2023
157.1245,92.2005
154.9636,92.2005
154.8965,92.2202
154.8508,92.2730
154.8456,92.2902
154.8450,92.2900
154.8390,92.3086
154.8405,92.3091
154.8301,92.3525
154.8301,93.9187
154.8301,93.9209
154.8311,93.9498
154.8320,93.9741
154.8324,93.9860
154.8219,94.0290
154.8207,94.0353
154.8147,94.0791
154.8075,94.0956
154.8008,94.1156
154.7965,94.1331
154.7787,94.1648
154.7748,94.1716
154.7720,94.1773
154.7544,94.2179
154.7544,94.2179
154.7431,94.2318
154.7312,94.2493
154.7224,94.2650
154.7224,94.2650
154.6911,94.2963
154.6868,94.3010
154.6589,94.3353
154.6442,94.3457
154.6280,94.3593
150.2918,98.6955
150.2904,98.6970
150.2869,98.7007
150.2459,98.7446
150.2081,98.7676
150.2028,98.7712
150.1675,98.7980
150.1593,98.8012
150.1508,98.8045
150.1319,98.8140
150.1166,98.8233
150.0740,98.8352
150.0679,98.8372
150.0268,98.8535
150.0089,98.8553
149.9881,98.8593
149.9709,98.8641
149.9266,98.8641
149.9203,98.8644
149.8762,98.8690
149.8585,98.8659
149.8375,98.8641
149.7593,98.8641
149.6923,98.8838
149.6466,98.9366
149.6366,99.0057
149.6601,99.0624
149.7418,99.1715
149.7418,99.1715
149.7920,99.3062
149.7920,99.3062
149.7984,99.3658
149.7984,99.4136
148.5974,99.4136
148.5304,99.4333
148.4846,99.4861
148.4734,99.5376
148.4734,99.6896
148.4931,99.7566
148.5459,99.8024
148.5974,99.8136
149.7984,99.8136
149.7984,99.8614
149.7920,99.9210
149.7920,99.9210
149.7418,100.0557
149.7418,100.0557
149.6556,100.1708
149.6556,100.1708
149.5486,100.2509
149.5067,100.3068
149.4989,100.3502
149.4989,100.4834
149.4849,100.5538
149.4862,100.5541
149.4801,100.6106
149.4871,100.6345
149.4989,100.6938
149.4989,101.1334
149.4849,101.2038
149.4862,101.2041
149.4801,101.2606
149.4871,101.2845
149.4989,101.3438
149.4989,101.7834
149.4849,101.8538
149.4862,101.8541
149.4801,101.9106
149.4871,101.9345
149.4989,101.9938
149.4989,102.2848
149.5099,102.3358
149.5103,102.3367
149.5213,102.3561
149.5270,102.3645
149.5270,102.3645
149.5270,102.3645
149.5270,102.3645
149.5490,102.4225
149.5504,102.4259
149.5759,102.4825
149.5777,102.4924
149.5837,102.5141
149.5873,102.5235
149.5873,102.5235
149.5948,102.5851
149.5954,102.5888
149.6066,102.6498
149.6066,102.6498
149.6028,102.7117
149.6027,102.7154
149.6027,104.5183
149.6224,104.5854
149.6535,104.6164
149.6527,104.6175
149.8188,104.7481
149.8188,104.7481
149.9533,104.9033
150.0560,105.0812
150.1231,105.2753
150.1231,105.2753
150.1231,105.2753
150.1524,105.4786
150.1426,105.6838
150.0942,105.8834
150.0417,105.9984
150.0088,106.0702
150.0088,106.0702
149.8897,106.2375
149.8897,106.2375
149.7411,106.3792
149.5683,106.4903
149.4818,106.5249
149.3776,106.5666
149.2263,106.5958
149.1759,106.6055
149.1759,106.6055
148.7400,106.6055
148.7400,106.6055
148.5867,106.5909
148.3897,106.5330
148.2071,106.4389
148.0456,106.3119
147.9111,106.1567
147.8944,106.1277
147.8084,105.9788
147.8084,105.9788
147.7413,105.7847
147.7120,105.5814
147.7218,105.3762
147.7702,105.1766
147.8556,104.9898
147.8556,104.9898
147.9747,104.8225
147.9747,104.8225
148.0060,104.7926
148.1233,104.6808
148.1233,104.6808
148.1233,104.6808
148.1447,104.6670
148.1905,104.6142
148.2017,104.5627
148.2017,103.3881
148.1820,103.3211
148.1292,103.2753
148.0777,103.2641
148.0286,103.2641
148.0286,103.2641
148.0138,103.2612
147.9702,103.2525
147.9702,103.2525
147.9702,103.2525
147.9038,103.2082
147.8595,103.1418
147.8595,103.1418
147.8595,103.1418
147.8479,103.0834
147.8479,103.0833
147.8479,102.6438
147.8479,102.6438
147.8619,102.5734
147.8606,102.5731
147.8667,102.5166
147.8597,102.4927
147.8595,102.4918
147.8479,102.4333
147.8479,102.0241
147.8282,101.9571
147.7754,101.9113
147.7239,101.9001
147.6138,101.9001
147.5467,101.9198
147.5261,101.9364
146.8448,102.6177
146.1711,103.2914
146.1675,103.2954
146.1415,103.3264
146.1415,103.3264
146.1415,103.3264
146.1285,103.3339
146.1064,103.3466
146.1018,103.3495
146.0687,103.3728
146.0687,103.3728
146.0687,103.3728
146.0638,103.3750
146.0471,103.3820
146.0420,103.3838
146.0420,103.3838
146.0420,103.3838
146.0022,103.3908
145.9969,103.3920
145.9851,103.3952
145.9578,103.4025
145.9175,103.3989
145.9121,103.3987
145.6026,103.3987
145.5355,103.4184
145.4898,103.4712
145.4561,103.5450
145.4248,103.6134
145.4248,103.6134
145.3057,103.7807
145.3057,103.7807
145.1571,103.9224
145.0385,103.9986
144.9843,104.0335
144.8987,104.0677
144.8438,104.1109
144.8210,104.1770
144.8374,104.2449
144.8880,104.2931
144.9136,104.3028
144.9489,104.3121
144.9489,104.3121
145.1622,104.4085
145.1622,104.4085
145.3561,104.5395
145.5251,104.7015
145.5251,104.7015
145.6643,104.8897
145.7697,105.0987
145.8382,105.3225
145.8434,105.3632
144.6639,105.3632
144.6758,105.3752
144.7334,105.4881
144.7532,105.6132
144.7334,105.7383
144.6758,105.8512
144.6639,105.8632
145.8419,105.8632
145.8087,106.0173
145.7214,106.2345
145.5987,106.4338
145.4441,106.6095
145.4441,106.6095
145.2619,106.7565
145.2619,106.7565
145.0576,106.8707
144.8369,106.9486
144.8369,106.9486
144.6062,106.9882
144.6062,106.9882
144.5982,106.9882
144.5982,105.9289
144.5862,105.9408
144.4733,105.9984
144.3797,106.0132
144.3167,106.0132
144.2231,105.9984
144.1102,105.9408
144.0982,105.9289
144.0982,106.9839
143.9740,106.9733
143.9740,106.9733
143.7475,106.9143
143.7475,106.9143
143.5342,106.8179
143.5342,106.8179
143.3403,106.6869
143.1713,106.5249
143.1713,106.5249
143.0321,106.3367
142.9267,106.1277
142.8582,105.9039
142.8530,105.8632
144.0325,105.8632
144.0206,105.8512
143.9630,105.7383
143.9432,105.6132
143.9630,105.4881
144.0206,105.3752
144.0325,105.3632
142.8545,105.3632
142.8877,105.2091
142.9750,104.9919
143.0977,104.7926
143.2523,104.6169
143.2523,104.6169
143.4345,104.4699
143.4345,104.4699
143.6388,104.3557
143.7889,104.3027
143.8456,104.2618
143.8711,104.1968
143.8574,104.1282
143.8089,104.0780
143.8045,104.0756
143.6231,103.9821
143.4616,103.8551
143.3271,103.6999
143.2244,103.5220
143.1573,103.3279
143.1280,103.1246
143.1378,102.9194
143.1862,102.7198
143.2716,102.5330
143.2783,102.5235
143.3907,102.3657
143.3907,102.3657
143.5393,102.2240
143.7121,102.1129
143.9028,102.0366
143.9028,102.0366
143.9028,102.0366
143.9028,102.0366
143.9028,102.0366
144.1045,101.9977
144.1045,101.9977
144.5404,101.9977
144.6937,102.0123
144.6937,102.0123
144.6937,102.0123
144.8907,102.0702
145.0733,102.1643
145.2348,102.2913
145.2348,102.2913
145.3693,102.4465
145.4720,102.6244
145.4858,102.6643
145.5263,102.7212
145.5911,102.7471
145.6029,102.7477
145.7428,102.7477
145.8098,102.7280
145.8305,102.7114
146.4290,102.1129
147.0547,101.4872
147.0882,101.4259
147.0832,101.3562
147.0413,101.3002
146.9759,101.2758
146.9670,101.2755
145.3189,101.2755
145.2518,101.2952
145.2333,101.3098
145.1975,101.3439
145.1571,101.3824
144.9843,101.4935
144.8776,101.5362
144.7936,101.5698
144.6423,101.5990
144.5919,101.6087
144.5919,101.6087
144.1560,101.6087
144.1560,101.6087
144.0027,101.5941
143.8057,101.5362
143.6231,101.4421
143.4616,101.3151
143.3271,101.1599
143.3118,101.1333
143.2244,100.9820
143.2244,100.9820
143.1573,100.7879
143.1280,100.5846
143.1378,100.3794
143.1862,100.1798
143.2716,99.9930
143.2789,99.9827
143.3907,99.8257
143.3907,99.8257
143.5393,99.6840
143.7121,99.5729
143.9028,99.4966
143.9028,99.4966
143.9028,99.4966
143.9028,99.4966
143.9028,99.4966
144.1045,99.4577
144.1045,99.4577
144.5404,99.4577
144.6937,99.4723
144.6937,99.4723
144.6937,99.4723
144.8907,99.5302
145.0733,99.6243
145.2348,99.7513
145.2348,99.7513
145.3693,99.9065
145.4720,100.0844
145.5391,100.2785
145.5391,100.2785
145.5391,100.2785
145.5530,100.3753
145.5684,100.4818
145.5678,100.4946
145.5842,100.5625
145.6348,100.6107
145.6916,100.6245
147.5170,100.6245
147.5841,100.6048
147.6298,100.5520
147.6398,100.4829
147.6107,100.4193
147.6047,100.4128
146.5983,99.4064
145.6453,98.4534
145.5840,98.4200
145.5143,98.4249
145.4584,98.4668
145.4448,98.4896
145.4248,98.5334
145.4248,98.5334
145.3057,98.7007
145.3057,98.7007
145.1571,98.8424
144.9843,98.9535
144.9584,98.9638
144.7936,99.0298
144.6423,99.0590
144.5919,99.0687
144.5919,99.0687
144.1560,99.0687
144.1560,99.0687
144.0027,99.0541
143.8057,98.9962
143.6231,98.9021
143.4616,98.7751
143.3271,98.6199
143.2244,98.4420
143.1573,98.2479
143.1280,98.0446
143.1378,97.8394
143.1862,97.6398
143.2716,97.4530
143.2781,97.4439
143.3907,97.2857
143.3907,97.2857
143.5393,97.1440
143.7121,97.0329
143.9028,96.9566
143.9028,96.9566
143.9028,96.9566
143.9028,96.9566
143.9028,96.9566
144.1045,96.9177
144.1045,96.9177
144.5404,96.9177
144.6937,96.9323
144.6937,96.9323
144.6937,96.9323
144.8907,96.9902
145.0733,97.0843
145.2348,97.2113
145.2348,97.2113
145.3693,97.3665
145.4720,97.5444
145.4858,97.5843
145.5263,97.6412
145.5911,97.6671
145.6029,97.6677
145.6285,97.6677
145.6339,97.6675
145.6394,97.6670
145.6742,97.6639
145.7133,97.6744
145.7186,97.6756
145.7584,97.6826
145.7634,97.6844
145.7803,97.6914
145.7851,97.6936
145.7930,97.6992
145.8592,97.7215
145.9270,97.7045
145.9748,97.6536
145.9875,97.5848
145.9610,97.5202
145.9518,97.5100
144.9501,96.5082
144.8887,96.4747
144.8190,96.4797
144.8163,96.4807
144.7936,96.4898
144.6423,96.5190
144.5919,96.5287
144.5919,96.5287
144.1560,96.5287
144.1560,96.5287
144.0027,96.5141
143.8057,96.4562
143.6231,96.3621
143.4616,96.2351
143.3271,96.0799
143.3269,96.0794
143.2425,95.9333
143.2244,95.9020
143.1573,95.7079
143.1280,95.5046
143.1378,95.2994
143.1862,95.0998
143.2716,94.9130
143.2789,94.9027
143.3907,94.7457
143.3907,94.7457
143.5393,94.6040
143.7121,94.4929
143.9028,94.4166
143.9028,94.4166
143.9028,94.4166
143.9028,94.4166
143.9028,94.4166
144.1045,94.3777
144.1045,94.3777
144.5404,94.3777
144.6937,94.3923
144.6937,94.3923
144.6937,94.3923
144.8907,94.4502
145.0733,94.5443
145.2348,94.6713
145.2348,94.6713
145.3693,94.8265
145.4423,94.9530
145.4929,95.0013
145.5615,95.0145
145.6264,94.9885
145.6669,94.9316
145.6737,94.8910
145.6737,93.5332
145.6540,93.4661
145.6374,93.4455
145.6198,93.4279
145.5585,93.3944
145.4888,93.3994
145.4328,93.4413
145.4251,93.4531
145.3057,93.6207
145.3057,93.6207
145.1571,93.7624
144.9843,93.8735
144.8660,93.9209
144.7936,93.9498
144.6423,93.9790
144.5919,93.9887
144.5919,93.9887
144.1560,93.9887
144.1560,93.9887
144.0027,93.9741
143.8057,93.9162
143.6231,93.8221
143.4616,93.6951
143.3271,93.5399
143.3233,93.5332
143.2244,93.3620
143.2244,93.3620
143.1573,93.1679
143.1280,92.9646
143.1378,92.7594
143.1862,92.5598
143.2716,92.3730
143.2822,92.3581
143.3907,92.2057
143.3907,92.2057
143.5393,92.0640
143.7121,91.9529
143.9028,91.8766
143.9028,91.8766
143.9028,91.8766
143.9028,91.8766
143.9028,91.8766
144.1045,91.8377
144.1045,91.8377
144.5404,91.8377
144.6937,91.8523
144.6937,91.8523
144.6937,91.8523
144.8907,91.9102
145.0733,92.0043
145.2348,92.1313
145.2348,92.1313
145.3693,92.2865
145.4720,92.4644
145.4845,92.5007
145.5250,92.5576
145.5837,92.5811
145.5837,92.5811
145.5841,92.5812
145.5899,92.5836
145.5909,92.5836
145.5942,92.5839
145.6333,92.5944
145.6386,92.5956
145.6784,92.6026
145.6834,92.6044
145.7003,92.6114
145.7051,92.6136
145.7382,92.6369
145.7428,92.6398
145.7779,92.6600
145.7779,92.6600
145.8039,92.6910
145.8075,92.6950
146.2150,93.1025
146.2763,93.1360
146.3460,93.1310
146.4020,93.0891
146.4264,93.0237
146.4267,93.0148
146.4267,91.3612
146.4070,91.2941
146.3904,91.2735
145.8519,90.7350
145.7906,90.7015
145.7642,90.6987
145.6026,90.6987
145.5355,90.7184
145.4898,90.7712
145.4561,90.8450
145.4248,90.9134
145.4248,90.9134
145.3057,91.0807
145.3057,91.0807
145.1571,91.2224
144.9843,91.3335
144.9151,91.3612
144.7936,91.4098
144.6423,91.4390
144.5919,91.4487
144.5919,91.4487
144.1560,91.4487
144.1560,91.4487
144.0027,91.4341
143.8057,91.3762
143.6231,91.2821
143.6122,91.2735
143.4942,91.1807
143.4616,91.1551
143.3271,90.9999
143.2244,90.8220
143.1573,90.6279
143.1280,90.4246
143.1378,90.2194
143.1862,90.0198
143.2716,89.8330
143.2789,89.8227
143.3907,89.6657
143.3907,89.6657
143.5393,89.5240
143.7121,89.4129
143.9028,89.3366
143.9028,89.3366
143.9028,89.3366
143.9028,89.3366
143.9028,89.3366
144.1045,89.2977
144.1045,89.2977
144.5404,89.2977
144.6877,89.3118
144.6937,89.3123
144.6937,89.3123
144.8907,89.3702
145.0733,89.4643
145.2348,89.5913
145.2348,89.5913
145.3693,89.7465
145.4720,89.9244
145.4858,89.9643
145.5263,90.0212
145.5911,90.0471
145.6029,90.0477
145.9335,90.0477
145.9389,90.0475
145.9444,90.0470
145.9792,90.0439
146.0183,90.0544
146.0236,90.0556
146.0634,90.0626
146.0684,90.0644
146.0853,90.0714
146.0901,90.0736
146.1232,90.0969
146.1278,90.0998
146.1629,90.1200
146.1889,90.1510
146.1925,90.1550
146.9352,90.8977
146.9965,90.9312
147.0662,90.9262
147.1222,90.8843
147.1466,90.8189
147.1469,90.8100
147.1469,89.2064
147.1272,89.1393
147.1106,89.1187
146.1869,88.1950
146.1256,88.1615
146.0992,88.1587
145.6887,88.1587
145.6217,88.1784
145.5759,88.2312
145.5647,88.2827
145.5647,88.7280
145.5531,88.7864
145.5531,88.7864
145.5088,88.8528
145.4424,88.8971
145.4424,88.8971
145.3840,88.9087
145.3839,88.9087
145.3839,88.9087
143.3124,88.9087
143.3124,88.9087
143.2976,88.9058
143.2540,88.8971
143.2540,88.8971
143.2540,88.8971
143.1876,88.8528
143.1433,88.7864
143.1433,88.7864
143.1433,88.7864
143.1317,88.7280
143.1317,88.7279
143.1317,86.9384
143.1317,86.9384
143.1433,86.8800
143.1433,86.8800
143.1876,86.8136
143.2540,86.7693
143.2540,86.7693
143.3124,86.7577
143.3125,86.7577
145.3839,86.7577
145.3840,86.7577
145.4424,86.7693
145.4424,86.7693
145.5088,86.8136
145.5531,86.8800
145.5531,86.8800
145.5647,86.9384
145.5647,87.3837
145.5844,87.4507
145.6372,87.4965
145.6887,87.5077
146.2685,87.5077
146.2739,87.5075
146.2794,87.5070
146.3142,87.5039
146.3533,87.5144
146.3586,87.5156
146.3984,87.5226
146.4034,87.5244
146.4203,87.5314
146.4251,87.5336
146.4582,87.5569
146.4628,87.5598
146.4979,87.5800
146.5239,87.6110
146.5275,87.6150
147.6906,88.7781
147.6946,88.7817
147.7256,88.8077
147.7458,88.8428
147.7487,88.8474
147.7720,88.8805
147.7742,88.8853
147.7812,88.9022
147.7830,88.9072
147.7900,88.9470
147.7912,88.9523
147.8017,88.9914
147.7981,89.0317
147.7979,89.0371
147.7979,92.6015
147.8176,92.6685
147.8704,92.7143
147.9395,92.7242
148.0031,92.6952
148.0075,92.6912
148.1233,92.5808
148.2961,92.4697
148.4868,92.3934
148.4868,92.3934
148.4868,92.3934
148.4868,92.3934
148.4868,92.3934
148.6885,92.3545
148.6885,92.3545
149.1244,92.3545
149.1410,92.3561
149.1623,92.3581
149.2309,92.3449
149.2815,92.2967
149.2981,92.2347
149.2981,92.0400
150.3416,92.0400
150.4086,92.0203
150.4544,91.9675
150.4656,91.9160
150.4656,90.6500
149.9656,90.6500
149.9656,91.5400
149.2981,91.5400
149.2981,91.3015
149.3046,91.2301
149.3558,91.0657
149.4448,90.9184
149.5665,90.7967
149.7138,90.7077
149.7138,90.7077
149.8782,90.6565
149.8782,90.6565
149.9496,90.6500
149.9656,90.6500
150.4656,90.6500
150.4816,90.6500
150.5530,90.6565
150.6719,90.6935
150.7418,90.6947
150.8012,90.6579
150.8248,90.6191
150.8458,90.5637
150.8515,90.5553
150.8626,90.5358
150.8667,90.5265
150.8667,90.5265
150.9050,90.4777
150.9072,90.4747
150.9315,90.4394
150.9534,90.3731
150.9360,90.3054
150.8847,90.2580
150.8295,90.2450
150.7722,90.2450
150.7722,88.8200
150.2722,88.8200
150.2722,90.2450
149.9722,90.2450
149.9722,90.2450
149.8695,90.2345
149.8695,90.2345
149.7031,90.1794
149.7031,90.1794
149.5539,90.0873
149.4299,89.9633
149.3378,89.8141
149.3378,89.8141
149.2827,89.6477
149.2827,89.6477
149.2722,89.5450
149.2722,89.5450
149.2722,88.8200
150.2722,88.8200
150.7722,88.8200
151.7722,88.8200
151.7722,89.3074
151.7919,89.3745
151.8447,89.4202
151.9138,89.4302
151.9666,89.4095
151.9853,89.3966
151.9883,89.3944
152.0371,89.3561
152.0371,89.3561
152.0464,89.3520
152.0659,89.3409
152.0675,89.3398
152.0743,89.3352
152.1323,89.3132
152.1357,89.3118
152.1923,89.2863
152.2023,89.2845
152.2239,89.2785
152.2333,89.2749
152.2333,89.2749
152.2949,89.2674
152.2986,89.2668
152.3596,89.2556
152.3596,89.2556
152.4215,89.2594
152.4252,89.2595
152.6977,89.2595
152.7647,89.2398
152.8105,89.1870
152.8217,89.1355
152.8217,88.3200
151.7722,88.3200
150.7722,88.3200
150.7722,86.8950
150.2722,86.8950
150.2722,88.3200
149.2722,88.3200
149.2722,87.5950
149.2722,87.5950
149.2827,87.4923
149.2827,87.4923
149.3378,87.3259
149.3378,87.3259
149.4299,87.1767
149.5539,87.0527
149.7031,86.9606
149.7031,86.9606
149.8695,86.9055
149.8695,86.9055
149.9722,86.8950
150.2722,86.8950
150.7722,86.8950
151.0722,86.8950
151.1749,86.9055
151.1749,86.9055
151.3413,86.9606
151.3413,86.9606
151.4905,87.0527
151.6145,87.1767
151.7066,87.3259
151.7066,87.3259
151.7617,87.4923
151.7617,87.4923
151.7722,87.5950
151.7722,88.3200
152.8217,88.3200
152.8217,87.5907
152.8217,87.5907
152.8246,87.5603
152.8694,87.4321
152.9501,87.3229
153.0593,87.2422
153.0593,87.2422
153.1875,87.1974
153.1875,87.1974
153.2179,87.1945
154.3265,87.1945
154.3569,87.1974
154.3569,87.1974
154.4851,87.2422
154.5943,87.3229
154.6750,87.4321
154.7198,87.5603
154.7227,87.5907
154.7227,87.7455
154.7424,87.8125
154.7952,87.8583
154.8467,87.8695
155.6307,87.8695
155.6977,87.8498
155.7184,87.8332
155.8969,87.6547
156.1212,87.4303
156.1237,87.4276
156.1649,87.3812
156.1649,87.3812
156.1649,87.3812
156.2159,87.3460
156.2189,87.3438
156.2677,87.3055
156.2677,87.3055
156.2770,87.3014
156.2965,87.2903
156.3049,87.2846
156.3049,87.2846
156.3049,87.2846
156.3629,87.2626
156.3663,87.2612
156.4229,87.2357
156.4329,87.2339
156.4545,87.2279
156.4639,87.2243
156.4639,87.2243
156.5255,87.2168
156.5292,87.2162
156.5902,87.2050
156.5902,87.2050
156.6521,87.2088
156.6558,87.2089
159.3865,87.2089
159.4535,87.1892
159.4721,87.1746
159.5921,87.0602
159.7649,86.9491
159.9556,86.8728
159.9556,86.8728
159.9556,86.8728
159.9556,86.8728
159.9556,86.8728
160.1573,86.8339
160.1573,86.8339
160.5932,86.8339
160.7465,86.8485
160.7465,86.8485
160.7465,86.8485
160.9435,86.9064
161.1261,87.0005
161.2876,87.1275
161.2876,87.1275
161.4221,87.2827
161.5248,87.4606
161.5919,87.6547
161.5919,87.6547
161.5919,87.6547
161.6212,87.8580
161.6114,88.0632
161.5630,88.2628
161.5368,88.3200
161.4776,88.4496
161.4776,88.4496
161.3585,88.6169
161.3585,88.6169
161.2099,88.7586
161.0371,88.8697
160.9396,88.9087
160.8464,88.9460
160.6951,88.9752
160.6447,88.9849
160.6447,88.9849
160.2088,88.9849
160.2088,88.9849
160.0555,88.9703
159.8585,88.9124
159.6759,88.8183
159.5144,88.6913
159.4810,88.6527
159.4222,88.6149
159.3873,88.6099
156.9743,88.6099
156.9073,88.6296
156.8866,88.6462
156.4838,89.0490
156.4813,89.0517
156.4401,89.0982
156.4401,89.0982
156.4151,89.1155
156.3891,89.1334
156.3861,89.1356
156.3373,89.1739
156.3373,89.1739
156.3373,89.1739
156.3280,89.1780
156.3085,89.1891
156.3001,89.1948
156.2421,89.2168
156.2387,89.2182
156.2091,89.2316
156.1821,89.2437
156.1821,89.2437
156.1821,89.2437
156.1722,89.2455
156.1505,89.2515
156.1411,89.2551
156.1411,89.2551
156.1243,89.2572
156.0795,89.2626
156.0758,89.2632
156.0148,89.2744
156.0148,89.2744
156.0148,89.2744
155.9529,89.2706
155.9492,89.2705
154.8467,89.2705
154.7797,89.2902
154.7339,89.3430
154.7227,89.3945
154.7227,89.5493
154.7198,89.5797
154.7198,89.5797
154.6750,89.7079
154.6750,89.7079
154.5943,89.8171
154.4851,89.8978
154.3569,89.9426
154.3569,89.9426
154.3523,89.9431
154.3265,89.9455
154.1787,89.9455
154.1117,89.9652
154.0910,89.9818
153.6338,90.4391
153.6313,90.4417
153.5901,90.4882
153.5684,90.5032
153.5244,90.5575
153.5168,90.6269
153.5479,90.6895
153.5747,90.7113
153.6333,90.7467
153.6333,90.7467
153.7550,90.8684
153.7596,90.8743
153.7620,90.8725
153.8033,90.9102
153.8721,90.9220
153.8961,90.9167
153.9024,90.9147
153.9982,90.8995
154.4802,90.8995
154.5760,90.9147
154.5760,90.9147
154.6530,90.9539
154.6915,90.9735
154.6915,90.9735
154.6915,90.9735
154.7179,90.9999
154.7811,91.0632
154.8425,91.0967
154.8688,91.0995
156.9028,91.0995
156.9699,91.0798
156.9905,91.0632
157.4810,90.5727
157.9862,90.0675
157.9876,90.0660
158.0321,90.0184
158.0613,90.0006
158.0699,89.9954
158.0752,89.9918
158.1105,89.9650
158.1105,89.9650
158.1272,89.9585
158.1461,89.9491
158.1614,89.9397
158.2040,89.9278
158.2101,89.9258
158.2512,89.9095
158.2512,89.9095
158.2691,89.9077
158.2898,89.9037
158.3071,89.8989
158.3071,89.8989
158.3514,89.8989
158.3577,89.8986
158.3854,89.8957
158.4018,89.8940
158.4018,89.8940
158.4195,89.8971
158.4405,89.8989
159.2678,89.8989
159.3348,89.8792
159.3688,89.8468
159.4435,89.7419
159.4435,89.7419
159.5921,89.6002
159.7649,89.4891
159.9556,89.4128
159.9556,89.4128
159.9556,89.4128
159.9556,89.4128
159.9556,89.4128
160.1573,89.3739
160.1573,89.3739
160.5932,89.3739
160.7465,89.3885
160.7465,89.3885
160.7465,89.3885
160.9435,89.4464
161.1261,89.5405
161.2876,89.6675
161.2876,89.6675
161.4221,89.8227
161.5248,90.0006
161.5919,90.1947
161.5919,90.1947
161.5919,90.1947
161.6212,90.3980
161.6114,90.6032
161.5630,90.8028
161.5303,90.8743
161.4776,90.9896
161.4776,90.9896
161.3585,91.1569
161.3585,91.1569
161.2099,91.2986
161.0892,91.3762
161.0371,91.4097
160.9515,91.4439
160.8966,91.4871
160.8738,91.5532
160.8902,91.6211
160.9408,91.6693
160.9664,91.6790
161.0017,91.6883
161.0017,91.6883
161.2150,91.7847
161.2150,91.7847
161.4089,91.9157
161.5779,92.0777
161.5779,92.0777
161.7171,92.2659
161.8225,92.4749
161.8910,92.6987
161.8962,92.7394
162.3772,92.7394
162.3772,86.4988
162.3575,86.4318
162.3047,86.3861
162.2534,86.3748
154.6190,86.3653
150.7771,86.3605
142.5012,86.3605
Z" /> 
</g>
</g>
</g> 
</svg>
